<mxfile host="app.diagrams.net" modified="2024-05-07T14:01:37.789Z" agent="Mozilla/5.0 (Windows NT 10.0; Win64; x64) AppleWebKit/537.36 (KHTML, like Gecko) Chrome/116.0.0.0 Safari/537.36" etag="a1ne9VkN2CZoeteRh9wR" version="24.3.1" type="github">
  <diagram name="第 1 页" id="S7Co78Ii6qW7OndN5g1J">
    <mxGraphModel dx="4057" dy="2126" grid="1" gridSize="10" guides="1" tooltips="1" connect="1" arrows="1" fold="1" page="1" pageScale="1" pageWidth="2339" pageHeight="3300" math="0" shadow="0">
      <root>
        <mxCell id="0" />
        <mxCell id="1" parent="0" />
        <mxCell id="gYu7qt-4oHGNPAb3_qpJ-1" value="&lt;div style=&quot;color: #d4d4d4;background-color: #282828;font-family: Consolas, &#39;Courier New&#39;, monospace;font-weight: normal;font-size: 13px;line-height: 18px;white-space: pre;&quot;&gt;&lt;div&gt;&lt;span style=&quot;color: #569cd6;&quot;&gt;class&lt;/span&gt;&lt;span style=&quot;color: #d4d4d4;&quot;&gt; &lt;/span&gt;&lt;span style=&quot;color: #4ec9b0;&quot;&gt;Solution&lt;/span&gt;&lt;span style=&quot;color: #d4d4d4;&quot;&gt; {&lt;/span&gt;&lt;/div&gt;&lt;div&gt;&lt;span style=&quot;color: #569cd6;&quot;&gt;public:&lt;/span&gt;&lt;/div&gt;&lt;div&gt;&lt;span style=&quot;color: #d4d4d4;&quot;&gt;&amp;nbsp; &amp;nbsp; &lt;/span&gt;&lt;span style=&quot;color: #4ec9b0;&quot;&gt;ListNode&lt;/span&gt;&lt;span style=&quot;color: #569cd6;&quot;&gt;*&lt;/span&gt;&lt;span style=&quot;color: #d4d4d4;&quot;&gt; &lt;/span&gt;&lt;span style=&quot;color: #dcdcaa;&quot;&gt;mergeTwoLists&lt;/span&gt;&lt;span style=&quot;color: #d4d4d4;&quot;&gt;(&lt;/span&gt;&lt;span style=&quot;color: #4ec9b0;&quot;&gt;ListNode&lt;/span&gt;&lt;span style=&quot;color: #569cd6;&quot;&gt;*&lt;/span&gt;&lt;span style=&quot;color: #d4d4d4;&quot;&gt; &lt;/span&gt;&lt;span style=&quot;color: #9cdcfe;&quot;&gt;l1&lt;/span&gt;&lt;span style=&quot;color: #d4d4d4;&quot;&gt;, &lt;/span&gt;&lt;span style=&quot;color: #4ec9b0;&quot;&gt;ListNode&lt;/span&gt;&lt;span style=&quot;color: #569cd6;&quot;&gt;*&lt;/span&gt;&lt;span style=&quot;color: #d4d4d4;&quot;&gt; &lt;/span&gt;&lt;span style=&quot;color: #9cdcfe;&quot;&gt;l2&lt;/span&gt;&lt;span style=&quot;color: #d4d4d4;&quot;&gt;) {&lt;/span&gt;&lt;/div&gt;&lt;div&gt;&lt;span style=&quot;color: #d4d4d4;&quot;&gt;&amp;nbsp; &amp;nbsp; &amp;nbsp; &amp;nbsp; &lt;/span&gt;&lt;span style=&quot;color: #c586c0;&quot;&gt;if&lt;/span&gt;&lt;span style=&quot;color: #d4d4d4;&quot;&gt;(l1 == &lt;/span&gt;&lt;span style=&quot;color: #569cd6;&quot;&gt;NULL&lt;/span&gt;&lt;span style=&quot;color: #d4d4d4;&quot;&gt;) &lt;/span&gt;&lt;span style=&quot;color: #c586c0;&quot;&gt;return&lt;/span&gt;&lt;span style=&quot;color: #d4d4d4;&quot;&gt; l2;&lt;/span&gt;&lt;/div&gt;&lt;div&gt;&lt;span style=&quot;color: #d4d4d4;&quot;&gt;&amp;nbsp; &amp;nbsp; &amp;nbsp; &amp;nbsp; &lt;/span&gt;&lt;span style=&quot;color: #c586c0;&quot;&gt;else&lt;/span&gt;&lt;span style=&quot;color: #d4d4d4;&quot;&gt; &lt;/span&gt;&lt;span style=&quot;color: #c586c0;&quot;&gt;if&lt;/span&gt;&lt;span style=&quot;color: #d4d4d4;&quot;&gt; (l2 == &lt;/span&gt;&lt;span style=&quot;color: #569cd6;&quot;&gt;NULL&lt;/span&gt;&lt;span style=&quot;color: #d4d4d4;&quot;&gt;) &lt;/span&gt;&lt;span style=&quot;color: #c586c0;&quot;&gt;return&lt;/span&gt;&lt;span style=&quot;color: #d4d4d4;&quot;&gt; l1;&lt;/span&gt;&lt;/div&gt;&lt;div&gt;&lt;span style=&quot;color: #d4d4d4;&quot;&gt;&amp;nbsp; &amp;nbsp; &amp;nbsp; &amp;nbsp; &lt;/span&gt;&lt;span style=&quot;color: #c586c0;&quot;&gt;else&lt;/span&gt;&lt;span style=&quot;color: #d4d4d4;&quot;&gt; &lt;/span&gt;&lt;span style=&quot;color: #c586c0;&quot;&gt;if&lt;/span&gt;&lt;span style=&quot;color: #d4d4d4;&quot;&gt; (&lt;/span&gt;&lt;span style=&quot;color: #9cdcfe;&quot;&gt;l1&lt;/span&gt;&lt;span style=&quot;color: #d4d4d4;&quot;&gt;-&amp;gt;&lt;/span&gt;&lt;span style=&quot;color: #9cdcfe;&quot;&gt;val&lt;/span&gt;&lt;span style=&quot;color: #d4d4d4;&quot;&gt; &amp;lt; &lt;/span&gt;&lt;span style=&quot;color: #9cdcfe;&quot;&gt;l2&lt;/span&gt;&lt;span style=&quot;color: #d4d4d4;&quot;&gt;-&amp;gt;&lt;/span&gt;&lt;span style=&quot;color: #9cdcfe;&quot;&gt;val&lt;/span&gt;&lt;span style=&quot;color: #d4d4d4;&quot;&gt;) {&lt;/span&gt;&lt;/div&gt;&lt;div&gt;&lt;span style=&quot;color: #d4d4d4;&quot;&gt;&amp;nbsp; &amp;nbsp; &amp;nbsp; &amp;nbsp; &amp;nbsp; &amp;nbsp; &lt;/span&gt;&lt;span style=&quot;color: #9cdcfe;&quot;&gt;l1&lt;/span&gt;&lt;span style=&quot;color: #d4d4d4;&quot;&gt;-&amp;gt;&lt;/span&gt;&lt;span style=&quot;color: #9cdcfe;&quot;&gt;next&lt;/span&gt;&lt;span style=&quot;color: #d4d4d4;&quot;&gt; = &lt;/span&gt;&lt;span style=&quot;color: #dcdcaa;&quot;&gt;mergeTwoLists&lt;/span&gt;&lt;span style=&quot;color: #d4d4d4;&quot;&gt;(&lt;/span&gt;&lt;span style=&quot;color: #9cdcfe;&quot;&gt;l1&lt;/span&gt;&lt;span style=&quot;color: #d4d4d4;&quot;&gt;-&amp;gt;&lt;/span&gt;&lt;span style=&quot;color: #9cdcfe;&quot;&gt;next&lt;/span&gt;&lt;span style=&quot;color: #d4d4d4;&quot;&gt;, l2);&lt;/span&gt;&lt;/div&gt;&lt;div&gt;&lt;span style=&quot;color: #d4d4d4;&quot;&gt;&amp;nbsp; &amp;nbsp; &amp;nbsp; &amp;nbsp; &amp;nbsp; &amp;nbsp; &lt;/span&gt;&lt;span style=&quot;color: #c586c0;&quot;&gt;return&lt;/span&gt;&lt;span style=&quot;color: #d4d4d4;&quot;&gt; l1;&lt;/span&gt;&lt;/div&gt;&lt;div&gt;&lt;span style=&quot;color: #d4d4d4;&quot;&gt;&amp;nbsp; &amp;nbsp; &amp;nbsp; &amp;nbsp; } &lt;/span&gt;&lt;span style=&quot;color: #c586c0;&quot;&gt;else&lt;/span&gt;&lt;span style=&quot;color: #d4d4d4;&quot;&gt; {&lt;/span&gt;&lt;/div&gt;&lt;div&gt;&lt;span style=&quot;color: #d4d4d4;&quot;&gt;&amp;nbsp; &amp;nbsp; &amp;nbsp; &amp;nbsp; &amp;nbsp; &amp;nbsp; &lt;/span&gt;&lt;span style=&quot;color: #9cdcfe;&quot;&gt;l2&lt;/span&gt;&lt;span style=&quot;color: #d4d4d4;&quot;&gt;-&amp;gt;&lt;/span&gt;&lt;span style=&quot;color: #9cdcfe;&quot;&gt;next&lt;/span&gt;&lt;span style=&quot;color: #d4d4d4;&quot;&gt; = &lt;/span&gt;&lt;span style=&quot;color: #dcdcaa;&quot;&gt;mergeTwoLists&lt;/span&gt;&lt;span style=&quot;color: #d4d4d4;&quot;&gt;(l1, &lt;/span&gt;&lt;span style=&quot;color: #9cdcfe;&quot;&gt;l2&lt;/span&gt;&lt;span style=&quot;color: #d4d4d4;&quot;&gt;-&amp;gt;&lt;/span&gt;&lt;span style=&quot;color: #9cdcfe;&quot;&gt;next&lt;/span&gt;&lt;span style=&quot;color: #d4d4d4;&quot;&gt;);&lt;/span&gt;&lt;/div&gt;&lt;div&gt;&lt;span style=&quot;color: #d4d4d4;&quot;&gt;&amp;nbsp; &amp;nbsp; &amp;nbsp; &amp;nbsp; &amp;nbsp; &amp;nbsp; &lt;/span&gt;&lt;span style=&quot;color: #c586c0;&quot;&gt;return&lt;/span&gt;&lt;span style=&quot;color: #d4d4d4;&quot;&gt; l2;&lt;/span&gt;&lt;/div&gt;&lt;div&gt;&lt;span style=&quot;color: #d4d4d4;&quot;&gt;&amp;nbsp; &amp;nbsp; &amp;nbsp; &amp;nbsp; }&lt;/span&gt;&lt;/div&gt;&lt;div&gt;&lt;span style=&quot;color: #d4d4d4;&quot;&gt;&amp;nbsp; &amp;nbsp; }&lt;/span&gt;&lt;/div&gt;&lt;div&gt;&lt;span style=&quot;color: #d4d4d4;&quot;&gt;};&lt;/span&gt;&lt;/div&gt;&lt;/div&gt;" style="text;whiteSpace=wrap;html=1;" vertex="1" parent="1">
          <mxGeometry x="340" y="220" width="440" height="280" as="geometry" />
        </mxCell>
        <mxCell id="gYu7qt-4oHGNPAb3_qpJ-3" value="" style="shape=image;verticalLabelPosition=bottom;labelBackgroundColor=default;verticalAlign=top;aspect=fixed;imageAspect=0;image=data:image/png,iVBORw0KGgoAAAANSUhEUgAAAVkAAAAgCAYAAAC4qAtmAAAIpUlEQVR4Ae2cvW7cOBDH8zh8hwB5gABXps1VzgeQJwiMlAsD9nYpUhhGsIXPcEqn8l6R5rZwYcCAuugl8gLmgR9DDsmhRGlF7648xUKyluLH8D8/Dkdav/j2UkghhBQvv8p/F7/kf/jz+av8W33nPm/lt89RmcUv+c9fuEzZ+eJnI+++H6G6y+7zfeHybAvWAGtg/zXwYleTxJDdf3HsShvcLmtjThrYGWSPvt/JprmRCxcls7DmJCweC+uZNWA0sDPIqglQ0WzTNLLZrOQRw5ZTJ6wB1sAMNbBTyPJKx9EOa4A1MHcNMGRnuHLOXbQ8PgbzIWmAIcuQ5S0qa4A1UFEDDNmKxj2k1Zb7ytEha6COBhiyDFmOYlgDrIGKGmDIVjQuRwZ1IgO2K9v1kDTAkGXIchQzoQb0+98/F2zTCW1aFagnN9VfIUWQ/SG/tI/yHD7rHyyUQxHKM+7n6fpatu21vD3bg+hOOWxzJ1fvcF+O5Gpj3wff9TvhZ7+9f7eP8ss+2Gzn2rXzU3FhRJD1wnizfpTnJGQjELe/5ZudG8n3e/iKZ8bDYiux4Wt5dW+ApqCWfNbvp1uUPx7Lh/ZCXn3s79e2kP1weSHb+2P5YVsdv1vJu6aRNyf5Pusot+uHN7aO+j/O6dB9BGKaA/kxDvfBynXp8fRxaiFvmnr/S2UAZE/kp/tHubw8cc6kYXy/ka+GCPQJwvPyie4Q25AxPbuyBrgPl6+dFsptXuBUAyC7bbtTQVb/erELoELIPGRtNLVZyZX6FWRPPduOWYiM7j9u5LL9Iz+5xc2Uwz5f1PY++XgRZO3cVPqZ/wDIEs6hB4AnhSiTAAi2T/vwfwsyYkv6XDKu51SGIRvApiCKVeVzkFXX4T/SlcA6aHuUVst1PyqQEnvk44WQFaJeNLsDyBoYmf9bEOevhBRgFL2q+hxxvKV/dfknyC/h1VYLI8456XptJB7V7fLQKh89NDIfJXIAsoHV7dl7eWu34OE5lBNSR1xomx5HkXrbrLbsOgqE7fxSnuL+nS3TbX57LXFdsP2GdACd66Qhq/tIpg2i8kEfVV+j1EBBJBvaI7ofxpy043O38ThhvOoYjtnPDZTB9tLA07nY/qAhB1kMzXlAttvHte8qP7M+afwvDdbAj8E/MQPgO3zNsMP4eMwHqEMdMSsS22dys4ZX3ekgXBc+3wqy41Y5Dw4tujiP5Qzv8yjGYPm/YfuDjRfcY6GKvzdGKF/RsdHgHAyv/8mNeqjhPsTiAY4fHA18ADLg+MrJHTQFABYD0zg+dna4t22hnK0boGeB4wGSqQPnJ5N7YO4iaMKYFMTx/XBdmLZ020SdBpgIlLoM+tvVA+2jY7YsarPjft022WfVRmacUX0l8FSaKSm3X5AdmS5A9qF83AEQBTQxS+K/hfVhDNUiH4egDfUJ/Dc+ds0P+HpXzj2uD/4eDVkwFB60qhQ6UwwcHQU0soEVRBslWtUCQ9Fg1P1Bk6b6oidqvdG5ZDqBT9cFxql/DEGIwerPaVjEcDCQBcAaCAVldBQbfu/bEDYCTsEWlHFCzcAHtxHAT43B1K3rS6AW1Rfci4Dq2kfXsmWN3VpYZKh7YQFL+gP12/nJfm/KlYKxy4lBa6V1QflxxxLdm2cw58nDbbOt9v5dkEOOfDyAo52XwH81UCMGOH8O33rq9fGAHTCv9NEsCP07kqE2HwXZHGCHNk6tcibkjwwcGMoIBIf/7jyCLES4+RRAidjoCRk6Vrp8OWRhqxockfPT8EJ91zDCW2EDIRcN2++D+iE9kYAqgiIADAFPAf7h/sKkIvR1A/guaDsgonpou8XjShcHc58FbXYcdpeA7Ji2Z+cI6iDKlsBT1VtSbj8gmwMssjvMec+R8vEyyPpUofNvlc5L3nqyPEh83/Y1YEd3/0vmJ9VHd52q/GDITgVYE/ES22ptlH7IxhF0Onj/NoRZ7cIV0JTfDrJmDDhNAOfEuEgxlkPWb/PpSS2FLIaoA6zq2xCwZbfRELGqcS3lqapTQQmlEbog6/ozpC/FZenINoj2yTnC9rbzFYN2VjnZ6QCb8/EyyEYMIOemwMcHQFb3F3bUZHtYC+XngyA7DWB7njz2QtamAZJtTDjoMKdjYJrmZK2gktUxrCsF+FTfl0DW5mddrpVuuw+yNNxwXRmAkGIzZR0UXRlz/fbyWD7Y6Pd0fSGvLpfSRak6pYAjaiLnXAzOYYsDaQPdn1wkjO1jzkkob/l2AdaXdvTsK1zgO6WLeNr/7uBiKsBCP+mtdy9khe1HLjq1eivycSKXi+3tz00aJJdzhYAK3gLx9+Vs7K97yGq4USE6PHCyYTn8Igwfe4wRdEit+lkRwdsF0SpGrEbawLgP7qkhCIWqg9hu2ElwW5IhY3Fw8QYNxtr7fRlkVZ0aELBltUcMuT7ICvvwCUey+jyIymx/onbSKDoHWegngpaFKu6rsNd8X8JccfiGBLwpce1BbSNpf78v49rRoPbX07H6OYtt68cbpRu0XaK+2jnOwhF+YOAeihK7HchZdpXB7ahyIyIuyme07iHIyDIg/0Se1HuPj/dDVs0N+HHIJLODhe/KfByCQ/DxNNgSUvTtRmCOutiV8XcP2UwB0ohcts5L+NXsGsLcz6mBiANTtfY90HzbM7tWGM1uPX7bzpiIauu2Z6uPkndk7QM/huzMHHcyUWcgS2zd2RG30JCOdrbdyne3b7atddt4XhqwqY2enQH1AK/UThzJTgaybuconZBq5ajtc/wjgOdii4rj1M7Y47Cj5hi2q5V++jmqTxXt+GT9UXbtjE7hlbXxCxtDdg5C4TEcWPpmzxdk1tOkemLIsqAmFdSTRSA8bzxvB6IBhuyBTBTDi6M/1sBhaoAhy5DliIg1wBqoqAGGbEXjcuRxmJEHzxvP25QaYMgyZDmKYQ2wBipqgCFb0bhTroZcF0dXrIHD1MD/gULLrAoSa04AAAAASUVORK5CYII=;" vertex="1" parent="1">
          <mxGeometry x="750" y="380" width="345" height="32" as="geometry" />
        </mxCell>
        <mxCell id="gYu7qt-4oHGNPAb3_qpJ-4" value="1&amp;nbsp; &amp;lt; 1不成立 走 else" style="text;html=1;align=center;verticalAlign=middle;resizable=0;points=[];autosize=1;strokeColor=none;fillColor=none;" vertex="1" parent="1">
          <mxGeometry x="745" y="318" width="130" height="30" as="geometry" />
        </mxCell>
        <mxCell id="gYu7qt-4oHGNPAb3_qpJ-5" value="l2-&amp;gt;next" style="text;html=1;align=center;verticalAlign=middle;resizable=0;points=[];autosize=1;strokeColor=none;fillColor=none;" vertex="1" parent="1">
          <mxGeometry x="755" y="418" width="70" height="30" as="geometry" />
        </mxCell>
        <mxCell id="gYu7qt-4oHGNPAb3_qpJ-6" value="" style="shape=image;verticalLabelPosition=bottom;labelBackgroundColor=default;verticalAlign=top;aspect=fixed;imageAspect=0;image=data:image/png,iVBORw0KGgoAAAANSUhEUgAAAecAAAEKCAYAAAAo150IAAAgAElEQVR4Ae1dO4sdx7bWz+nkOrg4OCAwBwwnMPIEOlihDBckW0b+A36IwwnGAmmSgwMFgxBjMxJScmBsDJICJRrwYASCjRPND1DqWKC61GNVrXp1V+/u3bu69xcMvWd3dT3W+tb6aq2qXX1BCCH++c9/ig+++kNcOfxVfNg0olF/18XFgz/Fle9/yPz/g/j48E9x5fBP8fEV/Ux3HVS3vOrn6VndJr/f6D4d/Cw+sH0y96/8qtq99NV10zf/OVeXGcPhH+Li33Nl8L2TF2QBWQADwAAwUAMGLvjkrMlWEq78i8jv7z+LS+aeJmVNfpZgDWnS86k6Pvzeb8OWpUlA0Ia9HxJsopzthyVzkHMNIEMf4OyAAWAAGOiHgYCceeTcryIIHvICBoABYAAYAAbGwcCFd+/eicuXLyfS2uM0AEVBjsAAMAAMAAPAQD8MgJxtCryf4AA0yAsYAAaAAWBgUxiwae1NNYB6AV5gABgABoABYKAfBkDOiJw7drz3AxQMEPICBoABYGA4BkDOIGeQMzAADAADwEBlGAA5V6YQzDiHzzghQ8gQGAAG5o4BkDPIGTNmYAAYAAaAgcowAHKuTCFzn+2h/4hYgAFgABgYjgGQM8gZM2ZgABgABoCByjAAcq5MIZhxDp9x7oIM939ZibMH1+BQYb/AQA0YuH0iVqdH4tqIfZk1Of/PvZ/E3u//Ff+4d2lGAL0k/vZ83T7Ls8LxEo/pyfcL8fT8sTg/PxB3RjS+dcdx7cGZWK1OxP6afZmn3XwlPvr9v+Kjf68xeZPn8KdeoFMkvyfi1vl7cUh/z55U72vmqd9t+cWx9HtNHJ2uxOqX/RHwoeuqkpz/98l/xd6TrzoHORyELQb/f/8S//j9v2Lv+b/E/zAjLu1b3vGuAULmXD783pCzfMkIvSyE9S/f7hpObSv1EhFKMoz/Xh9/0omLYhnc+E68Pr8vHt3okg31aX1y/vL4vjh/9Z34cqhM5Qx9dSaOrsd9LsXmPO2mxVYzMpVvydMv7/lBfGzIWb54J35BTizLFIY+e/ZeHLaQs7p//l7cultWX6qNtu+Wrd/t+8W8fm+Lm6/YBO38L3Ez6TP2xclqeEZLTb5Pj4Q9vrMNFFPfKwXh8H61GLwi55/EP577s/XhfVsDhE0j9Nu8fhUffy//5Ju9diGC1qT4dEPOrikm5+HOdhxybp+dD8dm6Ti3YTctbWbImV5Le0XZzK/6FbdrR9CNyDrvu29UZH3r+FQcVEDO8IulOPbL5fQbfv/R8V/i8PyN+CyBu6FZLak7WrICOedSZYac/3bvP14UP9wBrkfO2uD0O7CjV3kmQDLcQH3gbqc+kLMn95aoWZYbjs1SnbcQ5cbspqXNLvyrV9kOn8yGTlrrRqZFjaO+sTvkvES/mNZvwiZa9Tw8erbkTO9z9pxAF9g3fL/Tyfz7P2qtWa43y7/cOpSqx5RRZSlFTSlrfo8+e2V+En/7P0mm8qqVFPUtqsuVJZlSGpH6K6/+Orl2PO7+f8T/BjLWkfMf4tLBOpGzJLn74tFdmcaVqeLgM0vRqAiPpZP9NLIjS6/csy+8VPOdZ3E6WrVp29H1uLR1Ll3s2iNZyqus3+8XGVBQ/u5BkBoP2umMnD8Rj16xsWTS0p4sgrXptCx0nV5GQPWFtXX+WHj3m0ZQuiu36STCZoChpshuQiwyrEZY1/YX21aB3QR92fs9xnxkv5Gth30N69CT2SsHf4hLMnqW76LfRORMcm512oTR9a/j6NdM4sjfyavn85hOs2UK9BthpUa/6OtiHHLWke+Qted5kzMZQ5OfTStCJNDZ8r4ympbnGwUuDShZF5GpZyAGgHxyoInYAVH/z51GGDnrMVD9knyiZwavORMZSnIiwpFrrfozEZ0mGU5g+jm63zRUz2NxToRsSIWIJKpDESRf1w3rbET0jNWXLkt1E0Gr8tS+LdsIL00dtatJ3dvU1UnODi+qzRQ5q3a4zNwz1F95zT6v+p8eJ39efpZG22b0Hja5XKLPObsJsZkey2C7UcTsbESOTROxsxP1v2e/YZ+77WbqNedm2+Rs9RzKyulR+RZPru6ew1v++WX5RX/speTcltaWMuyaRDs5++3r73XkfXK7EbPeENbmJEKSTAukDIS6He04uAOMHYgUNndwqfr5fUPEkbGknpN1r7tbmxMiJ2T+OU0QPqnoMpaYlTPgdRgC9IjTr9evj8Dpl3G6Sn/v1cHJUZEtm4B4/ZBtBfWNRs5xlOvGoMfo9dk6UX/8vlzpHl3b15tlexybYfv+/zl8aWzaSCrqJ/Ul93wjuPNO241pI9rwyepkE2PXb3afJrCldsMmt64+Gkv5tdN5z4Wcf/cnRrFMfFl79z3dyHJz9ou+7jv1K+3B7C84OL7tZQu5jNZbd9akzH+FsVhylsLSBE1pmhQgS0GoHZ+MkLkD5J+dcpjz8YBMQEiQM08fsc88Inf1Uz19rpqUdATMyZR/1mVcqpmlWG3EyOtJt69IiP/kKIhg9X1WN0uhhxFyRKZEFoyQ7zy7L16/MuQov1d95ePi/Qz6PwY5K4P10+fxOLoiZ9nHQP7RxGKKyFn2w+CXcBgRoCwzxG58/Dtc6zpVBklF1i6K1mX8Nn3bJhvX1/HshmOnZUMY4XIG5Cxl6ctul/1iT/0WELOULyJnZRC+wTpD94XuABkCseX5kFjl/8//Jf7GfubVRs46TZ2q33dOylCSDjAeQ9v42u9xUuLExT/rMilicXXzetL9i8mXp7RLSIrXm+mTjZC/EE8lGUtSfvaFTh0rUuPjaqlvLHIm58yIOpRje+TM+yg/63GHkXSX0afxGNYt/0/hMlXOEHWEz5bnO+3Gx7/DFqszrCNh69PYjS+TzshqJuTsZE5Evat+sYd+C4lZyrZr+YnLP/V58WvO0aCTBm+cT5RiC9NzUomyrP5plf0NttnUwmfqelZKs/6wfvM/3xCm+sU23XBHP9pnTqqcuPjnxJps1D6vxwe2lneGTHk9ihBzG7rCOnP1ye/vi0fHB2ZjmBzHgXh0fN9uFNOTBH9ioDZn2SxAsEbN+5j4XE6umT4HGYQIn0Gbqq9h9Dzabm1GhEG7Yb/SJBjimuktsrPYbrSN+ISgJhZ2EqD75/Zh6P/lxjNra5PYDRtXM0LkrPTXvm8glD//f/zJV8rPyTEP0y9tPLS6stF6bX6xUL89iLlp3Jox112fz/WTM6XV7NUZswKp/Z6ltBjJpspwsFhhGSO3O6XJQUROphEEOkvO0rF17jp1joWci+ybczxkIGwcamwEZB9Att8dTtUvpwmjPa2t20ntLg43hLn/E31TJBSnrb1nDEH7KfTUpqoM0dlNbe4Zith5xErf2XY4MUv5JfsRb3azz9sUvCP9qI3z/MQjlK3ta6ofYV+VvtvXnVOY32Pri+n7/MAfH6vaJjI4HGg3mqAZ5snuCNde/dL2NWF4NuyVoboy/aV6+16NY7YnhNFJYfTzqSY8oIIdVhEeWHL9SJytVtlDZHybjW0rrT/4xS65td4fol+LAaYrNQFb//Q+2deqyblVmH2NC+WzGxdGl7MhGUs6JPueUePo/aJ+LOHaET1DdsxRVqhvlfIccPQq9Fuzfof/xlnqF+RcoeHO3vAy5KwjRhflzn6cW8bOertBa3ZqO9I3ipxHOX95R2S2ZVsr91XtWa3yesyGstVJnT+l6jMQlK3LSFNp3lHOlJ6NkU6jD5pdA//TyHuYnI3jHuHc5WH9mIOsZtpHmdEa8a1U0r6r/CkVADhTgIJAp1tCgKwha2Bg0Ri48PbtW7G3t7foQYLsQfbAADAADAADc8IAImfMPjExAwaAAWAAGKgMAyDnyhQyp5kd+opIBBgABoCBzWAA5AxyxowZGAAGgAFgoDIMgJwrUwhmoZuZhUKukCswAAzMCQMgZ5AzZszAADAADAADlWEA5DyxQtQBEjiEYBJHAFkjUppTpIS+Aq8cAyDnAnK+9fUL8XL/hXj4aQt4Lv4onu/rcrLsy29+FJ+HdSePXnQHFKzkubsj/pCdK3o3P49znN7uyA5Y3B1dt/iy0G/h/0mCiRB7IOcC4HWT87fi4f4L8fzq1bwSzdF9J7fzRtH1SsCGjv+rlsB/EB8f/imuHP4qPmRy/eCrP8SVg5/FB00jPvz+T3Hl+x8COV0XFw/+FJe+um6+D/9PyOzKr1E7IbjV/wVyTz7H+j/G/c+v/paesI3czhh9lXW0YVHdUy9wkC9xWImzB9cCfSb0Vek4x5IX6oHOx8YAyHkMp/HpT+Ll/k/iVktd6sD7DlLNO0QT0ZweiaNfao6uNTlfOviDEW0jtkrO9H7VDtmPbVhhfYsh5/CtO5VMfkJ543+Q5dwxAHJuIdRi5XaRc6EDy5Gz/J6ikxKSL+73GGP36tDk/PFXP4tLJlKWfdk2OVPGoS1rsWmZLYacPX1LAjATR+yjQPYgwgYmCEP8yoV3796Jy5cvA1gJYCmHateRfxP3LnKwXRX3vmFrzLZcYn06jDYSbUkl5siZK3gW5HxFp68/vqLltXVyNgRCExwuz/bPerlC7jXwsPD1t569ePeC5Q1aElH7EDIY0c/7mRf1Hdu3oOqR7Xp7G9gzNEH07nfsk8jgsBSLWnY5cqb16zNxdJ3bDT63Yw7ygXw0BkDOLQ7KgkQ5vJCcmRGRY8zUVUK6sq2ScuuSs3qOrROqzWf8xe+0np0qUxwVmchZkrJcEzZry9snZ/2O1FXxOEi3mpwVsRIhG/KjzYExsab3H4Rka7HVEPEzoqXvQnJW5E7lzOSQ+qUwKCeGdD9dL2+37XMJFtXz2awQyLlNvrhHNoZrDgtIa2cI1RPYQHIuJdQSh1hal9f/kjGOUoaRcyM3df0hLv69grT22uvOhpyJAJWMNCnqzX8usubyThFx6jt6JiZ4Q6wROTvilc96dSpyDiaQHZNGaj91LcFi0+jd8PiFAQgmhSF8NwwXIOcSUhpIzmWObrOR8zSGwslZk7LcgT33yDm/C59F1kHKOvwpnUekAeaKyZmRdaTPyckZxBzpINAr7g8jp12XH8i5xKAGknNTwZrz5GltJVdJ1r+Ki+ynVJyonfH5pN6oqJv/tCph5KU/pVL90CnWddecu8iZUtxuPHF/l0XOIOY2XeNejH/IpL9MQM5TkHN2Xc5XWEmEPZ+0th6b/F2z/GkV/c65+fvP4tLhn4I2i0mjVYTt/TZ6xN85S/0q+a+zMSm9fswdjd7w5aeb+X37ORXZEvaCezqS9g+yUe1UETmXEjOtOa/ENnfJW/mTrHH1NjNCPr4PrkkeIOesseZ3Y0eRVMHaXpZUsxuxGJmoyFsf+OA2csn/WZnsOKYEXxgBN4LI2JKz7KeKeuVhJfTnH1pCkbO7nygX1aHLuINM3LhLJj1po+wmZ/lcakd2hJFEOR5xe3VIEpaYYmQ8CTkXYFHJMrVpcBWTsC3beyOe011aL7gPuSwfAyDnqUitMHqG0Y1sdJD79iIlInuQ8/Z0MJV/Qzuj6xjkPCWoVARcW7Q7MhlOKc/OtnQKtv9a85JlMt3Y9D4H4B0T7ukwtyRZg5w7Hfy4wFKpPkQSo88yU0YJWY+L3ZSMk99RxLw6EfsT21eyP+jDJPYG2Y9rbyBnGC4MFxgABoABYKAyDICcK1MIZp/jzj4hT8gTGAAG5ogBHN8JcsaMGRgABoABYKAyDICcK1PIHGd46DMiE2AAGAAGxsUA0togZ8yYgQFgABgABirDAMi5MoVg9jnu7BPyhDyBAWBgjhgAOYOcB8yY5e+I8TvWaQwfsp5GziAyyLkODICcB5FzcMQnO25xWwCnYyD50ZBRX9Rxo/Ldv+bPeyViKTDN2cnhb7aDo0ZxrnKpPLvL6eMw8dvhCM85GwYWB0y8u/FYrIecfvB9q35AziMBpO2tQ1OCuJOc1Ru2XohW8i6QSfascPusPp0rSc6B01yFBG/r2K6D0C/kCN+Oxc4PVy/x0O+s9nQcvjEr/D8aX8GLPswz3XKfQmbp91h7MojGOEW/cm20YFH1U99f4dCUVrKoV785vc/7e5DzSE6kFnLuMqBR+ll0XnXGIapneSpcl6vxiE39ess/xCXvjVnbJWf9hq34JRNdeh/3/nLIWR8xeiKOHpwJkPO8yWxcjG9fFiBnkHPv2XJZ9JYh54S8y+qb3ljo3dMXv+evuNwyOTeN2L68FkLOMoNjsjZYMpjevpZGpmOPB+ScIAsuZEoT0/psLh3cFpGqe7S+q67h+3+1s6M2Xu6H97sNx2/jN3HvIn8mrJ+tN++HZflzqc96rbk70l0OOX8g09cHP4sPFFa2T86NWhbov/bsMMrxEOqf35M4YVg0SyIOpwxHdr+Fft5/Zab+ztqOqke3y+3LPUPlgz0da+2NkBjuxmInOdNSTKVLMNxn4XPKb83vO5BzCzkrx2GdTiOalvVa5/gCEHS+6zl2ZppomVNs6WNkiMzxRfeaRmT7WdxGt6PT7fYr1032TK72xQqJd1wb56nTlYn7PXaXU+T8QSPXhGltuQJyjpYGmGxa9KhxJQnVEbKP8VIsEnmm2o3raJqgPCN5S8jKTqhfurycBPiEzv5vGWeM+24sgpxTusR3MZamkwnIOWfkGZJTziwxg8+SntkZbZ1M0F76ucCZBc+0AibTb3om3V4PwBWtN8v6uh1i05gd35VuxHHk3IhGbur6/gfRNLWQc/91Z03ORIBG52zymMZGCoup7whD+p4lXYXdoLwh53yZgjr62EQBFjvJuVd7JAtcye/g2h8LOL4zZ3Rsdh+l8fqQs6zfEDTVw4laO0yWHmTpb16uGNybJucCR6f72kXOdROzHINHzoqUfxUfVkPOfFNdmeFrrOUzMuVYDMjWs6ECYjW2lcd3QR1em13j78JiI0DOXTLE/WIf3AubebmCnHOC7CC5UFHpqCMh+CCSLn4u18/w+45+D29vjDXngcQ8eVpb61GS9aWvfhYfH9IGMRZFMz34pG6ibm/Hd4iL8p9SKdwNWXPma8isz7LecmyAnEP7x/8hpvH/UEwgrR04KCdQsxmFrzlnyw5wbCaK8FN8A4C9cXIu3S2ci1YGEnOLDpzuBsiP1R+RrNoYJn9aReTciA+//1NcsZvFZLuasC99dd3tgh/xd85yjGo9fY2NSYp8W8iZ9lR0Y9HYRiKD1DThPU3k/daPK4ycaUPY6ZG4xjAyNuZQ3zi2uwQ5gpxbDS3YLWpSzjYdZ4iV0tXu6tb1tEP009aR80vWk08/xsBL91P2J2yrPDpqMZKWdefsRiwiE3Jyq3izVq9NYa16a+l7j+cicm4MGTNybtRmsT/FlUP35xGzbE+Rs7tPZV05HTnT9+4q0+jhWHKTnrBc/H8nOcu2SrEYluOT2ODew081PkO7sf9HYxyHnDux2JKBiQ/P0XJf9dhQGNtprBOUgUxyGAA5R44BYMmBhX+vHB+iCBcdT4QjyH179qnJvv9aP7cbfN6e/uYme5DzRE51bsDo7q9JT1NEDDlunKixaWmLjp2ibOB94zjv9j1bxMGEfg7kPKGwlwc6mepDJDGNXiHraeQcO35Kj9e27LIteaDdGCObkAnIGeSMmTAwAAwAA8BAZRgAOVemkE3MwFDnNDNdyBlyBgaAgbEwAHIGOWPGDAwAA8AAMFAZBkDOlSlkrFkX6sEMHhgABoCB+WIA5AxyxowZGAAGgAFgoDIMgJwrUwhmuvOd6UJ30B0wAAyMhYELb9++FXt7e5g1gaSBAWAAGAAGgIFKMIDIuRJFjDXbmrYe/PZ2WnnvUlSiD7mJj9HcJRlgrLtsXyDnQeQcnGnNzxceVO/6RqneN81fUp/qR/AKy5fJFxh09SFzQtjdN+Lw/L39u3W3q56a798WN1+5sRy+OhUfpeQ5wXcfHf9lZXp4/pe4eaNmuXX17Ym4xTBy+OxJOlpT57CPc8gNHSSyqvTd4btMQhh72l5AziM51lFeKDFCXzrJ2byUIP/SgTRQQgPqPuNZO+A8OZODfiM+G2HcYf/G/l+R4xbJ2Y7nxqk4yJFzMDHKkl5F8v7s2XvR1s9Rjixd8xWbVuYVyQt9KvNPS5ATyHkkw6uFnLtAOUo/W95K5drPk7NyyOdvxE0VDa5JztLhTvjijTHJWRHOun3PkXP0vZb/wfHtdFSawb2cdE15TGUXOTeNfhvUkD4peeNM7F44cHa8O2RY25hBzhkn1VdRo5DeSH1p6/sY/eyOmqVBZ8hZRncmjalTtWuSczPte6HHImdKr669lhqRcN55KuLrG+1P/IKHbnJuxNDoGeScx0ibr8C97coN5NxBiJQmpnc159LBbaSn7pl3Qet6wnc1uxfSp+93g8Rvw71PWhtYWD9/v3RYtqstTYrdkUyGnJm8h5Gz7qcmu3BdUrdNkwDrZBSxvRc81a77wNaVM+ufw8mZJhNhX7vkHdzfNDkr/ehoNc5MlMtVZ0ecXHMRfAk5N2rCsL7cQM4BhpgNWtvAd9VlFkDOLaBUxMw3ebWs12bJWW2+CsmYG0v8YnlNtG3P8OeDz6qPecLN9rNFDr4Ba8fdHflNQ86ybzqyWgnepxTxRwR7943wSMOQt/edkUv0bLG8pH4M2Y2xGamYnLX8U2Px9Rngx46LJhMnYt9+14gSucoyfALUmLVw7ztTZxE5G/lx/ZaNQY6tdDKZkwO+L5c1ZDWmrEDOzPF4gs2QnCLsxO7mLOmZndH9Im5N2LlnvH6G/c/0m57J9jOsJ/d/0XqzNNJh5Ezp39VqJfRfR+SkNv2sxMquLYbt653X7WSVL7M2OVOaeN015lAPReRMu8zDJQOaJJBMV53r9qQHR4zryDV8xjnxPuTcna1x9RIpr/BK0+oiQvJFuHK8xp9BzqHzo/9NlEzpbO/ah5xlfcFPlzjp6iiZp5ndZ16uGMibJufiKCbvkGksqSiM7vW5piJn+bxy/LTmqqK3kKx0H/lPv+TnFIGvTc4KT0SKfhTaZ4y2bCc554g5Nn5bJ2Heu6Yj5yK5mgxEKFdEzn11gPLtGF22fEDOnkNiyu4guRA0xRFpEEkXP5frZ/h9R7+Ht1eaJpyGnNNrzkaPjMjiCM2QmLfGvIHI2eqHyK4jA2DLMyzy79iYQgw2zVjEbCYTuWif9SGWq9a7P8HJYyF+PjFurDkj+uU2sCOfL7x7905cvnwZyo8Ubg4Y4WvOURnnSMpJL0hZmwj9+dWr4+hg4+TcCEWIOcdtZZR3yEQqwyJnIrv2aFQ6/4PjU3Er+m1wTM66P5uInB1O4jSxu0dyab0yYvTLjUTMlIa3ywPp/uXlGpOzIuBzfyMe9b2EnFVmpBNv6X7KdrAhLC8b0gOu9ckI5GzJJKWc4AQws+PappsNsXopb1XGbchSpO3t1H4hIiJO1tNnQ1i6n7JfYVvlk4iUPMx3LevO5IjDlKbdOa3Ixe3i5eVSac+s0yj9nTMdzOFFyGYcdI9Oq3r2RKXCbdSX7euwE7r6kw0Rbyw329dwLDSmTJo+J1c5eSha26X2EnKlSQ7p9uD4iTppzeqXnmV91GXDZQepp9JMTR6vIOe8bHI4wPfblxnS2q3kvH0F1WokZdEz5Fer/ubSL0WsA3e5g5xhh3PBO+8nyBnkvGY63aSVO9KfHGz4DCfZCwNqB/7ANXpp32PVA1+xpq8A7nvh3uAM5AyDG2BwcuPQCM4TOhigg6U6Pj35cz/hGjZOHYHLn5C171FYx4nimWG6gfzS8gM5gxhADMAAMAAMAAOVYQDkXJlCMItMzyIhF8gFGAAGdgkDIGeQM2bMwAAwAAwAA5VhAORcmUJ2aWaIsSISAgaAAWAgjQGQM8gZM2ZgABgABoCByjAAcq5MIZhFpmeRkAvkAgwAA7uEAZAzyBkzZmBgJzCAw0hmRu6lpwAu1H5xfOcsFKvPK6bjEO1RmLPo+8wcAmQ6GlHfefZYnJ8/Fk/vVoCB5EEkwbGo9AYzYGAgBujce/Nq0rXPRd/tg45AzjMzxK4XBdDZ1vYc45mNz6Wtul+c4cpW4Py3KudPxKNXmgglGUZ/z74Y6GyZfG98J16f3xePbrDvMmMfSs5fHt8X56++E19m6i/Wf8tZ8FRH5ytB6Zz1BRB451iHyps9r7IVSXIOCDx7mJF+Q1rRee+sXdLrnK9Ia89MoVlyNi8TuHV8Kg4ybwDqBGpVaSSQc6e+ktjVRP36+JPxCJm304Oc1+u/I/2xyLnkHPg8YZno+tWpuPnsvThci5zHPe1sqFzzY3WyH9oGPZ8jZ6UTdvSvPsEtfXpb2z1qZ4lXkDN3PDP4nCZnSWTmjT5mhr9e5Eyz2bSRTGsAIOf15A1y9uRWEDXL8jnCkt/Tm7+U7a1FznS+d+Ebvzbsh3Jj9eQ2Uh9y5By11aqn3YyeQc4jgTAC24bqTZMzm/EOImddj5rVptJMKjp/Iz6jFJ955V84EVDGz14HSM5Nykj1P4zsTdSvygV123V2Wd+6jnEtXWiSe3r3C/HUpIr9z07mKsJj6eQwalXpXZlaVlEnpZ0PxB3er7sHcTr6/LHgdVGamNLW6bXcNDmrPibT20F5r4+yr0EKuyBy9uURPE9jjtpxa9PhOGm88uqP2emGynB5KZtUa83dk80SwhpEznLchoBWLGLUfkNH5xL/ZB8K9xHe9YTV2QR7xSbZjfcMranrcl7dzD5lfaENj+XPxiFn8w75SG7cX63EWOewjzX2ofWAnMlZzOSqDCzxDl0LhBHIWdalU0kB4O17eJ1T0ESc/79ptEPhBO09Y/rL7+uxDIuc9QTDbEhZ8Wvpizo0aRE5EWFIcrBk2zRCExEnWk0YnCTo2fNzKmfqJrI0ROWIJ1MHX3+NnqHJQkC2hGtJ/vx5+r7Rbam2E3Xq8TGCVWXY/7Yeap9ds2VZmy3Pq7aTfZZtZMYZ1FdKDpOQs+qbjgJX3joskeh7G6XHdvv6SIAAABt4SURBVNNhR6puv4wmY2eb5CNKxkplh15L5a/9TX4S1VYP2TrIOQD/UOXheebMCmQ7hJwJxCtLVh1EpaKOlbAzfUXOf4mbfDMQRdPMOYSz8JQz0OM4FTdfvRfp3efDyHk4rnwC5YTsPqdJJiQVTc5EzFrfXhkVNfv3XRuNibhjQvTKWOxkSIu34ZGmHIOuW9UXkWFQn/dsB3azZbXczmlyYvvu1+fJKCpj9BP1169DYd4jQv8+4SSFUbpHV4VZLzI1dVFEbO2K2UzUb/kMLR+R/Rly9ibdLpqW7af7l7ARNdn9S9w8fiMOzwNbNX1J15WWC4193Wsbqdo6jZ9p2/TVRd62rqS8NzO2TbeJyHlmyhxCzn3ApI0hFTkHBp8gZ5d2ey/s58ipaceST1UnHM+kuionZ0qpeldGGmnSYw5DkRhP2WrystG3ue/VT2n0iOACMiWZMaKUpPf61X2dMlff64lBG9lbImX1dOKptawh6Ow4TFaCyTFuz+iI6kiULSKHLPkxHdGSTIRjv0zcx/B+S+TcRc5BKppsKzkZbklVV0XOBcQsZVqqx275h/qo93+QMzmvmVynIGcdYdOsnoF3zcg5NhgXFeTHM4yc4ywBpbYT40rqvpycXTqayYrVWUrOnHwtMct6WkkubDNDzip9LSNkef9A3JF1SjJj6e42crb96dOX4rLpSLo9ck6PO0rdz2jN2c8gORuR9lNMqDRZpgiaZ7kMJovrYhiObTiUf/r/VlItJGbZtrLnzJrzun2r/TmQ8wgAnFLJeTIzxjFozZnSbZm1n05ypg1f8ToXl5Eag41ANAnHa86pVF/aAfC6x/tcQs5m/dmuJaf710XOaVLkdZm+JCLDeLw5ctbfPz3+Trw20fadZ/fFo+MDYaNilfrmEXxiTb2YcPtNKpIyUP2J0/nxmLWskmTeugvYybiEsHzcumdz/fG+byWiFNZ9cm6yezNYPwLbV2OiX3FwP5eyY35ffjb9tUta4f3C/7Pk3CoPNibVjs425NaUaSLelhb3dFHY920/A3Keg6KUMbEUsU1vEQka47bfs7JeqiwEffC/NJi29bmUUavvqB+6PuXEgr5o8qV+plLjibVn42wofZdPgQfjGEWnZeQsDVgRC6VWzdVGmnS/lViDFC/V5T1j+kP3zDWO2nPkTP1kZGfImPe1Md+5KN5fC/d3nNPO88eO4M1GLfe8K2PbUQTvvldlvbE6fYaydeNNySzoq8GBct4pXIf4sphl+MzaHivTibeu3zkXkLNsI9lfY3vUT8/eM/ZGKXo73sRubbuOXpppcjqzu9L5Grz6THVREEDZLH5NBAaKyBPfk9xpIpHSMZWZ4RXkPEOlbXtGh/aZIxqMH38S4GSryccS2uB2xuzzzOoqjJ6d7Gc2vg1hQ0ekLaS4oXZ9PZT8xjm1jj9/HeL4zkkANn+g+AaD8Ywnjww5J1LM47W5g/pT0RVFbjs4/r5+jiLnra7zmgi7ow8qdb4KNq/2HW+F5UHOFSoFTnjHnGcqzRse/gGcDj6OVDnxDkcP23Mp562v4XYtszUmYk4dmLQAe0FaewFKhEPZMTIHZgcTNWwGNlM7BkDOcHRwdMAAMAAMAAOVYQDkXJlCap/NoX+IOIABYAAY2DwGQM4gZ8yYgQFgABgABirDAMi5MoVgRrr5GSlkDBkDA8BA7RgAOYOcMWMGBoABYAAYqAwDIOfKFFL7bA79Q8QBDAADwMDmMQByBjljxgwMAAPAADBQGQZAzpUpBDNSOSOlwwXMmbs4OAKOE3YKDOwYBkDOO6Xwb8XD/Rfi4aebT8mMNcnoelUcvZEm98aasfqBeuaDGegKuloCBkDOIOeqZ+RZcjZvojl5cCTOFniu7hKcC8YAkgQG1sfAhbdv34q9vb2qHTQUvL6CfdktJXKWaW/zthy8cQi2u1MT7LF8AerxfWN98kDkPAfDvvijeL7/m7h3sRG3vn4hXu7rv+dXr3qOmd+TZWz6Wj3vnqPn1fWbH8XnSgaauP06QzJ3/39+9Tfbj5dff2v6cVXc++aFkHV4fbFt9DeAbORMeusiZ3rXK9atPazU7pjQv/62ApktS2YgZ3LyNV8ZuVry/PQn8dIQtjRKRYacBM0zlqAZAfvfEaDLyVmROhGy144mZ3nf9rNJ1Uttdl9Bzt0yglOGjICB5WEA5FwzKVPfDAE6wpNAdFFso+7ryJobqSJsItExydmr00XLTWPIOXu/vwENJmeSIa6InIEBYGBGGAA5z0FZXnSaIDhz30tXm9S3SzkHhB6NOxXhsgmAKp8qw/sDcuaTI3zm2MBn4AEY6IMBkHNEUhUCqIic48g5BkJItnysKeINy6fK8DpAzrHMuXzwGfIBBoCBMgyAnJdAzpRO5mvOyXGlyJOAEt7TRCyjcbdGPUNypg1hp0fiWlImNH5c4TSBAWCgHgyAnOfgsLsiZzUGQ66UzjZXR6wGdGEKnBN6cO/hp7pOV8dE5EyEujInhNmr+flUc00cnYb3cqeJ0WljZ+Loej2GBycIXQADwEAbBkDOcyBn9HHQRha1qWwFcm5zBLgHogAG6sIAyBnEN4j4qjdo8zvoFX7nvGw9w46h34VhAOS8MIVWT5YTyltHzCtx9uAaHNeEcgcG64rAoI956uPCu3fvxOXLl+G84LyAAWAAGAAGgIFKMAByrkQRmN3Oc3YLvUFvwAAwsAkMIK0NcsZMGRgABoABYKAyDICcK1PIJmZgqBMze2AAGAAG5oUBkDPIGTNmYAAYAAaAgcowAHKuTCGY3c5rdgt9QV/AADCwCQyAnEHOmDEDA8AAMAAMVIYBkHNlCtnEDAx1YmYPDAADwMC8MABybiNndsbzye1NKTY4E5ufdd3Wt43eY2dX44URiCg2irVN2RXqBRnPGwMg5wLHc+3BmVit6KULm1P451d/Ey8rIGc1XpAySLnANkAAm/MHkO1uyxbkXOSA5JuNNv/ihFrIWR57iSMvd9sxgBigf2BguxgAOYOcowgR5Lxdo4RThPyBAWAAx3dOQM4qImbvWX5+9WpEiNIYWyPn4F3LL/dfCPeeZQ3kW1+/EPJ7+gvvlxo8yBmOoRQrKAesAAObwQDIuYic9QapdVK9mph/ErdsO9+Kh/svRIqg8+Ssn2kjW0XMfL3akHnbM2mjkin8ldjcBrjNADk9FrQFuQADwMA8MYC0tiXNbgXqjWF9iCtNqjkSzn3fNLqel19/m4y4G0XEv4l7F/0xKMLOPRONW5PyFBvf4Cx8PUEekAcwAAyEGAA5RySVAsm6kbMhVZZqppRzald2npxln4K6OOkmUt62HV6uaKyInEMjwf8pm8B3wAUwsEkMgJyLCWud3drpyDmn0HZy5oYQRNKZyDnXTtf3WHPmssbnLrzgPjACDIyPAZDzRsm5EXqTFl9zziuxnJxNvTYqNgeZ8DXnonGl+wJyTssFDghyAQaAgakwAHIuIrFhv3MOd1HLlLPdEJZNSbM15FSZiIiDk8ZMKr3/hrBGgJzhgKZyQGgHWAMG0hgAOU9AznMDH8g5bSxz0yP6Cz0CA/PFAMi5gJynOr6zFkPatfHWInf0Y76OFLqD7sbGAMi5jZztiy/W2Qw2b7DK6Hm1WokVzthO/3ytDTe4B5kBA8DAQAyAnAcKcOzZEuqb96QG+oP+gAFgYAwMgJxBzpjhAgPAADAADFSGARzfWZlCxphxoQ7M3IEBYAAYmDcGQM4gZ8yYgQFgABgABirDANLalSkEs915z3ahP+gPGAAGxsAAyBnkjBkzMAAMAAPAQGUYADlXppAxZlyoAzN3YCDGgPr9/i/7IKG5+Dz5U9Yd/iknyHkWQH0ibp2/F4f09+wJHMws9BYTxC6R5p1nj8X5+WPx9G4FclBnFoTnFei3zanf82/7N/133zj7Pn8vbtUgs63bmNHPjk6oQM5bB2A/x/XZs/fiMEnOAYGfvxGfzWxsPnHp8cBJleDjE/HolSZCSYbR37MvxpvM3fhOvD6/Lx7d6O7XUHL+8vi+OH/1nfhyKI6vH4mzVft72FVU3RalmTo2H8m14D4g8LQf6NaLb2dbLK/G0+Wn9Ctszx5cGw/DQ/E00fMg54kEPZZBpMn5trj56r04OL5tAazKvToVH/UZX1VppBYn1WdMO1dWE/Xr408sFsbCnqqnBzkPbXcsclan3bURb9OIPDmb6O30SBzJU/M66hk65qbJ4P7GqTg4/0vctJMiXY7bfFHbNdl4ETkb3axOxP6O2TLIeWYKT5NzYvargM+NOVEmGjul+WowhIyTivpcMq5dKgNy9kiqIGqW5XPkLL+nqK2E5L2218JqOe7XmoA3Fdl4ITk3zW5GzyDntQxoe85+s+Ssx6XP1Q7X5xrRkDGpWbxbAw9Tzx8d/+Wtn/HZvep/uKam6jWRf1C3XWeX6+19MwGDdKtJ7undL8RTkyr2PzsMqAiPpZPDqFWld2VqWUWdlHY+EHd4/+4exOno88eC10VpYkpbp9dy0+Ss+phMbwflvT7KvgYp7ILI2ZdH8DyNOWrHrU2H46Txyqs/ZqcbKsPlpYhSrTV3TzZz5MzJdhnk3G7jynalnRmb1PYXT/LJjsk+uQ+ge/w77Tu0jYf+geqQV+4rItln1p61v2pftuB1zeUzyJmcxUyupeSsyg0gM+WswnU6a7BunUgbWv5/StNxo/OeMWTM72vjKY8gUsZGBms3+8gNP+ovMelI6l6TFpETEYYkB0u2TSM0EXGi1YTBSYKePT+ncqZuIktDVI54MnXw9dfoGZosBGRLY5Pkz5+n7xvdlmo7UaceHyNYVYb9b+uh9tk1W5a12fK8ajvZZ9lGZpxBfSWkK/FTUq4ucl4zrc3kk7JxS5zMd4S+JPy/MTbMybjIxmmyz/qUsuUu/ZCtn9xm2CuoM9dWLd+DnGemxBJyJgPjxiIBRyB2hNVBVCrqWIkVzViVMQWzaM/A0oSq+sOMXfZFj+NUrZWnN7ak65rOcHwC5YTsPqdJJiQVTc5EzNqBeGVU1Ozfd200JuKOCdErY3GcIS3ehkeacgy6blVfRIZBfd6zHc4wW1bL7ZwmJ7bvfn2ejKIyRj9Rf/06Sgl1XuSs95gcRps+dfrX2XfBGnlg4x6pGpl79quIOPAB1p79X5F02rjnO3y9hXauJxLdGZDwuTn/D3KOjL4dJNtWdhc554i5b79Ts2qdmgoM0zMwTag8TWU/B+RMEXU+VT0fcqaUqndlpJEmPYYzRWI8ZavJy0bf5r5XP6XRI4ILyJTwzYhSkt7rV/d1ylx9rycGbWRviZTV04mp1rKGoLPjMFkJJse4PUPQVEeibAnpynpLypUSfdxPpmvSR/bahfscMfdpQ5dN2XgZObslLWvfctkp+hWJ8QeR7Zu+er6jvf8l+hkm9/b2t1H3hbdv34q9vb3N7OzMArA+QWxD+Ou02UbOYxGzjrATUbUypm5yDiP2eJxud3l+PF1Oqh1DcZZgzbS2IT9OXO6zJhiXjk73qZScOflaYpY21EpyYZsZclbpaxkhy/sH4o6sU5IZS3e7cfE6g/r69KW4bDqSbo+ceR/lZ0PUIUEvas15PGLO2XgZOQc+IOnnC2y8Bzmr/lIGL9leiIf5/4/IeWaKzpHZOMTcsZOzk5xNujpKt/mGosZgZ9OahOM1Z+OIotm4X1dM/GPdN86+lZzN+rNdS0633UXOaVLkdWWIJ4ndgExtGf390+PvxGs7pvvi0fGBsFGxSn3zCD6xpl5MuP0mFUkZqP7E6fyczpNkPnC3Nm9LEUT2p1RkO4lJrdUB12nuc25SOhYxUz/TKeJOcm5MP6z9psdRZOOJtWoub/dZp+tza8o0Eadd9e65dN/mch/k3MtwtqRsRYqpVBJtxDLpIzpBjF87jMgDqowyss6HdmsHs+bE7FcZJu+D3YVJDiZVRyItZozXps76jGWwXsvIWcpPEQulVs2VR75d5NyYTVk8clafvSjQ9CdoJ47ac+RM/WRkZ8iY97Ux37m++Gvh/o5z2nn+2BE8RbBBP2V9th1F8OxZWdYbq7OzULZuvEFaXLUX9NVgIEuqdLCI3SyYyK7QmmxbGd6OLLdGhJeyGYV7mpxmfUB+h7Nn22QPHTbeTc5SN2THvk/SGTO6V2bjFFSQjceT9EY0XdkP0lGb76Lxz+gKcp6RspLGhv7PfEnGnwQ4HWvysYQGPa+v58Lo2cneTQ56fWfaWVoE10sGo+O05DfOZiMcyHlN4I6uNPRju0YD+Y8j/ww5J1LM47S3o3pT0dXQlHO77HR6dbNt7BYGTAq+IxOR2ti2BDkhcsakYf2IBLIbR3apNG94+AdkPVjWyol3OPq1nDqlVXfwiMm15FWKZSnX1miYfjq2zAkRyLkUKCg32Dlu1JChH+gHGAAGFoQBkPOClAnya087Qj6QDzAADMwFAyBnkDNm28AAMAAMAAOVYQDkXJlC5jKrQz8RgQADwAAwsDkMgJxBzpgxAwPAADAADFSGgQvv3r0Tly9fhmIqUwxmpJubkUK2kC0wAAzUjgGQM0gZEzNgABgABoCByjCAtHZlCql9Nof+IeIABoABYGDzGAA5g5wrnDHT4QLmrONNHBwBvVeo9807PJAKZDwXDICcd8pJfyse7r8QDz+dj4GqIxGT5BwQOE5nAtnulC3Px4bnQoa19RPkvFMGvRRy1mfu8hcMZN88tFP6hcOuzcGiP8DkuhgAOe+U814KOScMfoIXG6xrZHguoa+dsjuMHzbQHwMg5zk4iYs/iuf7v4l7Fxtx6+sX4uW+/nt+9aqXyuT3ZBmbvlbPu+foeXX95kfxuZKBJm6/zpDM3f+fX/3N9uPl19+aflwV9755IWQdXl9sG/0Bmk9rB3XlyJleSpBMjQd1zAEL6KOHeTh9YHipGAA5z8HZMXK15PnpT+KlIWwJTkWGnATNM5agGQH735Fxl5OzInUiZK8dTc7yvu1nk6qX2uy+lpJzNq0NcgaZzcHG0UfgNMAAyDkQSJWzMEOAjvAkqbkotlH3dWTN+68Im0hUjZM9E407RaJhef2/i5RlP1y0TJ/z97vJmPdffi4h56W+zzWUBf7vjx/IDDKbKwZAzhFJVQhmLzpN9M/c99LVJvXtE2VItryucnL2Jwm8DhM5exMCTt68bNnnLnIGMZfJca4OCv2GfncVAyDnxZBzHDnHoF4WOYOY4bhjjEMmkMkyMIDjO5dAzia1/JKvOSfHlYpsCcjhPZPC5hvLOtePwzpk3ZuJnIuJmdacT4/EtaRMaPy4wqkDA8BAPRgAOc/BYXeltdUYDDFSOttco81fYQqcE3pw7+Gnuk5XRyr1zcE8EjkToa7MCWH2eiL21VjDA0hYuYiEqeyZOLrO+4rPcMTAADBQLwaQ1p4DOaOPg3ZyqnXrFcgZjrheRwzdQDchBkDOIL5BxBcCqrr/rx+JMxl543fOy9Yz7Bj6XRgGQM4LU2h15LhF+eqIeSX4MZ+QDyIUYAAYmAMGQM5bJI85AAR9hCMDBoABYGB6DICcQc5IhwEDwAAwAAxUhgGQc2UKwQx1+hkqZA6ZAwPAQG0YADmDnDFjBgaAAWAAGKgMAyDnyhRS2+wN/UFEAQwAA8DA9BgAOYOcMWMGBoABYAAYqAwDIOfKFIIZ6vQzVMgcMgcGgIHaMIDjO9vImR0jeXIb4K0NvOgPMAkMAANLxQDIuY2czT39kgU61xnGsFRjwLiAbWAAGKgFA0hrF5Bz08iXJ+Bs5lpAi37AgQIDwMDSMQByBjljI0gRBuAMl+4MMT5gvCYMgJyLHDMi55pAi77AiQIDwMDSMQByLiLna+LoFC9QWLoxYHxw+MAAMFALBkDOReSsAas3hq0Edm7DgGsxYPQDWAQGlokBkHMROSNyhgNYpgOAXqFXYKBODICci8gZa84w4DoNGHqBXoCBZWIA5Axyxm7tIgws0wHAsUOvwECdGAA5FzlmRM4w4DoNGHqBXoCBZWIA5AxyRuRchIFlOgA4dugVGKgTAyDnAseM4zvrBC+cCvQCDAADS8XAhbdv34q9vT1ETymSti++wNGdSzUAjAvOHRgABmrEACLnFCnjO0zWgAFgABgABraIAZDzFoVf42wNfUIUAQwAA8DA9jEAcgY5Y3YMDAADwAAwUBkGQM6VKQQz1u3PWKED6AAYAAa2jQGQM8gZM2ZgABgABoCByjAAcq5MIdueraF9RAzAADAADGwfAyBnkDNmzMAAMAAMAAOVYQDkXJlCMGPd/owVOoAOgAFgYNsYqJKc939ZidVK/p2IfZAnZrTAADAADAADO4aBKslZz1j0O5RXv+wDlDsGym3PWNE+oiZgABjYNgYuvHv3Tly+fLlOApTHZ54eiWsgpzr1A71AL8AAMAAMbAQDIGcAayPA2vasE+0j8gEGgIE5Y6DitHYjGkTOIE5MnoABYAAY2EEM1E3O14/E2QpvhJrz7A99R/QCDAADwEB/DNRNzmq2ZDaGYec2Zs87OHuGU+vv1CAzyGwJGKibnBE5g5BByMAAMAAM7CAG6iZnrDnDKHfQKJcw68cYEL0CA8MwAHKG88cEABgABoABYKAyDICcK1MIZpvDZpuQH+QHDAADS8AAyBnkjBkzMAAMAAPAQGUYqJiccXznEmZ/GAOiGGAAGAAG+mOgSnK2L77A0Z2YzVY2m4WT6e9kIDPIDBjoj4G6j++EYwY5AwPAADAADOwgBkDOO6h0zGL7z2IhM8gMGAAGpsRAlWntKQWAtmBwwAAwAAwAA7VhAOSMyBkpM2AAGAAGgIHKMAByrkwhtc3e0B9EFMAAMAAMTI8BkDPIGTNmYAAYAAaAgcowAHKuTCGYoU4/Q4XMIXNgABioDQMgZ5AzZszAADAADAADlWGAkTO9N3klVjj8A0CtDKi1zWrRH0RawAAwsEkMMHImQe+Lk9VKnD24BoICQQEDwAAwAAwAA1vAQIKcG3HtwZlY/bIPhWxBIZuciaFumoDiCiwAA8BA3RgAOYOAMQkDBoABYAAYqAwDyeM72yNnWps+E0fX6555YGYI/QADwAAwAAzMEQNJcm5un4jV6kTsJ2cSIOc5Khp9hoMCBoABYGA+GEimtbUC9cYw7NyejzJheNAVMAAMAAPLwECanFsj52UMHACGHoEBYAAYAAZqxUCSnNvXnKHMWpWJfgGbwAAwAAwsAwNrkDOtOa/Eye1lCAFghh6BAWAAGAAGasLAGuRsfge9WuG30MkNcwB4TQBHX4BHYAAYmCMG1iLn5vqROAM543eBmJwAA8AAMAAMbAQDCXLuPr5z/5eVWK3wO+c5zsbQZ0QRwAAwAAzUjwFGzm4tOXt0J0XM2d9A1z9ggBI6AgaAAWAAGKgdA4ycoazalYX+AaPAADAADOwGBv4fj087DgpeCLsAAAAASUVORK5CYII=;" vertex="1" parent="1">
          <mxGeometry x="850" y="412" width="487" height="266" as="geometry" />
        </mxCell>
        <mxCell id="gYu7qt-4oHGNPAb3_qpJ-7" value="1，3" style="text;html=1;align=center;verticalAlign=middle;resizable=0;points=[];autosize=1;strokeColor=none;fillColor=none;" vertex="1" parent="1">
          <mxGeometry x="980" y="350" width="50" height="30" as="geometry" />
        </mxCell>
        <mxCell id="gYu7qt-4oHGNPAb3_qpJ-8" value="list1 =1 2 4&amp;nbsp;&lt;div&gt;list2 - 1 3 4&lt;/div&gt;" style="text;html=1;align=center;verticalAlign=middle;resizable=0;points=[];autosize=1;strokeColor=none;fillColor=none;" vertex="1" parent="1">
          <mxGeometry x="910" y="250" width="90" height="40" as="geometry" />
        </mxCell>
        <mxCell id="gYu7qt-4oHGNPAb3_qpJ-9" value="" style="shape=image;verticalLabelPosition=bottom;labelBackgroundColor=default;verticalAlign=top;aspect=fixed;imageAspect=0;image=data:image/png,iVBORw0KGgoAAAANSUhEUgAAAakAAAAqCAYAAAAJf6SZAAAgAElEQVR4Ae2d+VdUWZbv+8+JiZgHJgnmSaZgcEIQZ0EQARHBCZVZcEQUUTFxAEQTFFFBZVDBiUBFzTLT7KrqVfU6u15nVdfUtaq6663PW/cSAQECCSpKZt4f7gq4ceIMe3/P/p5h73P+RSaTMfrINWjcDBi1RkzjHgM6pQqVa9of/FuJSqlFr5mYl+N/jQGDSoXcJR+Fwm2kfLUWN7l83HejdXRJ/8Pv5MjcdORUt3D97lUa9qQSO+H3Co0etckTnWWSx2xBo9Mikwn5GFEb3SdPZ/FEa9CicnOR5YRyJq2r0g2lzoDJqEM9k/aq1Cj0FnRmD3RGAwqlckx3QnlyOTKNCY3JY6yeZncxrcrogcagR6VSIlOoUWjNaCdrs8UDndmCWq1ALp9leya2WS7HTWfEaDSgU6tQTvx+2v9VKNRGNOZJ9CLUW9SNBrnQZrUBt2l0ozOZUGvV42U1bdkyUbZagwmTXo1SIf/h3yqUyHUO3ZiMqNzc3vmNXGtCPU43HmgNBtQmd9R6B35c83lHP4JeLbiplChc6i/IOLGqg+sPOmnKXccq9QRcuKSdFIeTfL9wUwlHm76k+fCmd9ox0zykdB/YfybRy89Rpv/yc2i0p/9GCo9e4lpbA9V5SVKnk8D/08GApz/GvGNc7u3n6tGNbIqyYP4I+tWt3kF+Uye9rcfYESdDq5IM7s/BVs7HNv4sSEom8yI4agfFh5q53FRJapgMtVLqdPMRkFKdZoNLC55haWy93ENXUzZbEj1YYJjN76dJaw0noaCKM9duc/v8fg4f3E6anzfWj0CAko6nkbsk33cGkD8TkhJAEUp4bCZbd2RKJCV1hHc6wo/TcFrwtC5n854itq3W4m3+uMbPEhTN8twyKiv3U1lZIJGU1G8+S7/5GZHUx+3AP06jJslA0puEAQkDPy4MSCQljY4+y+hIMhQ/LkMh6UvS1+fCgERSEklJJCVhQMKAhIF5iwGJpCRwzltwfq6Rm1SuNGuQMDB/MCCRlERSEklJGJAwIGFg3mJAIikJnPMWnNJodv6MZiVdSLr4XBiQSEoiKYmkJAxMiQGVVo9HcDS2hX4YdLM7teNzGTWp3DkgVLM3niFhRARbxWBx15OC5lre70FSSuRy4SgX16N3nMcHzYFwJAMypQGZa3BI+c8NnpVubuhNBsxmPUadHKVibsr5YP0p3fCMXMrWCw94dKWI2DAfBxaVKFQG1GZP9Bbn445Gq/0IR5nNU1n8aOyQHLlcjc5oxmy2YLFYsJhNGPVa3D6kDYm5bDp9iVsN5aQaNOIxbh+MrxnW5z1IKhi16SJZvf9Opf17jghPn51tVXslYzpDoX8q5UrlzE+DF5WyjJqb9Tx9WENbhZ5w6/yspywyCVt1G48e3aV5izchHgpHH4/EPaqOtL7vOTjosAEDQ2zasxOL1Ac+sx00ozNu4OCVbrruDzAwMMBAbzuXj+0gUSZ7f6JSRZOUeYzWnjt0n8nDpNd8sna+B0lpUajC8bYtJyAhiaXHbrOz9y27ayqmrLRSZyKk6jbZzY/IrtxIVPw87ZQfrYMJh9LuZUlVJxt+Fu39XPoUjKaVzcV51LeU09o6xXMhl6rtC6fE5weReWAkSTuzqa9NozBhZmfc2dYmU3//El+/rufuUQMRfu8vP6OvDyvKd9HUkMqmEHe8PxaGA5JI3NdA080rXDsaSYyv0uX8Pj0qfQiesUkEJiRhO/WM3fe/Jre8CPepyjcGo05pIKOpnx2NzSxavhT9VGl/Iu+FA4Utu6+RcbrxE7ZXhULpQWCEjZjYODaVnuTczdvcOrOPlHdIygtr8EZK65u52NRMc7PwXKC2NJOMhRMxqcPkkcKazHN0DtziXNkKgn0Mc9OnJuj/PUhqfOX9d10g5/YUJOUbh8emY6QfbSbj8hsqXvyN0it7WLZqfB4zNhIqDbLEbHK2Z7EuKpgFExoz43zm/HeC8s6yofV37PqQ9s55Pd9TD/OmXsLp5CZilseTlpVMTs56SvYX0jt8gVfdeVQWryYnJ5mcjDhSFnnPTYeKWkpmbQUPewo5vUaGfgYn4Xv4W1mWmkz25mWsS3DDon9/PbiHBJHVXMfw090U2xYQ8JF0E7q+kAMtd7h75Si7ImRopznr0r2kh9y7b6YgqTA8bDtZfOgKGY1P2db/D47aX7E2Iw3Te9VVh1pjI21nGXmpfoT7vr/s5tpeKPTueJ/6NUUPXnxAez+sfeJp9m2dk5KUNTyJvIqLdHY0kJu7hczMTIpOnOdiaxONpWvFmdf4my/csS7MZP+NxzzpPsH2KP9PcpbjHJJUKJaUIyy5aGf7oUaSqu5T+OiPFH2I0VbpkCVWUHv5Sy5UF5MXG07QewH9wxT/w+CWSOqHZTQXOjATaltFy9MGhppjiQ0RZrRzUY5Lnu9BUh+zTnNCUl5RZFY2cPXWJRr3JxEmk017zcp0JOUWnE9McTdb27rYWHWA1Tf/yoHHH0hShkWkfnGHy83FHNyeQHSQZe71/B44mv8kFUta/h6Kcpah1ahEGS5I2cm+pjvca6/jYKQM3YTBic4jjEVbW7kz2EPLtpUkLpj72dQcktRKAlJqWVlVRYibCeWaTrb0fCBJyQRBxpKxp5rGznbaTh6kOCKYQLMMhevdR3ovNMEJBMbFY/KMwSdqmbg0GZSQREBMDN5WGQqXzWqFaQGGhYkI3zufgMgILJ5mUXFypQp9+FL84pLwC7NidB7kqVAis9rwiUlETO8Xgtoah1/COoISbpHb9QeKO8+ycY8z3+UExdow6PXj7gP6mEbrh/Nyw+ThRVhkIBEBHkTEhRCXEEpMmJWIMCvRCaHExwUTGaBEpx4xxhqTEevCYBISQkefuEgvfD3H35nkFehLRKQV/0BPDFZfYkfTBxDmZRi7QkKhQGa1Eh4TMprfuLwXmvE0jXQatU6Lf2QocfFjZdsivQjwciGKUQMyNUmptBo8QwOJi/DAoBvJe0xWwoxMi2+IP1ERjnap3FB6+hAdF0r8aDtCiI3yIcjigrdZkJSwNBcWPdbm+LgAwjwVLstojjbJFcgsXoRGBbuUPV4v5gVehMWEsjJjBZU36nn9rIK6LUtIddQ1LsZX3Osac8rQYfEa0e84WU+iR1lSKWWX7nD3UillyZPJefy76UhKv6IQW8kZVmYmozJ6Ymv9nooPIikZMrUOWVoZ5Re7uHPtDCeK1hLq7zmBqMxoPCLwil6Eb6g/xohEsf+K/TtuCdaQ4An7M17ovGxYXWxAUMJivLy80Aj4UulReNqwxi0nMDYOi4eHg7jVyJX+uEcl4h8/kt5gseIenURwUhrxl/+DiiffklN+kGhH3oFxS/EJUOHm6F9jOBwv14/xfrqZ1KT5R2SSXn2TB33NNBXKMGgn1skTvSmP0z2D3G8tJWN50AS5j6Q3e/sRGhWHLSqUUB/ZBzkHzSFJuTTOzYTso5DUWJ7Lcoo40/mIvpsXOJ1mYoHJxUsqNoegs99y/OW3pGx/ws4bv+GA/XuODv+FgwNPKagwYdCNXKooV+swrSlmWft/USOkEZ1B/psDnXdYty1VvCxPaXAn6vy/ss/+D8pby0lap0UpVyI3B6CpeE7hwH9xoOMqyUUnsO4aoMT+ew7b/8aJN//k5Ju/UjPs2Fwe/A+O9N0lNioC7ahhHWvTpKCRyVDrDBhMgrfO5I/guTPz+368ScrI5krPSe6c2EznUB1Dbxp52FbCnS/30vdVAy9fnqWnxkKkvxylWk34mmT2t5/mtb2eIXs9dvs5hjq3cHCbHwatczNdRnZNOV13Szh+Jofl5SU8tZ/Fbm/g9ZtqWgsWsVajRCZXIDdbMFWU0tZfx/ALIb8veP7iIl9/28zbN+d43JJM6hITghdc6KIYjndfxD54dqTs5+cYuLWVkwVaDBrZhIsZpyYpS0gQGRdPMNyVwdJI9wmDBOGSwDDKLxyl58ZmyrMXoLQG4F+wl/tDpxl6JtSxnmfD9Tzu3kdDhg5vg3xkYDQLkorfnc8XnXXYnzXw/PV5fvGymsvZekLdXTEgR642YsjIp+nOcezPR8oWyn/y8Bht5SOOFklbM/jidj1Dzxp4+aaZt99c5NXzszwT9VNPf9cezu2QiTKSyRSotTbSC/bR++oLsS1CfsLzsC2dvRvHG3hV9hEOXG/n2v5tpM8Ap9ORlCumPxpJOesUu51ddTfp77lGy/GtmMddHppCYEYnuf2/oeLySZJvfU/Rw99zxP5njtl/S1HTefz1WhTCpZkyHSrdTmwFQxS9+vOIM5hgC17/GzkFOwnR6VBaItCkd7PzwZ+pfvYVG7Zk4aF2Q64MQOdXx8b7f6bS/gs2ZWRgSylg5Y3vOTL0e6q/+l9OfvM/HB/+k8O2fM+hh9+SX+4uDpZd5TMXf8+WpJTRWWQev8WDnkbO5zvx44pPGRqDmR2N/fR21JGzOmbSWfaK/Eoa+14xOCXZjc9zurb/aElKpdESvmoLpV8+ZrC/k5YSk8jYYmNFkvoNdW//LhJVavIq/C2eeK4vIbHjd1Q/7GGx2SRu3Bo3VrOy41eUtF5nscUTk3gbajUrjn3Nnu4HZOxOEw2rQFTWqgfkPfiW7VVlhAigzehh5+DfqOy4zOI1S3HT6h033gagszSRce0/Kby6n5R05+2ywq23JlRK5axcdVPLztDU5fDUEbx1xj29tJ/aLV5MN52ix74bIanrzy/yeugwVwq8ONFSye3BRga7cmk7beP43fO8vLWB+Agz4RvXc7jjCPda86iwGPCxGLBYkik6VklP9w5O7baOjqREkrI38tVXJ+luyaXcYsLHEs3B5iM8uLubqrxwcYZgysjn5uA5es7FkJkk5LeQJSk76H5zjudfLiUpxohaJUfwgjt+4zj23gLyAzwIEspelsLWU1U87HM1wk7AT01Scj9/vI9WMfRwB3tsC/B1GjrxU5gRplD9ZS1dX6awa0c40bv3iAR154Q3S6KEOhqIXr+C/R2nePmkUiQqYUYlmwVJCbM5g0mPJSaO5KpShl5W0/IOSZkxmNdzrv8LOs/FsEmUz0j5ri7rbho1BpOBoPgoCq6c4uXgXiqTgokW9WPAbHIlcSvpe3Zx7eZemqvCxbYI7REes1GNVj020BBwElt4lnM32mks3syScXJyynn852cjKZUWrX49G/Ma6XraS/eVg2ww6hwz9hGS2vb8n9S++p6Ky7WExMWgsxQSu/05e5++ZfeRfLQ6wUttL4vKXlLYYye3asfordZ+VffI7XlLflkZIcKgVG1FY24i/dp3FN1oZ8XGRPThiSxu/wtHfvEr0lJWYlWrUblpcTN5YvANJfCL31Ay8Iq0rVtZ4Lxp2eyORqcYt5oz1j/Hy/ZD38+WpMI2FnGovZe+liPs1cjQuq5QObDgpjex6sRdOu9c4lDqMnE5eGI9f5IkZVubQ2md08PE+XmOo/mJJAVMrjghVssncSNJZ7q4132Ja6d3khwfhEwkqX+j9vV3bK9aRaDVIE7tFfG5hF34FTX2QRItFgyybGzlg2y7fYOsveEiaY0Eqfnhk3+FjK5vKDx9VHSrFd6rfKOIPtRBbtsLdp1pJ+XG9xy994DF61JE4zOmqI+7J+XpH8rCmDji4iZ7YokKsWI1Ti6jsTo5vx8hqY6np3l+K5P4QDUFJ8vp6q3ibNUilqeEcuT2eV7fTichMpGs8hKu3d5Jw14vcZN05NpyI0vzcznXVUnn6WTiBdnIHDOpodPcP59NWbiQXo5CpmXNgWKu9ZRxoWQREVZfLBUVPH19lMYNASwSnQY0BEbHc+reeV7dXEf8QjOywEjWV+7mbk8ZLdu98NcoxDJkOiNLs9O41H2M/vNxmA2uS3dTk5TMzw/LkSrsw+XUxvsSNc4rzw2tahXHWo9w7Uwi1WVLqbxay4uBQooitSwYXfa0sjgti5v2evrrwokJVM+KpEZ1EbCQ2JKiKUjKHaMlnS/t57F3pbM5ZXqHj5ntSfmRXb6Xu08Oj9PXaH0mENGGqkba7tzgYlEmiyZ8N9lvPhpJLcwgs7SWC6KXmdMGNNN83NGvJ62LGYtnIms2H6H1wQNutpzn8MZgorwcJPX0D1R3dhAWGy6uishkawnO7Gbbw19TfKoQrV6LMfMam659Tf6JGkJ8x2aVKt/jrDzzS3a11bMyReg/wow7GPdNV0lv+4ptbQOsP9lLuf07CirH7IxTRvN9T8pZz9HP5K3sOHeDvjuXaa5cg49MNmHFYcSGCCSVUnOXWw9u0LAphWWT6OUnudxnDY8lacNmNm92fTJYkxBIsDBinUQQ4qVsu2s43N7DneY8irYsJtjP3UFSv+bEy1+zOdsdD+dyikheb11IqoJlh99SPPSGkrYLpB8ee7JaX1P8+DcUnT8juvWOGGcZhogylh9+Q8XQbykeeMmGTalYLCN7V2N1/LgkNZbv5HKY3fcOknpci711FRaj28gy3e19HN4ViV+kK0mtZ+fhA9wbOkp32xYOHx57zrYeovdxNT3n17Pa4doqzqQeH+VaZZL4zlkv7+hIVqyzsSLGG29vK+bCYh6+OsW1PUEkid5ZFkJta7g0eI7hq0nEhRsdxr+Koee13Lu0hWNHx8puaKngvkv9neXIZNOQ1Gi5x7iUFcim7DUUXarBfq+Y9lJfjHGZnL1VScu+BI7kJlN/t45nN9KINqlH9iRE/I3kf3nwHC+vryR+oWkOSEqNmzqEFek7ab1VSVPL7hG5V6VRnheOVlgydekLMyMpPSExSymu2UNnzwEuHd5CtaDL/Smk2RaIxsg1z5SyC7R0Xf/0JOUVRfTy9WRkZoqeZoK3mfisXUywr/u4do/VV7jMdCf76y5xp+cqNVuzSI0Ubih2kNTj33Gk9Sw6o3ODf+T9lgdjJCWS7L3/pLJrkBwXG5B+eIg9d/9I2e0LbMhx6XveSwmtuMXm3j9S3jNM8fkthEdo0Ghc0ggGfp57943KUPCaXp7Dlvp22juauXAwi8RIrynkLWOUpPquUpeeTJwLHkfz/IjvfrTLfQKppRcf48y1LjrPFrF7ncvNpCIZfRhJiYRVdZzkrAyMMpljeS4Y95haVhyxs2/gBTu6X7I+Y+5JKig+mVVpruTt+ncG65OiiZrUkWB8pxkB0MchKZGwqjZQmBVJuMP7SySpgYNcLl869TKR+wLM2YXcf3mRJ51ZHN8vuI5vorRsn7h8KOxziQ4Z4jLa5CQlll2ZRtk7RnsaktJ5YVqWR9fzk7SVxHCkJpPjrdXcbi6i/+oqonYWcrWnmIasaPYKcUy3x0h8rON9CpISdCYQUTgb8tIoFwcGuzlbv5+HfbsoyAjFyzIWSDkzkhLyNBISE0fBfoHsczl8WCCsSlpqNpArDB5cjEpAwUnqOtppKc0RY2vG2j8ZnmR8tJmUSx1+qEzxe4HUkko5WH2Z9hsNlO5MxaZRoxPzmT1J7e98SvY4khoZtK7ZmTU+tjMkhYhDN9nc8R2FlwfZfSH3x0tSegvqxWmkfdHJrc4rIkGtsC2YkqAEuav1ZjLO9HKn8zzF6xfNeSjQj4ykhE1OM9bgCPIO1nLpehdXq/eJ+zHjHAdmTFLZxFfa2d59c8Jy3+SdURtYQuKJF2xr6yKj4gAxJ/+dA733WfTOcp8emewEay9/R2F7NcmpU49KZtIZk/LKOVzvsvwxbjlkquC7ydsgk82GpBLZWlnKze5dE5b7Js97JiSlXuBLZHE5j+wnuHWrajQA98qFPHF/a9QRIzCWtANF3Ls/YblvWkM2DUnJzBjNa7n05BSth1Jpa8zi+MltlORuorO/mF3HK7l/ZwcHN4axOiWRqusneH4riyURahcvR2G5bzM3ntbRUxVGlO9cLPdNJltvwuPSuTZ8njd3hWXYsVmFMTiQ1edP8MJewuEVVsImjOYnx9dIEPSO0wfoeXLg3UFFWhX7r97gZs0u8jwnq8/4d5+cpASvWp9QQrNqOHHpOnfaainPS5pgWGdOUsbtN9nc+S3bJyz3vSM7uRKZJQKvkh6yb/aTW9vEoq3t5D/6LdsmWe6T692x1LxlX/8vSN+WiZduvNzG5a/WofRbSIwtlrjIQDwtgg2ZJv0Mv5t2T0pvwbB4Pcn1t3l4/xZXjm6adgY1Uh/hyKUIytsecffLMtKTp/fui42JIDLQjFIh2O73a8/sSUqhRK6zoDOPnN0XXnyZrd2/ZM+panQW4Z0FN5UShUyFQm1EY/ZE5x2EblMPeX1/osTpSGB2R2fQIxe9a2ZYebkamWYdpWdvcmfgFi1F2aRO1vAZk5QM37w6NvV9R2lbh4vjhMPRwWRCLZxHJtfhZvQg5tQgu+99RXaRcPxLMGpzE1kP/0pZx2WWrF2GsJk9oghhpJvP4jNvKe57TmZxoWMz9v0cJ95XuZP/bjYk5U5S3iYu9NXyoG2bi+OEY9PdpHnXu+8HZlLW8BAq2s4yfCeLlKV+4zbxLRY9FrMGrVKBQubJ0g0ZXH5Qy7N7BRQ4HSecG/7jHAOc+JmOpLToTdHU9TRws72Ch22bKCsIxxoRRMmNUzS3HOJZRyY5a/2QRUVjO1HF4PMzdE90nGg/zrPenVSYNCOBjOKMbz+P+oo4t8mAr/eIbETHBLPWxd1diVavw2Q2OBwnynj2sobW7V4kBBuwmAQyVCBTKJCrtZgc7XQ6OEQtieH47bPY29YTF+6yvGy1Yq4o5eHwaW5WRbEhxlG+ULbW6f2oQqPTYZ6Q5+oDe2m5WcyFwgRxX3EUL7Hb2ddwm+6OQ1RvmeTMN4UahdYiYlo4u8/vwAO29b5l26ED+Iln+bmjVitGPC/ddKgMHuIZfyb/cJa0/4HKp29Iy8vDR3AkMJlwc3OuVDj1ON2nHLnWHV1xC813++i/UsGuDaGTGMCZk5Qsvprk87+krG+IrQd2uJxHKJxL6CHKTqlQid68uowe8nq+p7BxN4uSZLgFLSHw7Hccev0rNq5cjZ9eg9IZW6QxIdvRTcGD31F4ppRFy5znHHqgneg4YQ3HXHmdfvsLXnWfYev6WNTOfCazcVO9Ex08DJjMZvHcvsVbq6htv8Ptc/tJs1jwspgxaJSoFEpUsetIrL/Ly+eDDDblsTw2aOSsP+G8P4sZs8mATi7sK7voQ+GL0ecQlx4+5eqxWFIiXb5zSbcsr4KGnmGGH3XRXbsWT73brJzFRrEokzF7krLa0FU8o+Lh/xVdNY+9+hu1X/8vJ7/6b47YhXfPWGWz4SFLxH/DFbIeCK6Yf+DI8N+p/eb/jblkD3xNxfkakahcKzTt3xoDsvwGLnY0cTx7NfFaDWoXwYz+dhYkpdDosWZUkHbv7y4u6CMu41WdPWTsLsTNWM7K67+l4uWfKDxdRFycBrlMIGs/1A4X9Jre+6zL2+ToLMKoQYNqxXnWffl/OPTqLyNure/pgj7arsnaOut3syMpgXiXZqzm3L2LLi7oI+7Ljzu3v+vd9wMkJRzZ4u2XxdXBszx+Pt4d2j54CnvfNnZGeeErU6BSe2Fbvp7WoYs8sztc0J0u1rdn590nk8nRGk0Ut51l4EU93XWJbIlVovD3x6fmEE+GL/Ly+moykyzIVCpUYaEEnjgkEtXzURf0EyNejiYN7s7OK5LUQV5+08gvhusZGhpzGbf3lXC+Ks6xfBdE4clyOh/VO1zQG3n7tok3L88i5D/qCm7xwpS+jZv9p3jqaKvo/m4XvBzzyfc14ql0GZUqFOi8PSm/Vs+AvYFhR137x8knjq1lJdx2yU/I88Xro1zJX8wGrWrEKcWJJZWWVTsP0Xz7Nh11k5z55rfGEWrxPYft31P9+h+iDah9/Veq7b/jYP8waekW3IW95OQy4hu+EfF/dOgP1Lz5J3Xf/A8nXv6Zo/bvKG2/xsoVMpGoZoZz4Wy6VA5ef8SXdUlsXKJDqx6/TzeSzyxISqXHLaGSxae/5cDrMRd08VxS+zfkCd59ot17TsXg36i9/4DlG1ehEk4XUfijtdaSdu/PVA59R8GhXCKcRwoJA3CNiaiTT9n95C/UPB+xK4ce/iv5FRNc0N1DMGU1cvfpc4aHH3H1UCqpYZMTwLRyMgdiTD3F1e57PBgY4PGgnWcvhhl+PsSTgX4GBu5yriCSxb5hLN5wkMaBYV69eikS1eNHD108h7vp7TxNkUk/fs/SJxxzaRv37R2cWroQ2xREqlpVwJZL93j1fIAnN46SanJ6Xc6+TbMnKbUBRUACAXHOANWJnwm4GwRvupFgOu/Yid87/o9bQkB4MArlZACboiHOaX5EKAEeJsfa8yRpxWDeRQTGLcLTU4VK5UjjDPK12TCplKP+/W6O4DtnIK/zMyDahpevr0uwXiI+gQvQO6ftLsG8QTE2PBZMWNYzBmMJWzIaSByUMH+CeRfGBGILN6NSyhkNwl2gYyR4NoS4yLGgV73FTHD0WDCtMxg0PtqHUGHJy2HcxHyi/QnzNYr7eM73Y58GfEMWc6CxBnvfdnKz4l2CeeNJTtkuxm111S1lTbSw0a1CqzcTFusaUDtSj3eDVQUdO9LbQrCF6sfN8oQ6CFizhgcTIwQrBxrxFPQouAwH+GOLCyXOJYjY9b2zvQkJQcSIXosuXk86I56B/mJA9Fg6h6xsfoQHGhEI0hksHBP3rhyF340GR08aRBxKQnwwcVFeeCodXo5OQhnXrrG8x8vHyAJ/P2JGg5Kd6SYEWbvkaV68lYIznfTdOktNmgy9a+CpxsMRtD553x7X78z+GMOWjAbJO/vWyOdy/KOiRDKTT+LqPIYb1z4+djZdeKBhmiOlHPYnZqKdGQvytQb5oBACy4V266wYAhPwHxfMK7RvCT7+/mhd7V50FMZRZynXYN4J9sEhT21gDD62MVlNGsyr0qLzj+XA1Uf0D/XSkr+G1U4746KXyWXiIh+VFqVnCJG2WGIn9Qa2Ee6jx6QRzuILIHxKr2Ebtls+Iz4AAANYSURBVJhQ/JRKl4lAEP5RJRzr6edR625Wh3lPff6ieS3rdl2h7/lDnnaeYJMQejGbdriknT1Jufz4BwUmpR014JKshI7kdDx4d29FZl6AOX0PvcMXGWiKI3XRGPlJsnMxQp+qT1mCCUwvZm9LOz2Xd5OXoB0h9U9V/s+tHJ0nhkXbOHd3kCf3GindsPiTnIs38761gODoPIqPttHTeYbsVeF4mKbuowtsW9ld203/ww5unFhEhF7lQnazw7NEUj+3zvBZ26vFMySW7Y3HeDZQRGXZ+pEDYIVDYPemU3DlML2Xt3Iw14uF8/jg0Jl37Nl1xnmXrzWckLwqGrt66di/lAjfj7OZP+/a+Vn7hIUFgQmkbNlD3vEO7t9u5NT+zcSGjwXJzwt5WZNZs+c019obqctZht5x1t/4ugmrYhHEJW9gd+15LrS2caU6h+xEGRrnatZ7yFoiqfcQ2njF/MgN0aduv9EdQ0oap5pKuTLuao1SLjflsz9Fg++MA5Ml2c81Fg0+wSTtO03DoZxJzseT5P/h8g8gauk2qr5opuliAw3FSZ/sCoxZ1T12Lcn79lO9J4NYR/D+u78XZlapbC0/Sf2UV37MHjMSSX1qIy2VJy2BShiQMCBhYMYYkEhKAsuMwfLuyGn2oyIpD0lmEgYkDMwGAxJJSSQlkZSEAQkDEgbmLQYkkpLAOW/BOZvRlpRWGp1LGPhpYkAiKYmkJJKSMCBhQMLAvMWARFISOOctOKWR8U9zZCzpVdLrbDAgkZREUhJJSRiQMCBhYN5iQCIpCZzzFpyzGW1JaaXRuYSBnyYGJJKSSEoiKQkDEgYkDMxbDEgk9dHBaUajXUV2URmllZVUCk9RPjlrbfMWBNII9Kc5ApX0Kun1p4CBeURS3vi4LyYpbDFLzTJUMz4Veb4BcTxJnfvyBn097TQfdl7j8W59lW5qIpLT2JCxmQ1JwYRb303zUwCb1AZJrxIGJAzMFgPziKSWkBR9gsZtJzkdLkM/xT0ls23g506/Ir+SxutTkJRwM2ZQJEsSk6hs7Kbv6Qt6mzaTnyIB+XPrTSpfwqCEgfmBAYmkPvpy33jFTk1SKtzi1rHs1C2e3LtPS/0F+gYeclciKWlZdI4xKRnf8X1Uksf8lsf/BxzQ+tpR5KXIAAAAAElFTkSuQmCC;" vertex="1" parent="1">
          <mxGeometry x="1337" y="500" width="425" height="42" as="geometry" />
        </mxCell>
        <mxCell id="gYu7qt-4oHGNPAb3_qpJ-10" value="2，3" style="text;html=1;align=center;verticalAlign=middle;resizable=0;points=[];autosize=1;strokeColor=none;fillColor=none;" vertex="1" parent="1">
          <mxGeometry x="1650" y="470" width="50" height="30" as="geometry" />
        </mxCell>
        <mxCell id="gYu7qt-4oHGNPAb3_qpJ-11" value="" style="shape=image;verticalLabelPosition=bottom;labelBackgroundColor=default;verticalAlign=top;aspect=fixed;imageAspect=0;image=data:image/png,iVBORw0KGgoAAAANSUhEUgAAAecAAAEKCAYAAAAo150IAAAgAElEQVR4Ae1dO4sdx7bWz+nkOrg4OCAwBwwnMPIEOlihDBckW0b+A36IwwnGAmmSgwMFgxBjMxJScmBsDJICJRrwYASCjRPND1DqWKC61GNVrXp1V+/u3bu69xcMvWd3dT3W+tb6aq2qXX1BCCH++c9/ig+++kNcOfxVfNg0olF/18XFgz/Fle9/yPz/g/j48E9x5fBP8fEV/Ux3HVS3vOrn6VndJr/f6D4d/Cw+sH0y96/8qtq99NV10zf/OVeXGcPhH+Li33Nl8L2TF2QBWQADwAAwUAMGLvjkrMlWEq78i8jv7z+LS+aeJmVNfpZgDWnS86k6Pvzeb8OWpUlA0Ia9HxJsopzthyVzkHMNIEMf4OyAAWAAGOiHgYCceeTcryIIHvICBoABYAAYAAbGwcCFd+/eicuXLyfS2uM0AEVBjsAAMAAMAAPAQD8MgJxtCryf4AA0yAsYAAaAAWBgUxiwae1NNYB6AV5gABgABoABYKAfBkDOiJw7drz3AxQMEPICBoABYGA4BkDOIGeQMzAADAADwEBlGAA5V6YQzDiHzzghQ8gQGAAG5o4BkDPIGTNmYAAYAAaAgcowAHKuTCFzn+2h/4hYgAFgABgYjgGQM8gZM2ZgABgABoCByjAAcq5MIZhxDp9x7oIM939ZibMH1+BQYb/AQA0YuH0iVqdH4tqIfZk1Of/PvZ/E3u//Ff+4d2lGAL0k/vZ83T7Ls8LxEo/pyfcL8fT8sTg/PxB3RjS+dcdx7cGZWK1OxP6afZmn3XwlPvr9v+Kjf68xeZPn8KdeoFMkvyfi1vl7cUh/z55U72vmqd9t+cWx9HtNHJ2uxOqX/RHwoeuqkpz/98l/xd6TrzoHORyELQb/f/8S//j9v2Lv+b/E/zAjLu1b3vGuAULmXD783pCzfMkIvSyE9S/f7hpObSv1EhFKMoz/Xh9/0omLYhnc+E68Pr8vHt3okg31aX1y/vL4vjh/9Z34cqhM5Qx9dSaOrsd9LsXmPO2mxVYzMpVvydMv7/lBfGzIWb54J35BTizLFIY+e/ZeHLaQs7p//l7cultWX6qNtu+Wrd/t+8W8fm+Lm6/YBO38L3Ez6TP2xclqeEZLTb5Pj4Q9vrMNFFPfKwXh8H61GLwi55/EP577s/XhfVsDhE0j9Nu8fhUffy//5Ju9diGC1qT4dEPOrikm5+HOdhxybp+dD8dm6Ti3YTctbWbImV5Le0XZzK/6FbdrR9CNyDrvu29UZH3r+FQcVEDO8IulOPbL5fQbfv/R8V/i8PyN+CyBu6FZLak7WrICOedSZYac/3bvP14UP9wBrkfO2uD0O7CjV3kmQDLcQH3gbqc+kLMn95aoWZYbjs1SnbcQ5cbspqXNLvyrV9kOn8yGTlrrRqZFjaO+sTvkvES/mNZvwiZa9Tw8erbkTO9z9pxAF9g3fL/Tyfz7P2qtWa43y7/cOpSqx5RRZSlFTSlrfo8+e2V+En/7P0mm8qqVFPUtqsuVJZlSGpH6K6/+Orl2PO7+f8T/BjLWkfMf4tLBOpGzJLn74tFdmcaVqeLgM0vRqAiPpZP9NLIjS6/csy+8VPOdZ3E6WrVp29H1uLR1Ll3s2iNZyqus3+8XGVBQ/u5BkBoP2umMnD8Rj16xsWTS0p4sgrXptCx0nV5GQPWFtXX+WHj3m0ZQuiu36STCZoChpshuQiwyrEZY1/YX21aB3QR92fs9xnxkv5Gth30N69CT2SsHf4hLMnqW76LfRORMcm512oTR9a/j6NdM4sjfyavn85hOs2UK9BthpUa/6OtiHHLWke+Qted5kzMZQ5OfTStCJNDZ8r4ympbnGwUuDShZF5GpZyAGgHxyoInYAVH/z51GGDnrMVD9knyiZwavORMZSnIiwpFrrfozEZ0mGU5g+jm63zRUz2NxToRsSIWIJKpDESRf1w3rbET0jNWXLkt1E0Gr8tS+LdsIL00dtatJ3dvU1UnODi+qzRQ5q3a4zNwz1F95zT6v+p8eJ39efpZG22b0Hja5XKLPObsJsZkey2C7UcTsbESOTROxsxP1v2e/YZ+77WbqNedm2+Rs9RzKyulR+RZPru6ew1v++WX5RX/speTcltaWMuyaRDs5++3r73XkfXK7EbPeENbmJEKSTAukDIS6He04uAOMHYgUNndwqfr5fUPEkbGknpN1r7tbmxMiJ2T+OU0QPqnoMpaYlTPgdRgC9IjTr9evj8Dpl3G6Sn/v1cHJUZEtm4B4/ZBtBfWNRs5xlOvGoMfo9dk6UX/8vlzpHl3b15tlexybYfv+/zl8aWzaSCrqJ/Ul93wjuPNO241pI9rwyepkE2PXb3afJrCldsMmt64+Gkv5tdN5z4Wcf/cnRrFMfFl79z3dyHJz9ou+7jv1K+3B7C84OL7tZQu5jNZbd9akzH+FsVhylsLSBE1pmhQgS0GoHZ+MkLkD5J+dcpjz8YBMQEiQM08fsc88Inf1Uz19rpqUdATMyZR/1mVcqpmlWG3EyOtJt69IiP/kKIhg9X1WN0uhhxFyRKZEFoyQ7zy7L16/MuQov1d95ePi/Qz6PwY5K4P10+fxOLoiZ9nHQP7RxGKKyFn2w+CXcBgRoCwzxG58/Dtc6zpVBklF1i6K1mX8Nn3bJhvX1/HshmOnZUMY4XIG5Cxl6ctul/1iT/0WELOULyJnZRC+wTpD94XuABkCseX5kFjl/8//Jf7GfubVRs46TZ2q33dOylCSDjAeQ9v42u9xUuLExT/rMilicXXzetL9i8mXp7RLSIrXm+mTjZC/EE8lGUtSfvaFTh0rUuPjaqlvLHIm58yIOpRje+TM+yg/63GHkXSX0afxGNYt/0/hMlXOEHWEz5bnO+3Gx7/DFqszrCNh69PYjS+TzshqJuTsZE5Evat+sYd+C4lZyrZr+YnLP/V58WvO0aCTBm+cT5RiC9NzUomyrP5plf0NttnUwmfqelZKs/6wfvM/3xCm+sU23XBHP9pnTqqcuPjnxJps1D6vxwe2lneGTHk9ihBzG7rCOnP1ye/vi0fHB2ZjmBzHgXh0fN9uFNOTBH9ioDZn2SxAsEbN+5j4XE6umT4HGYQIn0Gbqq9h9Dzabm1GhEG7Yb/SJBjimuktsrPYbrSN+ISgJhZ2EqD75/Zh6P/lxjNra5PYDRtXM0LkrPTXvm8glD//f/zJV8rPyTEP0y9tPLS6stF6bX6xUL89iLlp3Jox112fz/WTM6XV7NUZswKp/Z6ltBjJpspwsFhhGSO3O6XJQUROphEEOkvO0rF17jp1joWci+ybczxkIGwcamwEZB9Att8dTtUvpwmjPa2t20ntLg43hLn/E31TJBSnrb1nDEH7KfTUpqoM0dlNbe4Zith5xErf2XY4MUv5JfsRb3azz9sUvCP9qI3z/MQjlK3ta6ofYV+VvtvXnVOY32Pri+n7/MAfH6vaJjI4HGg3mqAZ5snuCNde/dL2NWF4NuyVoboy/aV6+16NY7YnhNFJYfTzqSY8oIIdVhEeWHL9SJytVtlDZHybjW0rrT/4xS65td4fol+LAaYrNQFb//Q+2deqyblVmH2NC+WzGxdGl7MhGUs6JPueUePo/aJ+LOHaET1DdsxRVqhvlfIccPQq9Fuzfof/xlnqF+RcoeHO3vAy5KwjRhflzn6cW8bOertBa3ZqO9I3ipxHOX95R2S2ZVsr91XtWa3yesyGstVJnT+l6jMQlK3LSFNp3lHOlJ6NkU6jD5pdA//TyHuYnI3jHuHc5WH9mIOsZtpHmdEa8a1U0r6r/CkVADhTgIJAp1tCgKwha2Bg0Ri48PbtW7G3t7foQYLsQfbAADAADAADc8IAImfMPjExAwaAAWAAGKgMAyDnyhQyp5kd+opIBBgABoCBzWAA5AxyxowZGAAGgAFgoDIMgJwrUwhmoZuZhUKukCswAAzMCQMgZ5AzZszAADAADAADlWEA5DyxQtQBEjiEYBJHAFkjUppTpIS+Aq8cAyDnAnK+9fUL8XL/hXj4aQt4Lv4onu/rcrLsy29+FJ+HdSePXnQHFKzkubsj/pCdK3o3P49znN7uyA5Y3B1dt/iy0G/h/0mCiRB7IOcC4HWT87fi4f4L8fzq1bwSzdF9J7fzRtH1SsCGjv+rlsB/EB8f/imuHP4qPmRy/eCrP8SVg5/FB00jPvz+T3Hl+x8COV0XFw/+FJe+um6+D/9PyOzKr1E7IbjV/wVyTz7H+j/G/c+v/paesI3czhh9lXW0YVHdUy9wkC9xWImzB9cCfSb0Vek4x5IX6oHOx8YAyHkMp/HpT+Ll/k/iVktd6sD7DlLNO0QT0ZweiaNfao6uNTlfOviDEW0jtkrO9H7VDtmPbVhhfYsh5/CtO5VMfkJ543+Q5dwxAHJuIdRi5XaRc6EDy5Gz/J6ikxKSL+73GGP36tDk/PFXP4tLJlKWfdk2OVPGoS1rsWmZLYacPX1LAjATR+yjQPYgwgYmCEP8yoV3796Jy5cvA1gJYCmHateRfxP3LnKwXRX3vmFrzLZcYn06jDYSbUkl5siZK3gW5HxFp68/vqLltXVyNgRCExwuz/bPerlC7jXwsPD1t569ePeC5Q1aElH7EDIY0c/7mRf1Hdu3oOqR7Xp7G9gzNEH07nfsk8jgsBSLWnY5cqb16zNxdJ3bDT63Yw7ygXw0BkDOLQ7KgkQ5vJCcmRGRY8zUVUK6sq2ScuuSs3qOrROqzWf8xe+0np0qUxwVmchZkrJcEzZry9snZ/2O1FXxOEi3mpwVsRIhG/KjzYExsab3H4Rka7HVEPEzoqXvQnJW5E7lzOSQ+qUwKCeGdD9dL2+37XMJFtXz2awQyLlNvrhHNoZrDgtIa2cI1RPYQHIuJdQSh1hal9f/kjGOUoaRcyM3df0hLv69grT22uvOhpyJAJWMNCnqzX8usubyThFx6jt6JiZ4Q6wROTvilc96dSpyDiaQHZNGaj91LcFi0+jd8PiFAQgmhSF8NwwXIOcSUhpIzmWObrOR8zSGwslZk7LcgT33yDm/C59F1kHKOvwpnUekAeaKyZmRdaTPyckZxBzpINAr7g8jp12XH8i5xKAGknNTwZrz5GltJVdJ1r+Ki+ynVJyonfH5pN6oqJv/tCph5KU/pVL90CnWddecu8iZUtxuPHF/l0XOIOY2XeNejH/IpL9MQM5TkHN2Xc5XWEmEPZ+0th6b/F2z/GkV/c65+fvP4tLhn4I2i0mjVYTt/TZ6xN85S/0q+a+zMSm9fswdjd7w5aeb+X37ORXZEvaCezqS9g+yUe1UETmXEjOtOa/ENnfJW/mTrHH1NjNCPr4PrkkeIOesseZ3Y0eRVMHaXpZUsxuxGJmoyFsf+OA2csn/WZnsOKYEXxgBN4LI2JKz7KeKeuVhJfTnH1pCkbO7nygX1aHLuINM3LhLJj1po+wmZ/lcakd2hJFEOR5xe3VIEpaYYmQ8CTkXYFHJMrVpcBWTsC3beyOe011aL7gPuSwfAyDnqUitMHqG0Y1sdJD79iIlInuQ8/Z0MJV/Qzuj6xjkPCWoVARcW7Q7MhlOKc/OtnQKtv9a85JlMt3Y9D4H4B0T7ukwtyRZg5w7Hfy4wFKpPkQSo88yU0YJWY+L3ZSMk99RxLw6EfsT21eyP+jDJPYG2Y9rbyBnGC4MFxgABoABYKAyDICcK1MIZp/jzj4hT8gTGAAG5ogBHN8JcsaMGRgABoABYKAyDICcK1PIHGd46DMiE2AAGAAGxsUA0togZ8yYgQFgABgABirDAMi5MoVg9jnu7BPyhDyBAWBgjhgAOYOcB8yY5e+I8TvWaQwfsp5GziAyyLkODICcB5FzcMQnO25xWwCnYyD50ZBRX9Rxo/Ldv+bPeyViKTDN2cnhb7aDo0ZxrnKpPLvL6eMw8dvhCM85GwYWB0y8u/FYrIecfvB9q35AziMBpO2tQ1OCuJOc1Ru2XohW8i6QSfascPusPp0rSc6B01yFBG/r2K6D0C/kCN+Oxc4PVy/x0O+s9nQcvjEr/D8aX8GLPswz3XKfQmbp91h7MojGOEW/cm20YFH1U99f4dCUVrKoV785vc/7e5DzSE6kFnLuMqBR+ll0XnXGIapneSpcl6vxiE39ess/xCXvjVnbJWf9hq34JRNdeh/3/nLIWR8xeiKOHpwJkPO8yWxcjG9fFiBnkHPv2XJZ9JYh54S8y+qb3ljo3dMXv+evuNwyOTeN2L68FkLOMoNjsjZYMpjevpZGpmOPB+ScIAsuZEoT0/psLh3cFpGqe7S+q67h+3+1s6M2Xu6H97sNx2/jN3HvIn8mrJ+tN++HZflzqc96rbk70l0OOX8g09cHP4sPFFa2T86NWhbov/bsMMrxEOqf35M4YVg0SyIOpwxHdr+Fft5/Zab+ztqOqke3y+3LPUPlgz0da+2NkBjuxmInOdNSTKVLMNxn4XPKb83vO5BzCzkrx2GdTiOalvVa5/gCEHS+6zl2ZppomVNs6WNkiMzxRfeaRmT7WdxGt6PT7fYr1032TK72xQqJd1wb56nTlYn7PXaXU+T8QSPXhGltuQJyjpYGmGxa9KhxJQnVEbKP8VIsEnmm2o3raJqgPCN5S8jKTqhfurycBPiEzv5vGWeM+24sgpxTusR3MZamkwnIOWfkGZJTziwxg8+SntkZbZ1M0F76ucCZBc+0AibTb3om3V4PwBWtN8v6uh1i05gd35VuxHHk3IhGbur6/gfRNLWQc/91Z03ORIBG52zymMZGCoup7whD+p4lXYXdoLwh53yZgjr62EQBFjvJuVd7JAtcye/g2h8LOL4zZ3Rsdh+l8fqQs6zfEDTVw4laO0yWHmTpb16uGNybJucCR6f72kXOdROzHINHzoqUfxUfVkPOfFNdmeFrrOUzMuVYDMjWs6ECYjW2lcd3QR1em13j78JiI0DOXTLE/WIf3AubebmCnHOC7CC5UFHpqCMh+CCSLn4u18/w+45+D29vjDXngcQ8eVpb61GS9aWvfhYfH9IGMRZFMz34pG6ibm/Hd4iL8p9SKdwNWXPma8isz7LecmyAnEP7x/8hpvH/UEwgrR04KCdQsxmFrzlnyw5wbCaK8FN8A4C9cXIu3S2ci1YGEnOLDpzuBsiP1R+RrNoYJn9aReTciA+//1NcsZvFZLuasC99dd3tgh/xd85yjGo9fY2NSYp8W8iZ9lR0Y9HYRiKD1DThPU3k/daPK4ycaUPY6ZG4xjAyNuZQ3zi2uwQ5gpxbDS3YLWpSzjYdZ4iV0tXu6tb1tEP009aR80vWk08/xsBL91P2J2yrPDpqMZKWdefsRiwiE3Jyq3izVq9NYa16a+l7j+cicm4MGTNybtRmsT/FlUP35xGzbE+Rs7tPZV05HTnT9+4q0+jhWHKTnrBc/H8nOcu2SrEYluOT2ODew081PkO7sf9HYxyHnDux2JKBiQ/P0XJf9dhQGNtprBOUgUxyGAA5R44BYMmBhX+vHB+iCBcdT4QjyH179qnJvv9aP7cbfN6e/uYme5DzRE51bsDo7q9JT1NEDDlunKixaWmLjp2ibOB94zjv9j1bxMGEfg7kPKGwlwc6mepDJDGNXiHraeQcO35Kj9e27LIteaDdGCObkAnIGeSMmTAwAAwAA8BAZRgAOVemkE3MwFDnNDNdyBlyBgaAgbEwAHIGOWPGDAwAA8AAMFAZBkDOlSlkrFkX6sEMHhgABoCB+WIA5AxyxowZGAAGgAFgoDIMgJwrUwhmuvOd6UJ30B0wAAyMhYELb9++FXt7e5g1gaSBAWAAGAAGgIFKMIDIuRJFjDXbmrYe/PZ2WnnvUlSiD7mJj9HcJRlgrLtsXyDnQeQcnGnNzxceVO/6RqneN81fUp/qR/AKy5fJFxh09SFzQtjdN+Lw/L39u3W3q56a798WN1+5sRy+OhUfpeQ5wXcfHf9lZXp4/pe4eaNmuXX17Ym4xTBy+OxJOlpT57CPc8gNHSSyqvTd4btMQhh72l5AziM51lFeKDFCXzrJ2byUIP/SgTRQQgPqPuNZO+A8OZODfiM+G2HcYf/G/l+R4xbJ2Y7nxqk4yJFzMDHKkl5F8v7s2XvR1s9Rjixd8xWbVuYVyQt9KvNPS5ATyHkkw6uFnLtAOUo/W95K5drPk7NyyOdvxE0VDa5JztLhTvjijTHJWRHOun3PkXP0vZb/wfHtdFSawb2cdE15TGUXOTeNfhvUkD4peeNM7F44cHa8O2RY25hBzhkn1VdRo5DeSH1p6/sY/eyOmqVBZ8hZRncmjalTtWuSczPte6HHImdKr669lhqRcN55KuLrG+1P/IKHbnJuxNDoGeScx0ibr8C97coN5NxBiJQmpnc159LBbaSn7pl3Qet6wnc1uxfSp+93g8Rvw71PWhtYWD9/v3RYtqstTYrdkUyGnJm8h5Gz7qcmu3BdUrdNkwDrZBSxvRc81a77wNaVM+ufw8mZJhNhX7vkHdzfNDkr/ehoNc5MlMtVZ0ecXHMRfAk5N2rCsL7cQM4BhpgNWtvAd9VlFkDOLaBUxMw3ebWs12bJWW2+CsmYG0v8YnlNtG3P8OeDz6qPecLN9rNFDr4Ba8fdHflNQ86ybzqyWgnepxTxRwR7943wSMOQt/edkUv0bLG8pH4M2Y2xGamYnLX8U2Px9Rngx46LJhMnYt9+14gSucoyfALUmLVw7ztTZxE5G/lx/ZaNQY6tdDKZkwO+L5c1ZDWmrEDOzPF4gs2QnCLsxO7mLOmZndH9Im5N2LlnvH6G/c/0m57J9jOsJ/d/0XqzNNJh5Ezp39VqJfRfR+SkNv2sxMquLYbt653X7WSVL7M2OVOaeN015lAPReRMu8zDJQOaJJBMV53r9qQHR4zryDV8xjnxPuTcna1x9RIpr/BK0+oiQvJFuHK8xp9BzqHzo/9NlEzpbO/ah5xlfcFPlzjp6iiZp5ndZ16uGMibJufiKCbvkGksqSiM7vW5piJn+bxy/LTmqqK3kKx0H/lPv+TnFIGvTc4KT0SKfhTaZ4y2bCc554g5Nn5bJ2Heu6Yj5yK5mgxEKFdEzn11gPLtGF22fEDOnkNiyu4guRA0xRFpEEkXP5frZ/h9R7+Ht1eaJpyGnNNrzkaPjMjiCM2QmLfGvIHI2eqHyK4jA2DLMyzy79iYQgw2zVjEbCYTuWif9SGWq9a7P8HJYyF+PjFurDkj+uU2sCOfL7x7905cvnwZyo8Ubg4Y4WvOURnnSMpJL0hZmwj9+dWr4+hg4+TcCEWIOcdtZZR3yEQqwyJnIrv2aFQ6/4PjU3Er+m1wTM66P5uInB1O4jSxu0dyab0yYvTLjUTMlIa3ywPp/uXlGpOzIuBzfyMe9b2EnFVmpBNv6X7KdrAhLC8b0gOu9ckI5GzJJKWc4AQws+PappsNsXopb1XGbchSpO3t1H4hIiJO1tNnQ1i6n7JfYVvlk4iUPMx3LevO5IjDlKbdOa3Ixe3i5eVSac+s0yj9nTMdzOFFyGYcdI9Oq3r2RKXCbdSX7euwE7r6kw0Rbyw329dwLDSmTJo+J1c5eSha26X2EnKlSQ7p9uD4iTppzeqXnmV91GXDZQepp9JMTR6vIOe8bHI4wPfblxnS2q3kvH0F1WokZdEz5Fer/ubSL0WsA3e5g5xhh3PBO+8nyBnkvGY63aSVO9KfHGz4DCfZCwNqB/7ANXpp32PVA1+xpq8A7nvh3uAM5AyDG2BwcuPQCM4TOhigg6U6Pj35cz/hGjZOHYHLn5C171FYx4nimWG6gfzS8gM5gxhADMAAMAAMAAOVYQDkXJlCMItMzyIhF8gFGAAGdgkDIGeQM2bMwAAwAAwAA5VhAORcmUJ2aWaIsSISAgaAAWAgjQGQM8gZM2ZgABgABoCByjAAcq5MIZhFpmeRkAvkAgwAA7uEAZAzyBkzZmBgJzCAw0hmRu6lpwAu1H5xfOcsFKvPK6bjEO1RmLPo+8wcAmQ6GlHfefZYnJ8/Fk/vVoCB5EEkwbGo9AYzYGAgBujce/Nq0rXPRd/tg45AzjMzxK4XBdDZ1vYc45mNz6Wtul+c4cpW4Py3KudPxKNXmgglGUZ/z74Y6GyZfG98J16f3xePbrDvMmMfSs5fHt8X56++E19m6i/Wf8tZ8FRH5ytB6Zz1BRB451iHyps9r7IVSXIOCDx7mJF+Q1rRee+sXdLrnK9Ia89MoVlyNi8TuHV8Kg4ybwDqBGpVaSSQc6e+ktjVRP36+JPxCJm304Oc1+u/I/2xyLnkHPg8YZno+tWpuPnsvThci5zHPe1sqFzzY3WyH9oGPZ8jZ6UTdvSvPsEtfXpb2z1qZ4lXkDN3PDP4nCZnSWTmjT5mhr9e5Eyz2bSRTGsAIOf15A1y9uRWEDXL8jnCkt/Tm7+U7a1FznS+d+Ebvzbsh3Jj9eQ2Uh9y5By11aqn3YyeQc4jgTAC24bqTZMzm/EOImddj5rVptJMKjp/Iz6jFJ955V84EVDGz14HSM5Nykj1P4zsTdSvygV123V2Wd+6jnEtXWiSe3r3C/HUpIr9z07mKsJj6eQwalXpXZlaVlEnpZ0PxB3er7sHcTr6/LHgdVGamNLW6bXcNDmrPibT20F5r4+yr0EKuyBy9uURPE9jjtpxa9PhOGm88uqP2emGynB5KZtUa83dk80SwhpEznLchoBWLGLUfkNH5xL/ZB8K9xHe9YTV2QR7xSbZjfcMranrcl7dzD5lfaENj+XPxiFn8w75SG7cX63EWOewjzX2ofWAnMlZzOSqDCzxDl0LhBHIWdalU0kB4O17eJ1T0ESc/79ptEPhBO09Y/rL7+uxDIuc9QTDbEhZ8Wvpizo0aRE5EWFIcrBk2zRCExEnWk0YnCTo2fNzKmfqJrI0ROWIJ1MHX3+NnqHJQkC2hGtJ/vx5+r7Rbam2E3Xq8TGCVWXY/7Yeap9ds2VZmy3Pq7aTfZZtZMYZ1FdKDpOQs+qbjgJX3joskeh7G6XHdvv6SIAAABt4SURBVNNhR6puv4wmY2eb5CNKxkplh15L5a/9TX4S1VYP2TrIOQD/UOXheebMCmQ7hJwJxCtLVh1EpaKOlbAzfUXOf4mbfDMQRdPMOYSz8JQz0OM4FTdfvRfp3efDyHk4rnwC5YTsPqdJJiQVTc5EzFrfXhkVNfv3XRuNibhjQvTKWOxkSIu34ZGmHIOuW9UXkWFQn/dsB3azZbXczmlyYvvu1+fJKCpj9BP1169DYd4jQv8+4SSFUbpHV4VZLzI1dVFEbO2K2UzUb/kMLR+R/Rly9ibdLpqW7af7l7ARNdn9S9w8fiMOzwNbNX1J15WWC4193Wsbqdo6jZ9p2/TVRd62rqS8NzO2TbeJyHlmyhxCzn3ApI0hFTkHBp8gZ5d2ey/s58ipaceST1UnHM+kuionZ0qpeldGGmnSYw5DkRhP2WrystG3ue/VT2n0iOACMiWZMaKUpPf61X2dMlff64lBG9lbImX1dOKptawh6Ow4TFaCyTFuz+iI6kiULSKHLPkxHdGSTIRjv0zcx/B+S+TcRc5BKppsKzkZbklVV0XOBcQsZVqqx275h/qo93+QMzmvmVynIGcdYdOsnoF3zcg5NhgXFeTHM4yc4ywBpbYT40rqvpycXTqayYrVWUrOnHwtMct6WkkubDNDzip9LSNkef9A3JF1SjJj6e42crb96dOX4rLpSLo9ck6PO0rdz2jN2c8gORuR9lNMqDRZpgiaZ7kMJovrYhiObTiUf/r/VlItJGbZtrLnzJrzun2r/TmQ8wgAnFLJeTIzxjFozZnSbZm1n05ypg1f8ToXl5Eag41ANAnHa86pVF/aAfC6x/tcQs5m/dmuJaf710XOaVLkdZm+JCLDeLw5ctbfPz3+Trw20fadZ/fFo+MDYaNilfrmEXxiTb2YcPtNKpIyUP2J0/nxmLWskmTeugvYybiEsHzcumdz/fG+byWiFNZ9cm6yezNYPwLbV2OiX3FwP5eyY35ffjb9tUta4f3C/7Pk3CoPNibVjs425NaUaSLelhb3dFHY920/A3Keg6KUMbEUsU1vEQka47bfs7JeqiwEffC/NJi29bmUUavvqB+6PuXEgr5o8qV+plLjibVn42wofZdPgQfjGEWnZeQsDVgRC6VWzdVGmnS/lViDFC/V5T1j+kP3zDWO2nPkTP1kZGfImPe1Md+5KN5fC/d3nNPO88eO4M1GLfe8K2PbUQTvvldlvbE6fYaydeNNySzoq8GBct4pXIf4sphl+MzaHivTibeu3zkXkLNsI9lfY3vUT8/eM/ZGKXo73sRubbuOXpppcjqzu9L5Grz6THVREEDZLH5NBAaKyBPfk9xpIpHSMZWZ4RXkPEOlbXtGh/aZIxqMH38S4GSryccS2uB2xuzzzOoqjJ6d7Gc2vg1hQ0ekLaS4oXZ9PZT8xjm1jj9/HeL4zkkANn+g+AaD8Ywnjww5J1LM47W5g/pT0RVFbjs4/r5+jiLnra7zmgi7ow8qdb4KNq/2HW+F5UHOFSoFTnjHnGcqzRse/gGcDj6OVDnxDkcP23Mp562v4XYtszUmYk4dmLQAe0FaewFKhEPZMTIHZgcTNWwGNlM7BkDOcHRwdMAAMAAMAAOVYQDkXJlCap/NoX+IOIABYAAY2DwGQM4gZ8yYgQFgABgABirDAMi5MoVgRrr5GSlkDBkDA8BA7RgAOYOcMWMGBoABYAAYqAwDIOfKFFL7bA79Q8QBDAADwMDmMQByBjljxgwMAAPAADBQGQZAzpUpBDNSOSOlwwXMmbs4OAKOE3YKDOwYBkDOO6Xwb8XD/Rfi4aebT8mMNcnoelUcvZEm98aasfqBeuaDGegKuloCBkDOIOeqZ+RZcjZvojl5cCTOFniu7hKcC8YAkgQG1sfAhbdv34q9vb2qHTQUvL6CfdktJXKWaW/zthy8cQi2u1MT7LF8AerxfWN98kDkPAfDvvijeL7/m7h3sRG3vn4hXu7rv+dXr3qOmd+TZWz6Wj3vnqPn1fWbH8XnSgaauP06QzJ3/39+9Tfbj5dff2v6cVXc++aFkHV4fbFt9DeAbORMeusiZ3rXK9atPazU7pjQv/62ApktS2YgZ3LyNV8ZuVry/PQn8dIQtjRKRYacBM0zlqAZAfvfEaDLyVmROhGy144mZ3nf9rNJ1Uttdl9Bzt0yglOGjICB5WEA5FwzKVPfDAE6wpNAdFFso+7ryJobqSJsItExydmr00XLTWPIOXu/vwENJmeSIa6InIEBYGBGGAA5z0FZXnSaIDhz30tXm9S3SzkHhB6NOxXhsgmAKp8qw/sDcuaTI3zm2MBn4AEY6IMBkHNEUhUCqIic48g5BkJItnysKeINy6fK8DpAzrHMuXzwGfIBBoCBMgyAnJdAzpRO5mvOyXGlyJOAEt7TRCyjcbdGPUNypg1hp0fiWlImNH5c4TSBAWCgHgyAnOfgsLsiZzUGQ66UzjZXR6wGdGEKnBN6cO/hp7pOV8dE5EyEujInhNmr+flUc00cnYb3cqeJ0WljZ+Loej2GBycIXQADwEAbBkDOcyBn9HHQRha1qWwFcm5zBLgHogAG6sIAyBnEN4j4qjdo8zvoFX7nvGw9w46h34VhAOS8MIVWT5YTyltHzCtx9uAaHNeEcgcG64rAoI956uPCu3fvxOXLl+G84LyAAWAAGAAGgIFKMAByrkQRmN3Oc3YLvUFvwAAwsAkMIK0NcsZMGRgABoABYKAyDICcK1PIJmZgqBMze2AAGAAG5oUBkDPIGTNmYAAYAAaAgcowAHKuTCGY3c5rdgt9QV/AADCwCQyAnEHOmDEDA8AAMAAMVIYBkHNlCtnEDAx1YmYPDAADwMC8MABybiNndsbzye1NKTY4E5ufdd3Wt43eY2dX44URiCg2irVN2RXqBRnPGwMg5wLHc+3BmVit6KULm1P451d/Ey8rIGc1XpAySLnANkAAm/MHkO1uyxbkXOSA5JuNNv/ihFrIWR57iSMvd9sxgBigf2BguxgAOYOcowgR5Lxdo4RThPyBAWAAx3dOQM4qImbvWX5+9WpEiNIYWyPn4F3LL/dfCPeeZQ3kW1+/EPJ7+gvvlxo8yBmOoRQrKAesAAObwQDIuYic9QapdVK9mph/ErdsO9+Kh/svRIqg8+Ssn2kjW0XMfL3akHnbM2mjkin8ldjcBrjNADk9FrQFuQADwMA8MYC0tiXNbgXqjWF9iCtNqjkSzn3fNLqel19/m4y4G0XEv4l7F/0xKMLOPRONW5PyFBvf4Cx8PUEekAcwAAyEGAA5RySVAsm6kbMhVZZqppRzald2npxln4K6OOkmUt62HV6uaKyInEMjwf8pm8B3wAUwsEkMgJyLCWud3drpyDmn0HZy5oYQRNKZyDnXTtf3WHPmssbnLrzgPjACDIyPAZDzRsm5EXqTFl9zziuxnJxNvTYqNgeZ8DXnonGl+wJyTssFDghyAQaAgakwAHIuIrFhv3MOd1HLlLPdEJZNSbM15FSZiIiDk8ZMKr3/hrBGgJzhgKZyQGgHWAMG0hgAOU9AznMDH8g5bSxz0yP6Cz0CA/PFAMi5gJynOr6zFkPatfHWInf0Y76OFLqD7sbGAMi5jZztiy/W2Qw2b7DK6Hm1WokVzthO/3ytDTe4B5kBA8DAQAyAnAcKcOzZEuqb96QG+oP+gAFgYAwMgJxBzpjhAgPAADAADFSGARzfWZlCxphxoQ7M3IEBYAAYmDcGQM4gZ8yYgQFgABgABirDANLalSkEs915z3ahP+gPGAAGxsAAyBnkjBkzMAAMAAPAQGUYADlXppAxZlyoAzN3YCDGgPr9/i/7IKG5+Dz5U9Yd/iknyHkWQH0ibp2/F4f09+wJHMws9BYTxC6R5p1nj8X5+WPx9G4FclBnFoTnFei3zanf82/7N/133zj7Pn8vbtUgs63bmNHPjk6oQM5bB2A/x/XZs/fiMEnOAYGfvxGfzWxsPnHp8cBJleDjE/HolSZCSYbR37MvxpvM3fhOvD6/Lx7d6O7XUHL+8vi+OH/1nfhyKI6vH4mzVft72FVU3RalmTo2H8m14D4g8LQf6NaLb2dbLK/G0+Wn9Ctszx5cGw/DQ/E00fMg54kEPZZBpMn5trj56r04OL5tAazKvToVH/UZX1VppBYn1WdMO1dWE/Xr408sFsbCnqqnBzkPbXcsclan3bURb9OIPDmb6O30SBzJU/M66hk65qbJ4P7GqTg4/0vctJMiXY7bfFHbNdl4ETkb3axOxP6O2TLIeWYKT5NzYvargM+NOVEmGjul+WowhIyTivpcMq5dKgNy9kiqIGqW5XPkLL+nqK2E5L2218JqOe7XmoA3Fdl4ITk3zW5GzyDntQxoe85+s+Ssx6XP1Q7X5xrRkDGpWbxbAw9Tzx8d/+Wtn/HZvep/uKam6jWRf1C3XWeX6+19MwGDdKtJ7undL8RTkyr2PzsMqAiPpZPDqFWld2VqWUWdlHY+EHd4/+4exOno88eC10VpYkpbp9dy0+Ss+phMbwflvT7KvgYp7ILI2ZdH8DyNOWrHrU2H46Txyqs/ZqcbKsPlpYhSrTV3TzZz5MzJdhnk3G7jynalnRmb1PYXT/LJjsk+uQ+ge/w77Tu0jYf+geqQV+4rItln1p61v2pftuB1zeUzyJmcxUyupeSsyg0gM+WswnU6a7BunUgbWv5/StNxo/OeMWTM72vjKY8gUsZGBms3+8gNP+ovMelI6l6TFpETEYYkB0u2TSM0EXGi1YTBSYKePT+ncqZuIktDVI54MnXw9dfoGZosBGRLY5Pkz5+n7xvdlmo7UaceHyNYVYb9b+uh9tk1W5a12fK8ajvZZ9lGZpxBfSWkK/FTUq4ucl4zrc3kk7JxS5zMd4S+JPy/MTbMybjIxmmyz/qUsuUu/ZCtn9xm2CuoM9dWLd+DnGemxBJyJgPjxiIBRyB2hNVBVCrqWIkVzViVMQWzaM/A0oSq+sOMXfZFj+NUrZWnN7ak65rOcHwC5YTsPqdJJiQVTc5EzNqBeGVU1Ozfd200JuKOCdErY3GcIS3ehkeacgy6blVfRIZBfd6zHc4wW1bL7ZwmJ7bvfn2ejKIyRj9Rf/06Sgl1XuSs95gcRps+dfrX2XfBGnlg4x6pGpl79quIOPAB1p79X5F02rjnO3y9hXauJxLdGZDwuTn/D3KOjL4dJNtWdhc554i5b79Ts2qdmgoM0zMwTag8TWU/B+RMEXU+VT0fcqaUqndlpJEmPYYzRWI8ZavJy0bf5r5XP6XRI4ILyJTwzYhSkt7rV/d1ylx9rycGbWRviZTV04mp1rKGoLPjMFkJJse4PUPQVEeibAnpynpLypUSfdxPpmvSR/bahfscMfdpQ5dN2XgZObslLWvfctkp+hWJ8QeR7Zu+er6jvf8l+hkm9/b2t1H3hbdv34q9vb3N7OzMArA+QWxD+Ou02UbOYxGzjrATUbUypm5yDiP2eJxud3l+PF1Oqh1DcZZgzbS2IT9OXO6zJhiXjk73qZScOflaYpY21EpyYZsZclbpaxkhy/sH4o6sU5IZS3e7cfE6g/r69KW4bDqSbo+ceR/lZ0PUIUEvas15PGLO2XgZOQc+IOnnC2y8Bzmr/lIGL9leiIf5/4/IeWaKzpHZOMTcsZOzk5xNujpKt/mGosZgZ9OahOM1Z+OIotm4X1dM/GPdN86+lZzN+rNdS0633UXOaVLkdWWIJ4ndgExtGf390+PvxGs7pvvi0fGBsFGxSn3zCD6xpl5MuP0mFUkZqP7E6fyczpNkPnC3Nm9LEUT2p1RkO4lJrdUB12nuc25SOhYxUz/TKeJOcm5MP6z9psdRZOOJtWoub/dZp+tza8o0Eadd9e65dN/mch/k3MtwtqRsRYqpVBJtxDLpIzpBjF87jMgDqowyss6HdmsHs+bE7FcZJu+D3YVJDiZVRyItZozXps76jGWwXsvIWcpPEQulVs2VR75d5NyYTVk8clafvSjQ9CdoJ47ac+RM/WRkZ8iY97Ux37m++Gvh/o5z2nn+2BE8RbBBP2V9th1F8OxZWdYbq7OzULZuvEFaXLUX9NVgIEuqdLCI3SyYyK7QmmxbGd6OLLdGhJeyGYV7mpxmfUB+h7Nn22QPHTbeTc5SN2THvk/SGTO6V2bjFFSQjceT9EY0XdkP0lGb76Lxz+gKcp6RspLGhv7PfEnGnwQ4HWvysYQGPa+v58Lo2cneTQ56fWfaWVoE10sGo+O05DfOZiMcyHlN4I6uNPRju0YD+Y8j/ww5J1LM47S3o3pT0dXQlHO77HR6dbNt7BYGTAq+IxOR2ti2BDkhcsakYf2IBLIbR3apNG94+AdkPVjWyol3OPq1nDqlVXfwiMm15FWKZSnX1miYfjq2zAkRyLkUKCg32Dlu1JChH+gHGAAGFoQBkPOClAnya087Qj6QDzAADMwFAyBnkDNm28AAMAAMAAOVYQDkXJlC5jKrQz8RgQADwAAwsDkMgJxBzpgxAwPAADAADFSGgQvv3r0Tly9fhmIqUwxmpJubkUK2kC0wAAzUjgGQM0gZEzNgABgABoCByjCAtHZlCql9Nof+IeIABoABYGDzGAA5g5wrnDHT4QLmrONNHBwBvVeo9807PJAKZDwXDICcd8pJfyse7r8QDz+dj4GqIxGT5BwQOE5nAtnulC3Px4bnQoa19RPkvFMGvRRy1mfu8hcMZN88tFP6hcOuzcGiP8DkuhgAOe+U814KOScMfoIXG6xrZHguoa+dsjuMHzbQHwMg5zk4iYs/iuf7v4l7Fxtx6+sX4uW+/nt+9aqXyuT3ZBmbvlbPu+foeXX95kfxuZKBJm6/zpDM3f+fX/3N9uPl19+aflwV9755IWQdXl9sG/0Bmk9rB3XlyJleSpBMjQd1zAEL6KOHeTh9YHipGAA5z8HZMXK15PnpT+KlIWwJTkWGnATNM5agGQH735Fxl5OzInUiZK8dTc7yvu1nk6qX2uy+lpJzNq0NcgaZzcHG0UfgNMAAyDkQSJWzMEOAjvAkqbkotlH3dWTN+68Im0hUjZM9E407RaJhef2/i5RlP1y0TJ/z97vJmPdffi4h56W+zzWUBf7vjx/IDDKbKwZAzhFJVQhmLzpN9M/c99LVJvXtE2VItryucnL2Jwm8DhM5exMCTt68bNnnLnIGMZfJca4OCv2GfncVAyDnxZBzHDnHoF4WOYOY4bhjjEMmkMkyMIDjO5dAzia1/JKvOSfHlYpsCcjhPZPC5hvLOtePwzpk3ZuJnIuJmdacT4/EtaRMaPy4wqkDA8BAPRgAOc/BYXeltdUYDDFSOttco81fYQqcE3pw7+Gnuk5XRyr1zcE8EjkToa7MCWH2eiL21VjDA0hYuYiEqeyZOLrO+4rPcMTAADBQLwaQ1p4DOaOPg3ZyqnXrFcgZjrheRwzdQDchBkDOIL5BxBcCqrr/rx+JMxl543fOy9Yz7Bj6XRgGQM4LU2h15LhF+eqIeSX4MZ+QDyIUYAAYmAMGQM5bJI85AAR9hCMDBoABYGB6DICcQc5IhwEDwAAwAAxUhgGQc2UKwQx1+hkqZA6ZAwPAQG0YADmDnDFjBgaAAWAAGKgMAyDnyhRS2+wN/UFEAQwAA8DA9BgAOYOcMWMGBoABYAAYqAwDIOfKFIIZ6vQzVMgcMgcGgIHaMIDjO9vImR0jeXIb4K0NvOgPMAkMAANLxQDIuY2czT39kgU61xnGsFRjwLiAbWAAGKgFA0hrF5Bz08iXJ+Bs5lpAi37AgQIDwMDSMQByBjljI0gRBuAMl+4MMT5gvCYMgJyLHDMi55pAi77AiQIDwMDSMQByLiLna+LoFC9QWLoxYHxw+MAAMFALBkDOReSsAas3hq0Edm7DgGsxYPQDWAQGlokBkHMROSNyhgNYpgOAXqFXYKBODICci8gZa84w4DoNGHqBXoCBZWIA5Axyxm7tIgws0wHAsUOvwECdGAA5FzlmRM4w4DoNGHqBXoCBZWIA5AxyRuRchIFlOgA4dugVGKgTAyDnAseM4zvrBC+cCvQCDAADS8XAhbdv34q9vT1ETymSti++wNGdSzUAjAvOHRgABmrEACLnFCnjO0zWgAFgABgABraIAZDzFoVf42wNfUIUAQwAA8DA9jEAcgY5Y3YMDAADwAAwUBkGQM6VKQQz1u3PWKED6AAYAAa2jQGQM8gZM2ZgABgABoCByjAAcq5MIdueraF9RAzAADAADGwfAyBnkDNmzMAAMAAMAAOVYQDkXJlCMGPd/owVOoAOgAFgYNsYqJKc939ZidVK/p2IfZAnZrTAADAADAADO4aBKslZz1j0O5RXv+wDlDsGym3PWNE+oiZgABjYNgYuvHv3Tly+fLlOApTHZ54eiWsgpzr1A71AL8AAMAAMbAQDIGcAayPA2vasE+0j8gEGgIE5Y6DitHYjGkTOIE5MnoABYAAY2EEM1E3O14/E2QpvhJrz7A99R/QCDAADwEB/DNRNzmq2ZDaGYec2Zs87OHuGU+vv1CAzyGwJGKibnBE5g5BByMAAMAAM7CAG6iZnrDnDKHfQKJcw68cYEL0CA8MwAHKG88cEABgABoABYKAyDICcK1MIZpvDZpuQH+QHDAADS8AAyBnkjBkzMAAMAAPAQGUYqJiccXznEmZ/GAOiGGAAGAAG+mOgSnK2L77A0Z2YzVY2m4WT6e9kIDPIDBjoj4G6j++EYwY5AwPAADAADOwgBkDOO6h0zGL7z2IhM8gMGAAGpsRAlWntKQWAtmBwwAAwAAwAA7VhAOSMyBkpM2AAGAAGgIHKMAByrkwhtc3e0B9EFMAAMAAMTI8BkDPIGTNmYAAYAAaAgcowAHKuTCGYoU4/Q4XMIXNgABioDQMgZ5AzZszAADAADAADlWGAkTO9N3klVjj8A0CtDKi1zWrRH0RawAAwsEkMMHImQe+Lk9VKnD24BoICQQEDwAAwAAwAA1vAQIKcG3HtwZlY/bIPhWxBIZuciaFumoDiCiwAA8BA3RgAOYOAMQkDBoABYAAYqAwDyeM72yNnWps+E0fX6555YGYI/QADwAAwAAzMEQNJcm5un4jV6kTsJ2cSIOc5Khp9hoMCBoABYGA+GEimtbUC9cYw7NyejzJheNAVMAAMAAPLwECanFsj52UMHACGHoEBYAAYAAZqxUCSnNvXnKHMWpWJfgGbwAAwAAwsAwNrkDOtOa/Eye1lCAFghh6BAWAAGAAGasLAGuRsfge9WuG30MkNcwB4TQBHX4BHYAAYmCMG1iLn5vqROAM543eBmJwAA8AAMAAMbAQDCXLuPr5z/5eVWK3wO+c5zsbQZ0QRwAAwAAzUjwFGzm4tOXt0J0XM2d9A1z9ggBI6AgaAAWAAGKgdA4ycoazalYX+AaPAADAADOwGBv4fj087DgpeCLsAAAAASUVORK5CYII=;" vertex="1" parent="1">
          <mxGeometry x="1470" y="542" width="487" height="266" as="geometry" />
        </mxCell>
        <mxCell id="gYu7qt-4oHGNPAb3_qpJ-12" value="" style="shape=image;verticalLabelPosition=bottom;labelBackgroundColor=default;verticalAlign=top;aspect=fixed;imageAspect=0;image=data:image/png,iVBORw0KGgoAAAANSUhEUgAAAakAAAAqCAYAAAAJf6SZAAAgAElEQVR4Ae2d+VdUWZbv+8+JiZgHJgnmSaZgcEIQZ0EQARHBCZVZcEQUUTFxAEQTFFFBZVDBiUBFzTLT7KrqVfU6u15nVdfUtaq6663PW/cSAQECCSpKZt4f7gq4ceIMe3/P/p5h73P+RSaTMfrINWjcDBi1RkzjHgM6pQqVa9of/FuJSqlFr5mYl+N/jQGDSoXcJR+Fwm2kfLUWN7l83HejdXRJ/8Pv5MjcdORUt3D97lUa9qQSO+H3Co0etckTnWWSx2xBo9Mikwn5GFEb3SdPZ/FEa9CicnOR5YRyJq2r0g2lzoDJqEM9k/aq1Cj0FnRmD3RGAwqlckx3QnlyOTKNCY3JY6yeZncxrcrogcagR6VSIlOoUWjNaCdrs8UDndmCWq1ALp9leya2WS7HTWfEaDSgU6tQTvx+2v9VKNRGNOZJ9CLUW9SNBrnQZrUBt2l0ozOZUGvV42U1bdkyUbZagwmTXo1SIf/h3yqUyHUO3ZiMqNzc3vmNXGtCPU43HmgNBtQmd9R6B35c83lHP4JeLbiplChc6i/IOLGqg+sPOmnKXccq9QRcuKSdFIeTfL9wUwlHm76k+fCmd9ox0zykdB/YfybRy89Rpv/yc2i0p/9GCo9e4lpbA9V5SVKnk8D/08GApz/GvGNc7u3n6tGNbIqyYP4I+tWt3kF+Uye9rcfYESdDq5IM7s/BVs7HNv4sSEom8yI4agfFh5q53FRJapgMtVLqdPMRkFKdZoNLC55haWy93ENXUzZbEj1YYJjN76dJaw0noaCKM9duc/v8fg4f3E6anzfWj0CAko6nkbsk33cGkD8TkhJAEUp4bCZbd2RKJCV1hHc6wo/TcFrwtC5n854itq3W4m3+uMbPEhTN8twyKiv3U1lZIJGU1G8+S7/5GZHUx+3AP06jJslA0puEAQkDPy4MSCQljY4+y+hIMhQ/LkMh6UvS1+fCgERSEklJJCVhQMKAhIF5iwGJpCRwzltwfq6Rm1SuNGuQMDB/MCCRlERSEklJGJAwIGFg3mJAIikJnPMWnNJodv6MZiVdSLr4XBiQSEoiKYmkJAxMiQGVVo9HcDS2hX4YdLM7teNzGTWp3DkgVLM3niFhRARbxWBx15OC5lre70FSSuRy4SgX16N3nMcHzYFwJAMypQGZa3BI+c8NnpVubuhNBsxmPUadHKVibsr5YP0p3fCMXMrWCw94dKWI2DAfBxaVKFQG1GZP9Bbn445Gq/0IR5nNU1n8aOyQHLlcjc5oxmy2YLFYsJhNGPVa3D6kDYm5bDp9iVsN5aQaNOIxbh+MrxnW5z1IKhi16SJZvf9Opf17jghPn51tVXslYzpDoX8q5UrlzE+DF5WyjJqb9Tx9WENbhZ5w6/yspywyCVt1G48e3aV5izchHgpHH4/EPaqOtL7vOTjosAEDQ2zasxOL1Ac+sx00ozNu4OCVbrruDzAwMMBAbzuXj+0gUSZ7f6JSRZOUeYzWnjt0n8nDpNd8sna+B0lpUajC8bYtJyAhiaXHbrOz9y27ayqmrLRSZyKk6jbZzY/IrtxIVPw87ZQfrYMJh9LuZUlVJxt+Fu39XPoUjKaVzcV51LeU09o6xXMhl6rtC6fE5weReWAkSTuzqa9NozBhZmfc2dYmU3//El+/rufuUQMRfu8vP6OvDyvKd9HUkMqmEHe8PxaGA5JI3NdA080rXDsaSYyv0uX8Pj0qfQiesUkEJiRhO/WM3fe/Jre8CPepyjcGo05pIKOpnx2NzSxavhT9VGl/Iu+FA4Utu6+RcbrxE7ZXhULpQWCEjZjYODaVnuTczdvcOrOPlHdIygtr8EZK65u52NRMc7PwXKC2NJOMhRMxqcPkkcKazHN0DtziXNkKgn0Mc9OnJuj/PUhqfOX9d10g5/YUJOUbh8emY6QfbSbj8hsqXvyN0it7WLZqfB4zNhIqDbLEbHK2Z7EuKpgFExoz43zm/HeC8s6yofV37PqQ9s55Pd9TD/OmXsLp5CZilseTlpVMTs56SvYX0jt8gVfdeVQWryYnJ5mcjDhSFnnPTYeKWkpmbQUPewo5vUaGfgYn4Xv4W1mWmkz25mWsS3DDon9/PbiHBJHVXMfw090U2xYQ8JF0E7q+kAMtd7h75Si7ImRopznr0r2kh9y7b6YgqTA8bDtZfOgKGY1P2db/D47aX7E2Iw3Te9VVh1pjI21nGXmpfoT7vr/s5tpeKPTueJ/6NUUPXnxAez+sfeJp9m2dk5KUNTyJvIqLdHY0kJu7hczMTIpOnOdiaxONpWvFmdf4my/csS7MZP+NxzzpPsH2KP9PcpbjHJJUKJaUIyy5aGf7oUaSqu5T+OiPFH2I0VbpkCVWUHv5Sy5UF5MXG07QewH9wxT/w+CWSOqHZTQXOjATaltFy9MGhppjiQ0RZrRzUY5Lnu9BUh+zTnNCUl5RZFY2cPXWJRr3JxEmk017zcp0JOUWnE9McTdb27rYWHWA1Tf/yoHHH0hShkWkfnGHy83FHNyeQHSQZe71/B44mv8kFUta/h6Kcpah1ahEGS5I2cm+pjvca6/jYKQM3YTBic4jjEVbW7kz2EPLtpUkLpj72dQcktRKAlJqWVlVRYibCeWaTrb0fCBJyQRBxpKxp5rGznbaTh6kOCKYQLMMhevdR3ovNMEJBMbFY/KMwSdqmbg0GZSQREBMDN5WGQqXzWqFaQGGhYkI3zufgMgILJ5mUXFypQp9+FL84pLwC7NidB7kqVAis9rwiUlETO8Xgtoah1/COoISbpHb9QeKO8+ycY8z3+UExdow6PXj7gP6mEbrh/Nyw+ThRVhkIBEBHkTEhRCXEEpMmJWIMCvRCaHExwUTGaBEpx4xxhqTEevCYBISQkefuEgvfD3H35nkFehLRKQV/0BPDFZfYkfTBxDmZRi7QkKhQGa1Eh4TMprfuLwXmvE0jXQatU6Lf2QocfFjZdsivQjwciGKUQMyNUmptBo8QwOJi/DAoBvJe0xWwoxMi2+IP1ERjnap3FB6+hAdF0r8aDtCiI3yIcjigrdZkJSwNBcWPdbm+LgAwjwVLstojjbJFcgsXoRGBbuUPV4v5gVehMWEsjJjBZU36nn9rIK6LUtIddQ1LsZX3Osac8rQYfEa0e84WU+iR1lSKWWX7nD3UillyZPJefy76UhKv6IQW8kZVmYmozJ6Ymv9nooPIikZMrUOWVoZ5Re7uHPtDCeK1hLq7zmBqMxoPCLwil6Eb6g/xohEsf+K/TtuCdaQ4An7M17ovGxYXWxAUMJivLy80Aj4UulReNqwxi0nMDYOi4eHg7jVyJX+uEcl4h8/kt5gseIenURwUhrxl/+DiiffklN+kGhH3oFxS/EJUOHm6F9jOBwv14/xfrqZ1KT5R2SSXn2TB33NNBXKMGgn1skTvSmP0z2D3G8tJWN50AS5j6Q3e/sRGhWHLSqUUB/ZBzkHzSFJuTTOzYTso5DUWJ7Lcoo40/mIvpsXOJ1mYoHJxUsqNoegs99y/OW3pGx/ws4bv+GA/XuODv+FgwNPKagwYdCNXKooV+swrSlmWft/USOkEZ1B/psDnXdYty1VvCxPaXAn6vy/ss/+D8pby0lap0UpVyI3B6CpeE7hwH9xoOMqyUUnsO4aoMT+ew7b/8aJN//k5Ju/UjPs2Fwe/A+O9N0lNioC7ahhHWvTpKCRyVDrDBhMgrfO5I/guTPz+368ScrI5krPSe6c2EznUB1Dbxp52FbCnS/30vdVAy9fnqWnxkKkvxylWk34mmT2t5/mtb2eIXs9dvs5hjq3cHCbHwatczNdRnZNOV13Szh+Jofl5SU8tZ/Fbm/g9ZtqWgsWsVajRCZXIDdbMFWU0tZfx/ALIb8veP7iIl9/28zbN+d43JJM6hITghdc6KIYjndfxD54dqTs5+cYuLWVkwVaDBrZhIsZpyYpS0gQGRdPMNyVwdJI9wmDBOGSwDDKLxyl58ZmyrMXoLQG4F+wl/tDpxl6JtSxnmfD9Tzu3kdDhg5vg3xkYDQLkorfnc8XnXXYnzXw/PV5fvGymsvZekLdXTEgR642YsjIp+nOcezPR8oWyn/y8Bht5SOOFklbM/jidj1Dzxp4+aaZt99c5NXzszwT9VNPf9cezu2QiTKSyRSotTbSC/bR++oLsS1CfsLzsC2dvRvHG3hV9hEOXG/n2v5tpM8Ap9ORlCumPxpJOesUu51ddTfp77lGy/GtmMddHppCYEYnuf2/oeLySZJvfU/Rw99zxP5njtl/S1HTefz1WhTCpZkyHSrdTmwFQxS9+vOIM5hgC17/GzkFOwnR6VBaItCkd7PzwZ+pfvYVG7Zk4aF2Q64MQOdXx8b7f6bS/gs2ZWRgSylg5Y3vOTL0e6q/+l9OfvM/HB/+k8O2fM+hh9+SX+4uDpZd5TMXf8+WpJTRWWQev8WDnkbO5zvx44pPGRqDmR2N/fR21JGzOmbSWfaK/Eoa+14xOCXZjc9zurb/aElKpdESvmoLpV8+ZrC/k5YSk8jYYmNFkvoNdW//LhJVavIq/C2eeK4vIbHjd1Q/7GGx2SRu3Bo3VrOy41eUtF5nscUTk3gbajUrjn3Nnu4HZOxOEw2rQFTWqgfkPfiW7VVlhAigzehh5+DfqOy4zOI1S3HT6h033gagszSRce0/Kby6n5R05+2ywq23JlRK5axcdVPLztDU5fDUEbx1xj29tJ/aLV5MN52ix74bIanrzy/yeugwVwq8ONFSye3BRga7cmk7beP43fO8vLWB+Agz4RvXc7jjCPda86iwGPCxGLBYkik6VklP9w5O7baOjqREkrI38tVXJ+luyaXcYsLHEs3B5iM8uLubqrxwcYZgysjn5uA5es7FkJkk5LeQJSk76H5zjudfLiUpxohaJUfwgjt+4zj23gLyAzwIEspelsLWU1U87HM1wk7AT01Scj9/vI9WMfRwB3tsC/B1GjrxU5gRplD9ZS1dX6awa0c40bv3iAR154Q3S6KEOhqIXr+C/R2nePmkUiQqYUYlmwVJCbM5g0mPJSaO5KpShl5W0/IOSZkxmNdzrv8LOs/FsEmUz0j5ri7rbho1BpOBoPgoCq6c4uXgXiqTgokW9WPAbHIlcSvpe3Zx7eZemqvCxbYI7REes1GNVj020BBwElt4lnM32mks3syScXJyynn852cjKZUWrX49G/Ma6XraS/eVg2ww6hwz9hGS2vb8n9S++p6Ky7WExMWgsxQSu/05e5++ZfeRfLQ6wUttL4vKXlLYYye3asfordZ+VffI7XlLflkZIcKgVG1FY24i/dp3FN1oZ8XGRPThiSxu/wtHfvEr0lJWYlWrUblpcTN5YvANJfCL31Ay8Iq0rVtZ4Lxp2eyORqcYt5oz1j/Hy/ZD38+WpMI2FnGovZe+liPs1cjQuq5QObDgpjex6sRdOu9c4lDqMnE5eGI9f5IkZVubQ2md08PE+XmOo/mJJAVMrjghVssncSNJZ7q4132Ja6d3khwfhEwkqX+j9vV3bK9aRaDVIE7tFfG5hF34FTX2QRItFgyybGzlg2y7fYOsveEiaY0Eqfnhk3+FjK5vKDx9VHSrFd6rfKOIPtRBbtsLdp1pJ+XG9xy994DF61JE4zOmqI+7J+XpH8rCmDji4iZ7YokKsWI1Ti6jsTo5vx8hqY6np3l+K5P4QDUFJ8vp6q3ibNUilqeEcuT2eV7fTichMpGs8hKu3d5Jw14vcZN05NpyI0vzcznXVUnn6WTiBdnIHDOpodPcP59NWbiQXo5CpmXNgWKu9ZRxoWQREVZfLBUVPH19lMYNASwSnQY0BEbHc+reeV7dXEf8QjOywEjWV+7mbk8ZLdu98NcoxDJkOiNLs9O41H2M/vNxmA2uS3dTk5TMzw/LkSrsw+XUxvsSNc4rzw2tahXHWo9w7Uwi1WVLqbxay4uBQooitSwYXfa0sjgti5v2evrrwokJVM+KpEZ1EbCQ2JKiKUjKHaMlnS/t57F3pbM5ZXqHj5ntSfmRXb6Xu08Oj9PXaH0mENGGqkba7tzgYlEmiyZ8N9lvPhpJLcwgs7SWC6KXmdMGNNN83NGvJ62LGYtnIms2H6H1wQNutpzn8MZgorwcJPX0D1R3dhAWGy6uishkawnO7Gbbw19TfKoQrV6LMfMam659Tf6JGkJ8x2aVKt/jrDzzS3a11bMyReg/wow7GPdNV0lv+4ptbQOsP9lLuf07CirH7IxTRvN9T8pZz9HP5K3sOHeDvjuXaa5cg49MNmHFYcSGCCSVUnOXWw9u0LAphWWT6OUnudxnDY8lacNmNm92fTJYkxBIsDBinUQQ4qVsu2s43N7DneY8irYsJtjP3UFSv+bEy1+zOdsdD+dyikheb11IqoJlh99SPPSGkrYLpB8ee7JaX1P8+DcUnT8juvWOGGcZhogylh9+Q8XQbykeeMmGTalYLCN7V2N1/LgkNZbv5HKY3fcOknpci711FRaj28gy3e19HN4ViV+kK0mtZ+fhA9wbOkp32xYOHx57zrYeovdxNT3n17Pa4doqzqQeH+VaZZL4zlkv7+hIVqyzsSLGG29vK+bCYh6+OsW1PUEkid5ZFkJta7g0eI7hq0nEhRsdxr+Koee13Lu0hWNHx8puaKngvkv9neXIZNOQ1Gi5x7iUFcim7DUUXarBfq+Y9lJfjHGZnL1VScu+BI7kJlN/t45nN9KINqlH9iRE/I3kf3nwHC+vryR+oWkOSEqNmzqEFek7ab1VSVPL7hG5V6VRnheOVlgydekLMyMpPSExSymu2UNnzwEuHd5CtaDL/Smk2RaIxsg1z5SyC7R0Xf/0JOUVRfTy9WRkZoqeZoK3mfisXUywr/u4do/VV7jMdCf76y5xp+cqNVuzSI0Ubih2kNTj33Gk9Sw6o3ODf+T9lgdjJCWS7L3/pLJrkBwXG5B+eIg9d/9I2e0LbMhx6XveSwmtuMXm3j9S3jNM8fkthEdo0Ghc0ggGfp57943KUPCaXp7Dlvp22juauXAwi8RIrynkLWOUpPquUpeeTJwLHkfz/IjvfrTLfQKppRcf48y1LjrPFrF7ncvNpCIZfRhJiYRVdZzkrAyMMpljeS4Y95haVhyxs2/gBTu6X7I+Y+5JKig+mVVpruTt+ncG65OiiZrUkWB8pxkB0MchKZGwqjZQmBVJuMP7SySpgYNcLl869TKR+wLM2YXcf3mRJ51ZHN8vuI5vorRsn7h8KOxziQ4Z4jLa5CQlll2ZRtk7RnsaktJ5YVqWR9fzk7SVxHCkJpPjrdXcbi6i/+oqonYWcrWnmIasaPYKcUy3x0h8rON9CpISdCYQUTgb8tIoFwcGuzlbv5+HfbsoyAjFyzIWSDkzkhLyNBISE0fBfoHsczl8WCCsSlpqNpArDB5cjEpAwUnqOtppKc0RY2vG2j8ZnmR8tJmUSx1+qEzxe4HUkko5WH2Z9hsNlO5MxaZRoxPzmT1J7e98SvY4khoZtK7ZmTU+tjMkhYhDN9nc8R2FlwfZfSH3x0tSegvqxWmkfdHJrc4rIkGtsC2YkqAEuav1ZjLO9HKn8zzF6xfNeSjQj4ykhE1OM9bgCPIO1nLpehdXq/eJ+zHjHAdmTFLZxFfa2d59c8Jy3+SdURtYQuKJF2xr6yKj4gAxJ/+dA733WfTOcp8emewEay9/R2F7NcmpU49KZtIZk/LKOVzvsvwxbjlkquC7ydsgk82GpBLZWlnKze5dE5b7Js97JiSlXuBLZHE5j+wnuHWrajQA98qFPHF/a9QRIzCWtANF3Ls/YblvWkM2DUnJzBjNa7n05BSth1Jpa8zi+MltlORuorO/mF3HK7l/ZwcHN4axOiWRqusneH4riyURahcvR2G5bzM3ntbRUxVGlO9cLPdNJltvwuPSuTZ8njd3hWXYsVmFMTiQ1edP8MJewuEVVsImjOYnx9dIEPSO0wfoeXLg3UFFWhX7r97gZs0u8jwnq8/4d5+cpASvWp9QQrNqOHHpOnfaainPS5pgWGdOUsbtN9nc+S3bJyz3vSM7uRKZJQKvkh6yb/aTW9vEoq3t5D/6LdsmWe6T692x1LxlX/8vSN+WiZduvNzG5a/WofRbSIwtlrjIQDwtgg2ZJv0Mv5t2T0pvwbB4Pcn1t3l4/xZXjm6adgY1Uh/hyKUIytsecffLMtKTp/fui42JIDLQjFIh2O73a8/sSUqhRK6zoDOPnN0XXnyZrd2/ZM+panQW4Z0FN5UShUyFQm1EY/ZE5x2EblMPeX1/osTpSGB2R2fQIxe9a2ZYebkamWYdpWdvcmfgFi1F2aRO1vAZk5QM37w6NvV9R2lbh4vjhMPRwWRCLZxHJtfhZvQg5tQgu+99RXaRcPxLMGpzE1kP/0pZx2WWrF2GsJk9oghhpJvP4jNvKe57TmZxoWMz9v0cJ95XuZP/bjYk5U5S3iYu9NXyoG2bi+OEY9PdpHnXu+8HZlLW8BAq2s4yfCeLlKV+4zbxLRY9FrMGrVKBQubJ0g0ZXH5Qy7N7BRQ4HSecG/7jHAOc+JmOpLToTdHU9TRws72Ch22bKCsIxxoRRMmNUzS3HOJZRyY5a/2QRUVjO1HF4PMzdE90nGg/zrPenVSYNCOBjOKMbz+P+oo4t8mAr/eIbETHBLPWxd1diVavw2Q2OBwnynj2sobW7V4kBBuwmAQyVCBTKJCrtZgc7XQ6OEQtieH47bPY29YTF+6yvGy1Yq4o5eHwaW5WRbEhxlG+ULbW6f2oQqPTYZ6Q5+oDe2m5WcyFwgRxX3EUL7Hb2ddwm+6OQ1RvmeTMN4UahdYiYlo4u8/vwAO29b5l26ED+Iln+bmjVitGPC/ddKgMHuIZfyb/cJa0/4HKp29Iy8vDR3AkMJlwc3OuVDj1ON2nHLnWHV1xC813++i/UsGuDaGTGMCZk5Qsvprk87+krG+IrQd2uJxHKJxL6CHKTqlQid68uowe8nq+p7BxN4uSZLgFLSHw7Hccev0rNq5cjZ9eg9IZW6QxIdvRTcGD31F4ppRFy5znHHqgneg4YQ3HXHmdfvsLXnWfYev6WNTOfCazcVO9Ex08DJjMZvHcvsVbq6htv8Ptc/tJs1jwspgxaJSoFEpUsetIrL/Ly+eDDDblsTw2aOSsP+G8P4sZs8mATi7sK7voQ+GL0ecQlx4+5eqxWFIiXb5zSbcsr4KGnmGGH3XRXbsWT73brJzFRrEokzF7krLa0FU8o+Lh/xVdNY+9+hu1X/8vJ7/6b47YhXfPWGWz4SFLxH/DFbIeCK6Yf+DI8N+p/eb/jblkD3xNxfkakahcKzTt3xoDsvwGLnY0cTx7NfFaDWoXwYz+dhYkpdDosWZUkHbv7y4u6CMu41WdPWTsLsTNWM7K67+l4uWfKDxdRFycBrlMIGs/1A4X9Jre+6zL2+ToLMKoQYNqxXnWffl/OPTqLyNure/pgj7arsnaOut3syMpgXiXZqzm3L2LLi7oI+7Ljzu3v+vd9wMkJRzZ4u2XxdXBszx+Pt4d2j54CnvfNnZGeeErU6BSe2Fbvp7WoYs8sztc0J0u1rdn590nk8nRGk0Ut51l4EU93XWJbIlVovD3x6fmEE+GL/Ly+moykyzIVCpUYaEEnjgkEtXzURf0EyNejiYN7s7OK5LUQV5+08gvhusZGhpzGbf3lXC+Ks6xfBdE4clyOh/VO1zQG3n7tok3L88i5D/qCm7xwpS+jZv9p3jqaKvo/m4XvBzzyfc14ql0GZUqFOi8PSm/Vs+AvYFhR137x8knjq1lJdx2yU/I88Xro1zJX8wGrWrEKcWJJZWWVTsP0Xz7Nh11k5z55rfGEWrxPYft31P9+h+iDah9/Veq7b/jYP8waekW3IW95OQy4hu+EfF/dOgP1Lz5J3Xf/A8nXv6Zo/bvKG2/xsoVMpGoZoZz4Wy6VA5ef8SXdUlsXKJDqx6/TzeSzyxISqXHLaGSxae/5cDrMRd08VxS+zfkCd59ot17TsXg36i9/4DlG1ehEk4XUfijtdaSdu/PVA59R8GhXCKcRwoJA3CNiaiTT9n95C/UPB+xK4ce/iv5FRNc0N1DMGU1cvfpc4aHH3H1UCqpYZMTwLRyMgdiTD3F1e57PBgY4PGgnWcvhhl+PsSTgX4GBu5yriCSxb5hLN5wkMaBYV69eikS1eNHD108h7vp7TxNkUk/fs/SJxxzaRv37R2cWroQ2xREqlpVwJZL93j1fIAnN46SanJ6Xc6+TbMnKbUBRUACAXHOANWJnwm4GwRvupFgOu/Yid87/o9bQkB4MArlZACboiHOaX5EKAEeJsfa8yRpxWDeRQTGLcLTU4VK5UjjDPK12TCplKP+/W6O4DtnIK/zMyDahpevr0uwXiI+gQvQO6ftLsG8QTE2PBZMWNYzBmMJWzIaSByUMH+CeRfGBGILN6NSyhkNwl2gYyR4NoS4yLGgV73FTHD0WDCtMxg0PtqHUGHJy2HcxHyi/QnzNYr7eM73Y58GfEMWc6CxBnvfdnKz4l2CeeNJTtkuxm111S1lTbSw0a1CqzcTFusaUDtSj3eDVQUdO9LbQrCF6sfN8oQ6CFizhgcTIwQrBxrxFPQouAwH+GOLCyXOJYjY9b2zvQkJQcSIXosuXk86I56B/mJA9Fg6h6xsfoQHGhEI0hksHBP3rhyF340GR08aRBxKQnwwcVFeeCodXo5OQhnXrrG8x8vHyAJ/P2JGg5Kd6SYEWbvkaV68lYIznfTdOktNmgy9a+CpxsMRtD553x7X78z+GMOWjAbJO/vWyOdy/KOiRDKTT+LqPIYb1z4+djZdeKBhmiOlHPYnZqKdGQvytQb5oBACy4V266wYAhPwHxfMK7RvCT7+/mhd7V50FMZRZynXYN4J9sEhT21gDD62MVlNGsyr0qLzj+XA1Uf0D/XSkr+G1U4746KXyWXiIh+VFqVnCJG2WGIn9Qa2Ee6jx6QRzuILIHxKr2Ebtls+Iz4AAANYSURBVJhQ/JRKl4lAEP5RJRzr6edR625Wh3lPff6ieS3rdl2h7/lDnnaeYJMQejGbdriknT1Jufz4BwUmpR014JKshI7kdDx4d29FZl6AOX0PvcMXGWiKI3XRGPlJsnMxQp+qT1mCCUwvZm9LOz2Xd5OXoB0h9U9V/s+tHJ0nhkXbOHd3kCf3GindsPiTnIs38761gODoPIqPttHTeYbsVeF4mKbuowtsW9ld203/ww5unFhEhF7lQnazw7NEUj+3zvBZ26vFMySW7Y3HeDZQRGXZ+pEDYIVDYPemU3DlML2Xt3Iw14uF8/jg0Jl37Nl1xnmXrzWckLwqGrt66di/lAjfj7OZP+/a+Vn7hIUFgQmkbNlD3vEO7t9u5NT+zcSGjwXJzwt5WZNZs+c019obqctZht5x1t/4ugmrYhHEJW9gd+15LrS2caU6h+xEGRrnatZ7yFoiqfcQ2njF/MgN0aduv9EdQ0oap5pKuTLuao1SLjflsz9Fg++MA5Ml2c81Fg0+wSTtO03DoZxJzseT5P/h8g8gauk2qr5opuliAw3FSZ/sCoxZ1T12Lcn79lO9J4NYR/D+u78XZlapbC0/Sf2UV37MHjMSSX1qIy2VJy2BShiQMCBhYMYYkEhKAsuMwfLuyGn2oyIpD0lmEgYkDMwGAxJJSSQlkZSEAQkDEgbmLQYkkpLAOW/BOZvRlpRWGp1LGPhpYkAiKYmkJJKSMCBhQMLAvMWARFISOOctOKWR8U9zZCzpVdLrbDAgkZREUhJJSRiQMCBhYN5iQCIpCZzzFpyzGW1JaaXRuYSBnyYGJJKSSEoiKQkDEgYkDMxbDEgk9dHBaUajXUV2URmllZVUCk9RPjlrbfMWBNII9Kc5ApX0Kun1p4CBeURS3vi4LyYpbDFLzTJUMz4Veb4BcTxJnfvyBn097TQfdl7j8W59lW5qIpLT2JCxmQ1JwYRb303zUwCb1AZJrxIGJAzMFgPziKSWkBR9gsZtJzkdLkM/xT0ls23g506/Ir+SxutTkJRwM2ZQJEsSk6hs7Kbv6Qt6mzaTnyIB+XPrTSpfwqCEgfmBAYmkPvpy33jFTk1SKtzi1rHs1C2e3LtPS/0F+gYeclciKWlZdI4xKRnf8X1Uksf8lsf/BxzQ+tpR5KXIAAAAAElFTkSuQmCC;" vertex="1" parent="1">
          <mxGeometry x="1957" y="630" width="425" height="42" as="geometry" />
        </mxCell>
        <mxCell id="gYu7qt-4oHGNPAb3_qpJ-13" value="4，3" style="text;html=1;align=center;verticalAlign=middle;resizable=0;points=[];autosize=1;strokeColor=none;fillColor=none;" vertex="1" parent="1">
          <mxGeometry x="2270" y="600" width="50" height="30" as="geometry" />
        </mxCell>
        <mxCell id="gYu7qt-4oHGNPAb3_qpJ-14" value="" style="shape=image;verticalLabelPosition=bottom;labelBackgroundColor=default;verticalAlign=top;aspect=fixed;imageAspect=0;image=data:image/png,iVBORw0KGgoAAAANSUhEUgAAAecAAAEKCAYAAAAo150IAAAgAElEQVR4Ae1dO4sdx7bWz+nkOrg4OCAwBwwnMPIEOlihDBckW0b+A36IwwnGAmmSgwMFgxBjMxJScmBsDJICJRrwYASCjRPND1DqWKC61GNVrXp1V+/u3bu69xcMvWd3dT3W+tb6aq2qXX1BCCH++c9/ig+++kNcOfxVfNg0olF/18XFgz/Fle9/yPz/g/j48E9x5fBP8fEV/Ux3HVS3vOrn6VndJr/f6D4d/Cw+sH0y96/8qtq99NV10zf/OVeXGcPhH+Li33Nl8L2TF2QBWQADwAAwUAMGLvjkrMlWEq78i8jv7z+LS+aeJmVNfpZgDWnS86k6Pvzeb8OWpUlA0Ia9HxJsopzthyVzkHMNIEMf4OyAAWAAGOiHgYCceeTcryIIHvICBoABYAAYAAbGwcCFd+/eicuXLyfS2uM0AEVBjsAAMAAMAAPAQD8MgJxtCryf4AA0yAsYAAaAAWBgUxiwae1NNYB6AV5gABgABoABYKAfBkDOiJw7drz3AxQMEPICBoABYGA4BkDOIGeQMzAADAADwEBlGAA5V6YQzDiHzzghQ8gQGAAG5o4BkDPIGTNmYAAYAAaAgcowAHKuTCFzn+2h/4hYgAFgABgYjgGQM8gZM2ZgABgABoCByjAAcq5MIZhxDp9x7oIM939ZibMH1+BQYb/AQA0YuH0iVqdH4tqIfZk1Of/PvZ/E3u//Ff+4d2lGAL0k/vZ83T7Ls8LxEo/pyfcL8fT8sTg/PxB3RjS+dcdx7cGZWK1OxP6afZmn3XwlPvr9v+Kjf68xeZPn8KdeoFMkvyfi1vl7cUh/z55U72vmqd9t+cWx9HtNHJ2uxOqX/RHwoeuqkpz/98l/xd6TrzoHORyELQb/f/8S//j9v2Lv+b/E/zAjLu1b3vGuAULmXD783pCzfMkIvSyE9S/f7hpObSv1EhFKMoz/Xh9/0omLYhnc+E68Pr8vHt3okg31aX1y/vL4vjh/9Z34cqhM5Qx9dSaOrsd9LsXmPO2mxVYzMpVvydMv7/lBfGzIWb54J35BTizLFIY+e/ZeHLaQs7p//l7cultWX6qNtu+Wrd/t+8W8fm+Lm6/YBO38L3Ez6TP2xclqeEZLTb5Pj4Q9vrMNFFPfKwXh8H61GLwi55/EP577s/XhfVsDhE0j9Nu8fhUffy//5Ju9diGC1qT4dEPOrikm5+HOdhxybp+dD8dm6Ti3YTctbWbImV5Le0XZzK/6FbdrR9CNyDrvu29UZH3r+FQcVEDO8IulOPbL5fQbfv/R8V/i8PyN+CyBu6FZLak7WrICOedSZYac/3bvP14UP9wBrkfO2uD0O7CjV3kmQDLcQH3gbqc+kLMn95aoWZYbjs1SnbcQ5cbspqXNLvyrV9kOn8yGTlrrRqZFjaO+sTvkvES/mNZvwiZa9Tw8erbkTO9z9pxAF9g3fL/Tyfz7P2qtWa43y7/cOpSqx5RRZSlFTSlrfo8+e2V+En/7P0mm8qqVFPUtqsuVJZlSGpH6K6/+Orl2PO7+f8T/BjLWkfMf4tLBOpGzJLn74tFdmcaVqeLgM0vRqAiPpZP9NLIjS6/csy+8VPOdZ3E6WrVp29H1uLR1Ll3s2iNZyqus3+8XGVBQ/u5BkBoP2umMnD8Rj16xsWTS0p4sgrXptCx0nV5GQPWFtXX+WHj3m0ZQuiu36STCZoChpshuQiwyrEZY1/YX21aB3QR92fs9xnxkv5Gth30N69CT2SsHf4hLMnqW76LfRORMcm512oTR9a/j6NdM4sjfyavn85hOs2UK9BthpUa/6OtiHHLWke+Qted5kzMZQ5OfTStCJNDZ8r4ympbnGwUuDShZF5GpZyAGgHxyoInYAVH/z51GGDnrMVD9knyiZwavORMZSnIiwpFrrfozEZ0mGU5g+jm63zRUz2NxToRsSIWIJKpDESRf1w3rbET0jNWXLkt1E0Gr8tS+LdsIL00dtatJ3dvU1UnODi+qzRQ5q3a4zNwz1F95zT6v+p8eJ39efpZG22b0Hja5XKLPObsJsZkey2C7UcTsbESOTROxsxP1v2e/YZ+77WbqNedm2+Rs9RzKyulR+RZPru6ew1v++WX5RX/speTcltaWMuyaRDs5++3r73XkfXK7EbPeENbmJEKSTAukDIS6He04uAOMHYgUNndwqfr5fUPEkbGknpN1r7tbmxMiJ2T+OU0QPqnoMpaYlTPgdRgC9IjTr9evj8Dpl3G6Sn/v1cHJUZEtm4B4/ZBtBfWNRs5xlOvGoMfo9dk6UX/8vlzpHl3b15tlexybYfv+/zl8aWzaSCrqJ/Ul93wjuPNO241pI9rwyepkE2PXb3afJrCldsMmt64+Gkv5tdN5z4Wcf/cnRrFMfFl79z3dyHJz9ou+7jv1K+3B7C84OL7tZQu5jNZbd9akzH+FsVhylsLSBE1pmhQgS0GoHZ+MkLkD5J+dcpjz8YBMQEiQM08fsc88Inf1Uz19rpqUdATMyZR/1mVcqpmlWG3EyOtJt69IiP/kKIhg9X1WN0uhhxFyRKZEFoyQ7zy7L16/MuQov1d95ePi/Qz6PwY5K4P10+fxOLoiZ9nHQP7RxGKKyFn2w+CXcBgRoCwzxG58/Dtc6zpVBklF1i6K1mX8Nn3bJhvX1/HshmOnZUMY4XIG5Cxl6ctul/1iT/0WELOULyJnZRC+wTpD94XuABkCseX5kFjl/8//Jf7GfubVRs46TZ2q33dOylCSDjAeQ9v42u9xUuLExT/rMilicXXzetL9i8mXp7RLSIrXm+mTjZC/EE8lGUtSfvaFTh0rUuPjaqlvLHIm58yIOpRje+TM+yg/63GHkXSX0afxGNYt/0/hMlXOEHWEz5bnO+3Gx7/DFqszrCNh69PYjS+TzshqJuTsZE5Evat+sYd+C4lZyrZr+YnLP/V58WvO0aCTBm+cT5RiC9NzUomyrP5plf0NttnUwmfqelZKs/6wfvM/3xCm+sU23XBHP9pnTqqcuPjnxJps1D6vxwe2lneGTHk9ihBzG7rCOnP1ye/vi0fHB2ZjmBzHgXh0fN9uFNOTBH9ioDZn2SxAsEbN+5j4XE6umT4HGYQIn0Gbqq9h9Dzabm1GhEG7Yb/SJBjimuktsrPYbrSN+ISgJhZ2EqD75/Zh6P/lxjNra5PYDRtXM0LkrPTXvm8glD//f/zJV8rPyTEP0y9tPLS6stF6bX6xUL89iLlp3Jox112fz/WTM6XV7NUZswKp/Z6ltBjJpspwsFhhGSO3O6XJQUROphEEOkvO0rF17jp1joWci+ybczxkIGwcamwEZB9Att8dTtUvpwmjPa2t20ntLg43hLn/E31TJBSnrb1nDEH7KfTUpqoM0dlNbe4Zith5xErf2XY4MUv5JfsRb3azz9sUvCP9qI3z/MQjlK3ta6ofYV+VvtvXnVOY32Pri+n7/MAfH6vaJjI4HGg3mqAZ5snuCNde/dL2NWF4NuyVoboy/aV6+16NY7YnhNFJYfTzqSY8oIIdVhEeWHL9SJytVtlDZHybjW0rrT/4xS65td4fol+LAaYrNQFb//Q+2deqyblVmH2NC+WzGxdGl7MhGUs6JPueUePo/aJ+LOHaET1DdsxRVqhvlfIccPQq9Fuzfof/xlnqF+RcoeHO3vAy5KwjRhflzn6cW8bOertBa3ZqO9I3ipxHOX95R2S2ZVsr91XtWa3yesyGstVJnT+l6jMQlK3LSFNp3lHOlJ6NkU6jD5pdA//TyHuYnI3jHuHc5WH9mIOsZtpHmdEa8a1U0r6r/CkVADhTgIJAp1tCgKwha2Bg0Ri48PbtW7G3t7foQYLsQfbAADAADAADc8IAImfMPjExAwaAAWAAGKgMAyDnyhQyp5kd+opIBBgABoCBzWAA5AxyxowZGAAGgAFgoDIMgJwrUwhmoZuZhUKukCswAAzMCQMgZ5AzZszAADAADAADlWEA5DyxQtQBEjiEYBJHAFkjUppTpIS+Aq8cAyDnAnK+9fUL8XL/hXj4aQt4Lv4onu/rcrLsy29+FJ+HdSePXnQHFKzkubsj/pCdK3o3P49znN7uyA5Y3B1dt/iy0G/h/0mCiRB7IOcC4HWT87fi4f4L8fzq1bwSzdF9J7fzRtH1SsCGjv+rlsB/EB8f/imuHP4qPmRy/eCrP8SVg5/FB00jPvz+T3Hl+x8COV0XFw/+FJe+um6+D/9PyOzKr1E7IbjV/wVyTz7H+j/G/c+v/paesI3czhh9lXW0YVHdUy9wkC9xWImzB9cCfSb0Vek4x5IX6oHOx8YAyHkMp/HpT+Ll/k/iVktd6sD7DlLNO0QT0ZweiaNfao6uNTlfOviDEW0jtkrO9H7VDtmPbVhhfYsh5/CtO5VMfkJ543+Q5dwxAHJuIdRi5XaRc6EDy5Gz/J6ikxKSL+73GGP36tDk/PFXP4tLJlKWfdk2OVPGoS1rsWmZLYacPX1LAjATR+yjQPYgwgYmCEP8yoV3796Jy5cvA1gJYCmHateRfxP3LnKwXRX3vmFrzLZcYn06jDYSbUkl5siZK3gW5HxFp68/vqLltXVyNgRCExwuz/bPerlC7jXwsPD1t569ePeC5Q1aElH7EDIY0c/7mRf1Hdu3oOqR7Xp7G9gzNEH07nfsk8jgsBSLWnY5cqb16zNxdJ3bDT63Yw7ygXw0BkDOLQ7KgkQ5vJCcmRGRY8zUVUK6sq2ScuuSs3qOrROqzWf8xe+0np0qUxwVmchZkrJcEzZry9snZ/2O1FXxOEi3mpwVsRIhG/KjzYExsab3H4Rka7HVEPEzoqXvQnJW5E7lzOSQ+qUwKCeGdD9dL2+37XMJFtXz2awQyLlNvrhHNoZrDgtIa2cI1RPYQHIuJdQSh1hal9f/kjGOUoaRcyM3df0hLv69grT22uvOhpyJAJWMNCnqzX8usubyThFx6jt6JiZ4Q6wROTvilc96dSpyDiaQHZNGaj91LcFi0+jd8PiFAQgmhSF8NwwXIOcSUhpIzmWObrOR8zSGwslZk7LcgT33yDm/C59F1kHKOvwpnUekAeaKyZmRdaTPyckZxBzpINAr7g8jp12XH8i5xKAGknNTwZrz5GltJVdJ1r+Ki+ynVJyonfH5pN6oqJv/tCph5KU/pVL90CnWddecu8iZUtxuPHF/l0XOIOY2XeNejH/IpL9MQM5TkHN2Xc5XWEmEPZ+0th6b/F2z/GkV/c65+fvP4tLhn4I2i0mjVYTt/TZ6xN85S/0q+a+zMSm9fswdjd7w5aeb+X37ORXZEvaCezqS9g+yUe1UETmXEjOtOa/ENnfJW/mTrHH1NjNCPr4PrkkeIOesseZ3Y0eRVMHaXpZUsxuxGJmoyFsf+OA2csn/WZnsOKYEXxgBN4LI2JKz7KeKeuVhJfTnH1pCkbO7nygX1aHLuINM3LhLJj1po+wmZ/lcakd2hJFEOR5xe3VIEpaYYmQ8CTkXYFHJMrVpcBWTsC3beyOe011aL7gPuSwfAyDnqUitMHqG0Y1sdJD79iIlInuQ8/Z0MJV/Qzuj6xjkPCWoVARcW7Q7MhlOKc/OtnQKtv9a85JlMt3Y9D4H4B0T7ukwtyRZg5w7Hfy4wFKpPkQSo88yU0YJWY+L3ZSMk99RxLw6EfsT21eyP+jDJPYG2Y9rbyBnGC4MFxgABoABYKAyDICcK1MIZp/jzj4hT8gTGAAG5ogBHN8JcsaMGRgABoABYKAyDICcK1PIHGd46DMiE2AAGAAGxsUA0togZ8yYgQFgABgABirDAMi5MoVg9jnu7BPyhDyBAWBgjhgAOYOcB8yY5e+I8TvWaQwfsp5GziAyyLkODICcB5FzcMQnO25xWwCnYyD50ZBRX9Rxo/Ldv+bPeyViKTDN2cnhb7aDo0ZxrnKpPLvL6eMw8dvhCM85GwYWB0y8u/FYrIecfvB9q35AziMBpO2tQ1OCuJOc1Ru2XohW8i6QSfascPusPp0rSc6B01yFBG/r2K6D0C/kCN+Oxc4PVy/x0O+s9nQcvjEr/D8aX8GLPswz3XKfQmbp91h7MojGOEW/cm20YFH1U99f4dCUVrKoV785vc/7e5DzSE6kFnLuMqBR+ll0XnXGIapneSpcl6vxiE39ess/xCXvjVnbJWf9hq34JRNdeh/3/nLIWR8xeiKOHpwJkPO8yWxcjG9fFiBnkHPv2XJZ9JYh54S8y+qb3ljo3dMXv+evuNwyOTeN2L68FkLOMoNjsjZYMpjevpZGpmOPB+ScIAsuZEoT0/psLh3cFpGqe7S+q67h+3+1s6M2Xu6H97sNx2/jN3HvIn8mrJ+tN++HZflzqc96rbk70l0OOX8g09cHP4sPFFa2T86NWhbov/bsMMrxEOqf35M4YVg0SyIOpwxHdr+Fft5/Zab+ztqOqke3y+3LPUPlgz0da+2NkBjuxmInOdNSTKVLMNxn4XPKb83vO5BzCzkrx2GdTiOalvVa5/gCEHS+6zl2ZppomVNs6WNkiMzxRfeaRmT7WdxGt6PT7fYr1032TK72xQqJd1wb56nTlYn7PXaXU+T8QSPXhGltuQJyjpYGmGxa9KhxJQnVEbKP8VIsEnmm2o3raJqgPCN5S8jKTqhfurycBPiEzv5vGWeM+24sgpxTusR3MZamkwnIOWfkGZJTziwxg8+SntkZbZ1M0F76ucCZBc+0AibTb3om3V4PwBWtN8v6uh1i05gd35VuxHHk3IhGbur6/gfRNLWQc/91Z03ORIBG52zymMZGCoup7whD+p4lXYXdoLwh53yZgjr62EQBFjvJuVd7JAtcye/g2h8LOL4zZ3Rsdh+l8fqQs6zfEDTVw4laO0yWHmTpb16uGNybJucCR6f72kXOdROzHINHzoqUfxUfVkPOfFNdmeFrrOUzMuVYDMjWs6ECYjW2lcd3QR1em13j78JiI0DOXTLE/WIf3AubebmCnHOC7CC5UFHpqCMh+CCSLn4u18/w+45+D29vjDXngcQ8eVpb61GS9aWvfhYfH9IGMRZFMz34pG6ibm/Hd4iL8p9SKdwNWXPma8isz7LecmyAnEP7x/8hpvH/UEwgrR04KCdQsxmFrzlnyw5wbCaK8FN8A4C9cXIu3S2ci1YGEnOLDpzuBsiP1R+RrNoYJn9aReTciA+//1NcsZvFZLuasC99dd3tgh/xd85yjGo9fY2NSYp8W8iZ9lR0Y9HYRiKD1DThPU3k/daPK4ycaUPY6ZG4xjAyNuZQ3zi2uwQ5gpxbDS3YLWpSzjYdZ4iV0tXu6tb1tEP009aR80vWk08/xsBL91P2J2yrPDpqMZKWdefsRiwiE3Jyq3izVq9NYa16a+l7j+cicm4MGTNybtRmsT/FlUP35xGzbE+Rs7tPZV05HTnT9+4q0+jhWHKTnrBc/H8nOcu2SrEYluOT2ODew081PkO7sf9HYxyHnDux2JKBiQ/P0XJf9dhQGNtprBOUgUxyGAA5R44BYMmBhX+vHB+iCBcdT4QjyH179qnJvv9aP7cbfN6e/uYme5DzRE51bsDo7q9JT1NEDDlunKixaWmLjp2ibOB94zjv9j1bxMGEfg7kPKGwlwc6mepDJDGNXiHraeQcO35Kj9e27LIteaDdGCObkAnIGeSMmTAwAAwAA8BAZRgAOVemkE3MwFDnNDNdyBlyBgaAgbEwAHIGOWPGDAwAA8AAMFAZBkDOlSlkrFkX6sEMHhgABoCB+WIA5AxyxowZGAAGgAFgoDIMgJwrUwhmuvOd6UJ30B0wAAyMhYELb9++FXt7e5g1gaSBAWAAGAAGgIFKMIDIuRJFjDXbmrYe/PZ2WnnvUlSiD7mJj9HcJRlgrLtsXyDnQeQcnGnNzxceVO/6RqneN81fUp/qR/AKy5fJFxh09SFzQtjdN+Lw/L39u3W3q56a798WN1+5sRy+OhUfpeQ5wXcfHf9lZXp4/pe4eaNmuXX17Ym4xTBy+OxJOlpT57CPc8gNHSSyqvTd4btMQhh72l5AziM51lFeKDFCXzrJ2byUIP/SgTRQQgPqPuNZO+A8OZODfiM+G2HcYf/G/l+R4xbJ2Y7nxqk4yJFzMDHKkl5F8v7s2XvR1s9Rjixd8xWbVuYVyQt9KvNPS5ATyHkkw6uFnLtAOUo/W95K5drPk7NyyOdvxE0VDa5JztLhTvjijTHJWRHOun3PkXP0vZb/wfHtdFSawb2cdE15TGUXOTeNfhvUkD4peeNM7F44cHa8O2RY25hBzhkn1VdRo5DeSH1p6/sY/eyOmqVBZ8hZRncmjalTtWuSczPte6HHImdKr669lhqRcN55KuLrG+1P/IKHbnJuxNDoGeScx0ibr8C97coN5NxBiJQmpnc159LBbaSn7pl3Qet6wnc1uxfSp+93g8Rvw71PWhtYWD9/v3RYtqstTYrdkUyGnJm8h5Gz7qcmu3BdUrdNkwDrZBSxvRc81a77wNaVM+ufw8mZJhNhX7vkHdzfNDkr/ehoNc5MlMtVZ0ecXHMRfAk5N2rCsL7cQM4BhpgNWtvAd9VlFkDOLaBUxMw3ebWs12bJWW2+CsmYG0v8YnlNtG3P8OeDz6qPecLN9rNFDr4Ba8fdHflNQ86ybzqyWgnepxTxRwR7943wSMOQt/edkUv0bLG8pH4M2Y2xGamYnLX8U2Px9Rngx46LJhMnYt9+14gSucoyfALUmLVw7ztTZxE5G/lx/ZaNQY6tdDKZkwO+L5c1ZDWmrEDOzPF4gs2QnCLsxO7mLOmZndH9Im5N2LlnvH6G/c/0m57J9jOsJ/d/0XqzNNJh5Ezp39VqJfRfR+SkNv2sxMquLYbt653X7WSVL7M2OVOaeN015lAPReRMu8zDJQOaJJBMV53r9qQHR4zryDV8xjnxPuTcna1x9RIpr/BK0+oiQvJFuHK8xp9BzqHzo/9NlEzpbO/ah5xlfcFPlzjp6iiZp5ndZ16uGMibJufiKCbvkGksqSiM7vW5piJn+bxy/LTmqqK3kKx0H/lPv+TnFIGvTc4KT0SKfhTaZ4y2bCc554g5Nn5bJ2Heu6Yj5yK5mgxEKFdEzn11gPLtGF22fEDOnkNiyu4guRA0xRFpEEkXP5frZ/h9R7+Ht1eaJpyGnNNrzkaPjMjiCM2QmLfGvIHI2eqHyK4jA2DLMyzy79iYQgw2zVjEbCYTuWif9SGWq9a7P8HJYyF+PjFurDkj+uU2sCOfL7x7905cvnwZyo8Ubg4Y4WvOURnnSMpJL0hZmwj9+dWr4+hg4+TcCEWIOcdtZZR3yEQqwyJnIrv2aFQ6/4PjU3Er+m1wTM66P5uInB1O4jSxu0dyab0yYvTLjUTMlIa3ywPp/uXlGpOzIuBzfyMe9b2EnFVmpBNv6X7KdrAhLC8b0gOu9ckI5GzJJKWc4AQws+PappsNsXopb1XGbchSpO3t1H4hIiJO1tNnQ1i6n7JfYVvlk4iUPMx3LevO5IjDlKbdOa3Ixe3i5eVSac+s0yj9nTMdzOFFyGYcdI9Oq3r2RKXCbdSX7euwE7r6kw0Rbyw329dwLDSmTJo+J1c5eSha26X2EnKlSQ7p9uD4iTppzeqXnmV91GXDZQepp9JMTR6vIOe8bHI4wPfblxnS2q3kvH0F1WokZdEz5Fer/ubSL0WsA3e5g5xhh3PBO+8nyBnkvGY63aSVO9KfHGz4DCfZCwNqB/7ANXpp32PVA1+xpq8A7nvh3uAM5AyDG2BwcuPQCM4TOhigg6U6Pj35cz/hGjZOHYHLn5C171FYx4nimWG6gfzS8gM5gxhADMAAMAAMAAOVYQDkXJlCMItMzyIhF8gFGAAGdgkDIGeQM2bMwAAwAAwAA5VhAORcmUJ2aWaIsSISAgaAAWAgjQGQM8gZM2ZgABgABoCByjAAcq5MIZhFpmeRkAvkAgwAA7uEAZAzyBkzZmBgJzCAw0hmRu6lpwAu1H5xfOcsFKvPK6bjEO1RmLPo+8wcAmQ6GlHfefZYnJ8/Fk/vVoCB5EEkwbGo9AYzYGAgBujce/Nq0rXPRd/tg45AzjMzxK4XBdDZ1vYc45mNz6Wtul+c4cpW4Py3KudPxKNXmgglGUZ/z74Y6GyZfG98J16f3xePbrDvMmMfSs5fHt8X56++E19m6i/Wf8tZ8FRH5ytB6Zz1BRB451iHyps9r7IVSXIOCDx7mJF+Q1rRee+sXdLrnK9Ia89MoVlyNi8TuHV8Kg4ybwDqBGpVaSSQc6e+ktjVRP36+JPxCJm304Oc1+u/I/2xyLnkHPg8YZno+tWpuPnsvThci5zHPe1sqFzzY3WyH9oGPZ8jZ6UTdvSvPsEtfXpb2z1qZ4lXkDN3PDP4nCZnSWTmjT5mhr9e5Eyz2bSRTGsAIOf15A1y9uRWEDXL8jnCkt/Tm7+U7a1FznS+d+Ebvzbsh3Jj9eQ2Uh9y5By11aqn3YyeQc4jgTAC24bqTZMzm/EOImddj5rVptJMKjp/Iz6jFJ955V84EVDGz14HSM5Nykj1P4zsTdSvygV123V2Wd+6jnEtXWiSe3r3C/HUpIr9z07mKsJj6eQwalXpXZlaVlEnpZ0PxB3er7sHcTr6/LHgdVGamNLW6bXcNDmrPibT20F5r4+yr0EKuyBy9uURPE9jjtpxa9PhOGm88uqP2emGynB5KZtUa83dk80SwhpEznLchoBWLGLUfkNH5xL/ZB8K9xHe9YTV2QR7xSbZjfcMranrcl7dzD5lfaENj+XPxiFn8w75SG7cX63EWOewjzX2ofWAnMlZzOSqDCzxDl0LhBHIWdalU0kB4O17eJ1T0ESc/79ptEPhBO09Y/rL7+uxDIuc9QTDbEhZ8Wvpizo0aRE5EWFIcrBk2zRCExEnWk0YnCTo2fNzKmfqJrI0ROWIJ1MHX3+NnqHJQkC2hGtJ/vx5+r7Rbam2E3Xq8TGCVWXY/7Yeap9ds2VZmy3Pq7aTfZZtZMYZ1FdKDpOQs+qbjgJX3joskeh7G6XHdvv6SIAAABt4SURBVNNhR6puv4wmY2eb5CNKxkplh15L5a/9TX4S1VYP2TrIOQD/UOXheebMCmQ7hJwJxCtLVh1EpaKOlbAzfUXOf4mbfDMQRdPMOYSz8JQz0OM4FTdfvRfp3efDyHk4rnwC5YTsPqdJJiQVTc5EzFrfXhkVNfv3XRuNibhjQvTKWOxkSIu34ZGmHIOuW9UXkWFQn/dsB3azZbXczmlyYvvu1+fJKCpj9BP1169DYd4jQv8+4SSFUbpHV4VZLzI1dVFEbO2K2UzUb/kMLR+R/Rly9ibdLpqW7af7l7ARNdn9S9w8fiMOzwNbNX1J15WWC4193Wsbqdo6jZ9p2/TVRd62rqS8NzO2TbeJyHlmyhxCzn3ApI0hFTkHBp8gZ5d2ey/s58ipaceST1UnHM+kuionZ0qpeldGGmnSYw5DkRhP2WrystG3ue/VT2n0iOACMiWZMaKUpPf61X2dMlff64lBG9lbImX1dOKptawh6Ow4TFaCyTFuz+iI6kiULSKHLPkxHdGSTIRjv0zcx/B+S+TcRc5BKppsKzkZbklVV0XOBcQsZVqqx275h/qo93+QMzmvmVynIGcdYdOsnoF3zcg5NhgXFeTHM4yc4ywBpbYT40rqvpycXTqayYrVWUrOnHwtMct6WkkubDNDzip9LSNkef9A3JF1SjJj6e42crb96dOX4rLpSLo9ck6PO0rdz2jN2c8gORuR9lNMqDRZpgiaZ7kMJovrYhiObTiUf/r/VlItJGbZtrLnzJrzun2r/TmQ8wgAnFLJeTIzxjFozZnSbZm1n05ypg1f8ToXl5Eag41ANAnHa86pVF/aAfC6x/tcQs5m/dmuJaf710XOaVLkdZm+JCLDeLw5ctbfPz3+Trw20fadZ/fFo+MDYaNilfrmEXxiTb2YcPtNKpIyUP2J0/nxmLWskmTeugvYybiEsHzcumdz/fG+byWiFNZ9cm6yezNYPwLbV2OiX3FwP5eyY35ffjb9tUta4f3C/7Pk3CoPNibVjs425NaUaSLelhb3dFHY920/A3Keg6KUMbEUsU1vEQka47bfs7JeqiwEffC/NJi29bmUUavvqB+6PuXEgr5o8qV+plLjibVn42wofZdPgQfjGEWnZeQsDVgRC6VWzdVGmnS/lViDFC/V5T1j+kP3zDWO2nPkTP1kZGfImPe1Md+5KN5fC/d3nNPO88eO4M1GLfe8K2PbUQTvvldlvbE6fYaydeNNySzoq8GBct4pXIf4sphl+MzaHivTibeu3zkXkLNsI9lfY3vUT8/eM/ZGKXo73sRubbuOXpppcjqzu9L5Grz6THVREEDZLH5NBAaKyBPfk9xpIpHSMZWZ4RXkPEOlbXtGh/aZIxqMH38S4GSryccS2uB2xuzzzOoqjJ6d7Gc2vg1hQ0ekLaS4oXZ9PZT8xjm1jj9/HeL4zkkANn+g+AaD8Ywnjww5J1LM47W5g/pT0RVFbjs4/r5+jiLnra7zmgi7ow8qdb4KNq/2HW+F5UHOFSoFTnjHnGcqzRse/gGcDj6OVDnxDkcP23Mp562v4XYtszUmYk4dmLQAe0FaewFKhEPZMTIHZgcTNWwGNlM7BkDOcHRwdMAAMAAMAAOVYQDkXJlCap/NoX+IOIABYAAY2DwGQM4gZ8yYgQFgABgABirDAMi5MoVgRrr5GSlkDBkDA8BA7RgAOYOcMWMGBoABYAAYqAwDIOfKFFL7bA79Q8QBDAADwMDmMQByBjljxgwMAAPAADBQGQZAzpUpBDNSOSOlwwXMmbs4OAKOE3YKDOwYBkDOO6Xwb8XD/Rfi4aebT8mMNcnoelUcvZEm98aasfqBeuaDGegKuloCBkDOIOeqZ+RZcjZvojl5cCTOFniu7hKcC8YAkgQG1sfAhbdv34q9vb2qHTQUvL6CfdktJXKWaW/zthy8cQi2u1MT7LF8AerxfWN98kDkPAfDvvijeL7/m7h3sRG3vn4hXu7rv+dXr3qOmd+TZWz6Wj3vnqPn1fWbH8XnSgaauP06QzJ3/39+9Tfbj5dff2v6cVXc++aFkHV4fbFt9DeAbORMeusiZ3rXK9atPazU7pjQv/62ApktS2YgZ3LyNV8ZuVry/PQn8dIQtjRKRYacBM0zlqAZAfvfEaDLyVmROhGy144mZ3nf9rNJ1Uttdl9Bzt0yglOGjICB5WEA5FwzKVPfDAE6wpNAdFFso+7ryJobqSJsItExydmr00XLTWPIOXu/vwENJmeSIa6InIEBYGBGGAA5z0FZXnSaIDhz30tXm9S3SzkHhB6NOxXhsgmAKp8qw/sDcuaTI3zm2MBn4AEY6IMBkHNEUhUCqIic48g5BkJItnysKeINy6fK8DpAzrHMuXzwGfIBBoCBMgyAnJdAzpRO5mvOyXGlyJOAEt7TRCyjcbdGPUNypg1hp0fiWlImNH5c4TSBAWCgHgyAnOfgsLsiZzUGQ66UzjZXR6wGdGEKnBN6cO/hp7pOV8dE5EyEujInhNmr+flUc00cnYb3cqeJ0WljZ+Loej2GBycIXQADwEAbBkDOcyBn9HHQRha1qWwFcm5zBLgHogAG6sIAyBnEN4j4qjdo8zvoFX7nvGw9w46h34VhAOS8MIVWT5YTyltHzCtx9uAaHNeEcgcG64rAoI956uPCu3fvxOXLl+G84LyAAWAAGAAGgIFKMAByrkQRmN3Oc3YLvUFvwAAwsAkMIK0NcsZMGRgABoABYKAyDICcK1PIJmZgqBMze2AAGAAG5oUBkDPIGTNmYAAYAAaAgcowAHKuTCGY3c5rdgt9QV/AADCwCQyAnEHOmDEDA8AAMAAMVIYBkHNlCtnEDAx1YmYPDAADwMC8MABybiNndsbzye1NKTY4E5ufdd3Wt43eY2dX44URiCg2irVN2RXqBRnPGwMg5wLHc+3BmVit6KULm1P451d/Ey8rIGc1XpAySLnANkAAm/MHkO1uyxbkXOSA5JuNNv/ihFrIWR57iSMvd9sxgBigf2BguxgAOYOcowgR5Lxdo4RThPyBAWAAx3dOQM4qImbvWX5+9WpEiNIYWyPn4F3LL/dfCPeeZQ3kW1+/EPJ7+gvvlxo8yBmOoRQrKAesAAObwQDIuYic9QapdVK9mph/ErdsO9+Kh/svRIqg8+Ssn2kjW0XMfL3akHnbM2mjkin8ldjcBrjNADk9FrQFuQADwMA8MYC0tiXNbgXqjWF9iCtNqjkSzn3fNLqel19/m4y4G0XEv4l7F/0xKMLOPRONW5PyFBvf4Cx8PUEekAcwAAyEGAA5RySVAsm6kbMhVZZqppRzald2npxln4K6OOkmUt62HV6uaKyInEMjwf8pm8B3wAUwsEkMgJyLCWud3drpyDmn0HZy5oYQRNKZyDnXTtf3WHPmssbnLrzgPjACDIyPAZDzRsm5EXqTFl9zziuxnJxNvTYqNgeZ8DXnonGl+wJyTssFDghyAQaAgakwAHIuIrFhv3MOd1HLlLPdEJZNSbM15FSZiIiDk8ZMKr3/hrBGgJzhgKZyQGgHWAMG0hgAOU9AznMDH8g5bSxz0yP6Cz0CA/PFAMi5gJynOr6zFkPatfHWInf0Y76OFLqD7sbGAMi5jZztiy/W2Qw2b7DK6Hm1WokVzthO/3ytDTe4B5kBA8DAQAyAnAcKcOzZEuqb96QG+oP+gAFgYAwMgJxBzpjhAgPAADAADFSGARzfWZlCxphxoQ7M3IEBYAAYmDcGQM4gZ8yYgQFgABgABirDANLalSkEs915z3ahP+gPGAAGxsAAyBnkjBkzMAAMAAPAQGUYADlXppAxZlyoAzN3YCDGgPr9/i/7IKG5+Dz5U9Yd/iknyHkWQH0ibp2/F4f09+wJHMws9BYTxC6R5p1nj8X5+WPx9G4FclBnFoTnFei3zanf82/7N/133zj7Pn8vbtUgs63bmNHPjk6oQM5bB2A/x/XZs/fiMEnOAYGfvxGfzWxsPnHp8cBJleDjE/HolSZCSYbR37MvxpvM3fhOvD6/Lx7d6O7XUHL+8vi+OH/1nfhyKI6vH4mzVft72FVU3RalmTo2H8m14D4g8LQf6NaLb2dbLK/G0+Wn9Ctszx5cGw/DQ/E00fMg54kEPZZBpMn5trj56r04OL5tAazKvToVH/UZX1VppBYn1WdMO1dWE/Xr408sFsbCnqqnBzkPbXcsclan3bURb9OIPDmb6O30SBzJU/M66hk65qbJ4P7GqTg4/0vctJMiXY7bfFHbNdl4ETkb3axOxP6O2TLIeWYKT5NzYvargM+NOVEmGjul+WowhIyTivpcMq5dKgNy9kiqIGqW5XPkLL+nqK2E5L2218JqOe7XmoA3Fdl4ITk3zW5GzyDntQxoe85+s+Ssx6XP1Q7X5xrRkDGpWbxbAw9Tzx8d/+Wtn/HZvep/uKam6jWRf1C3XWeX6+19MwGDdKtJ7undL8RTkyr2PzsMqAiPpZPDqFWld2VqWUWdlHY+EHd4/+4exOno88eC10VpYkpbp9dy0+Ss+phMbwflvT7KvgYp7ILI2ZdH8DyNOWrHrU2H46Txyqs/ZqcbKsPlpYhSrTV3TzZz5MzJdhnk3G7jynalnRmb1PYXT/LJjsk+uQ+ge/w77Tu0jYf+geqQV+4rItln1p61v2pftuB1zeUzyJmcxUyupeSsyg0gM+WswnU6a7BunUgbWv5/StNxo/OeMWTM72vjKY8gUsZGBms3+8gNP+ovMelI6l6TFpETEYYkB0u2TSM0EXGi1YTBSYKePT+ncqZuIktDVI54MnXw9dfoGZosBGRLY5Pkz5+n7xvdlmo7UaceHyNYVYb9b+uh9tk1W5a12fK8ajvZZ9lGZpxBfSWkK/FTUq4ucl4zrc3kk7JxS5zMd4S+JPy/MTbMybjIxmmyz/qUsuUu/ZCtn9xm2CuoM9dWLd+DnGemxBJyJgPjxiIBRyB2hNVBVCrqWIkVzViVMQWzaM/A0oSq+sOMXfZFj+NUrZWnN7ak65rOcHwC5YTsPqdJJiQVTc5EzNqBeGVU1Ozfd200JuKOCdErY3GcIS3ehkeacgy6blVfRIZBfd6zHc4wW1bL7ZwmJ7bvfn2ejKIyRj9Rf/06Sgl1XuSs95gcRps+dfrX2XfBGnlg4x6pGpl79quIOPAB1p79X5F02rjnO3y9hXauJxLdGZDwuTn/D3KOjL4dJNtWdhc554i5b79Ts2qdmgoM0zMwTag8TWU/B+RMEXU+VT0fcqaUqndlpJEmPYYzRWI8ZavJy0bf5r5XP6XRI4ILyJTwzYhSkt7rV/d1ylx9rycGbWRviZTV04mp1rKGoLPjMFkJJse4PUPQVEeibAnpynpLypUSfdxPpmvSR/bahfscMfdpQ5dN2XgZObslLWvfctkp+hWJ8QeR7Zu+er6jvf8l+hkm9/b2t1H3hbdv34q9vb3N7OzMArA+QWxD+Ou02UbOYxGzjrATUbUypm5yDiP2eJxud3l+PF1Oqh1DcZZgzbS2IT9OXO6zJhiXjk73qZScOflaYpY21EpyYZsZclbpaxkhy/sH4o6sU5IZS3e7cfE6g/r69KW4bDqSbo+ceR/lZ0PUIUEvas15PGLO2XgZOQc+IOnnC2y8Bzmr/lIGL9leiIf5/4/IeWaKzpHZOMTcsZOzk5xNujpKt/mGosZgZ9OahOM1Z+OIotm4X1dM/GPdN86+lZzN+rNdS0633UXOaVLkdWWIJ4ndgExtGf390+PvxGs7pvvi0fGBsFGxSn3zCD6xpl5MuP0mFUkZqP7E6fyczpNkPnC3Nm9LEUT2p1RkO4lJrdUB12nuc25SOhYxUz/TKeJOcm5MP6z9psdRZOOJtWoub/dZp+tza8o0Eadd9e65dN/mch/k3MtwtqRsRYqpVBJtxDLpIzpBjF87jMgDqowyss6HdmsHs+bE7FcZJu+D3YVJDiZVRyItZozXps76jGWwXsvIWcpPEQulVs2VR75d5NyYTVk8clafvSjQ9CdoJ47ac+RM/WRkZ8iY97Ux37m++Gvh/o5z2nn+2BE8RbBBP2V9th1F8OxZWdYbq7OzULZuvEFaXLUX9NVgIEuqdLCI3SyYyK7QmmxbGd6OLLdGhJeyGYV7mpxmfUB+h7Nn22QPHTbeTc5SN2THvk/SGTO6V2bjFFSQjceT9EY0XdkP0lGb76Lxz+gKcp6RspLGhv7PfEnGnwQ4HWvysYQGPa+v58Lo2cneTQ56fWfaWVoE10sGo+O05DfOZiMcyHlN4I6uNPRju0YD+Y8j/ww5J1LM47S3o3pT0dXQlHO77HR6dbNt7BYGTAq+IxOR2ti2BDkhcsakYf2IBLIbR3apNG94+AdkPVjWyol3OPq1nDqlVXfwiMm15FWKZSnX1miYfjq2zAkRyLkUKCg32Dlu1JChH+gHGAAGFoQBkPOClAnya087Qj6QDzAADMwFAyBnkDNm28AAMAAMAAOVYQDkXJlC5jKrQz8RgQADwAAwsDkMgJxBzpgxAwPAADAADFSGgQvv3r0Tly9fhmIqUwxmpJubkUK2kC0wAAzUjgGQM0gZEzNgABgABoCByjCAtHZlCql9Nof+IeIABoABYGDzGAA5g5wrnDHT4QLmrONNHBwBvVeo9807PJAKZDwXDICcd8pJfyse7r8QDz+dj4GqIxGT5BwQOE5nAtnulC3Px4bnQoa19RPkvFMGvRRy1mfu8hcMZN88tFP6hcOuzcGiP8DkuhgAOe+U814KOScMfoIXG6xrZHguoa+dsjuMHzbQHwMg5zk4iYs/iuf7v4l7Fxtx6+sX4uW+/nt+9aqXyuT3ZBmbvlbPu+foeXX95kfxuZKBJm6/zpDM3f+fX/3N9uPl19+aflwV9755IWQdXl9sG/0Bmk9rB3XlyJleSpBMjQd1zAEL6KOHeTh9YHipGAA5z8HZMXK15PnpT+KlIWwJTkWGnATNM5agGQH735Fxl5OzInUiZK8dTc7yvu1nk6qX2uy+lpJzNq0NcgaZzcHG0UfgNMAAyDkQSJWzMEOAjvAkqbkotlH3dWTN+68Im0hUjZM9E407RaJhef2/i5RlP1y0TJ/z97vJmPdffi4h56W+zzWUBf7vjx/IDDKbKwZAzhFJVQhmLzpN9M/c99LVJvXtE2VItryucnL2Jwm8DhM5exMCTt68bNnnLnIGMZfJca4OCv2GfncVAyDnxZBzHDnHoF4WOYOY4bhjjEMmkMkyMIDjO5dAzia1/JKvOSfHlYpsCcjhPZPC5hvLOtePwzpk3ZuJnIuJmdacT4/EtaRMaPy4wqkDA8BAPRgAOc/BYXeltdUYDDFSOttco81fYQqcE3pw7+Gnuk5XRyr1zcE8EjkToa7MCWH2eiL21VjDA0hYuYiEqeyZOLrO+4rPcMTAADBQLwaQ1p4DOaOPg3ZyqnXrFcgZjrheRwzdQDchBkDOIL5BxBcCqrr/rx+JMxl543fOy9Yz7Bj6XRgGQM4LU2h15LhF+eqIeSX4MZ+QDyIUYAAYmAMGQM5bJI85AAR9hCMDBoABYGB6DICcQc5IhwEDwAAwAAxUhgGQc2UKwQx1+hkqZA6ZAwPAQG0YADmDnDFjBgaAAWAAGKgMAyDnyhRS2+wN/UFEAQwAA8DA9BgAOYOcMWMGBoABYAAYqAwDIOfKFIIZ6vQzVMgcMgcGgIHaMIDjO9vImR0jeXIb4K0NvOgPMAkMAANLxQDIuY2czT39kgU61xnGsFRjwLiAbWAAGKgFA0hrF5Bz08iXJ+Bs5lpAi37AgQIDwMDSMQByBjljI0gRBuAMl+4MMT5gvCYMgJyLHDMi55pAi77AiQIDwMDSMQByLiLna+LoFC9QWLoxYHxw+MAAMFALBkDOReSsAas3hq0Edm7DgGsxYPQDWAQGlokBkHMROSNyhgNYpgOAXqFXYKBODICci8gZa84w4DoNGHqBXoCBZWIA5Axyxm7tIgws0wHAsUOvwECdGAA5FzlmRM4w4DoNGHqBXoCBZWIA5AxyRuRchIFlOgA4dugVGKgTAyDnAseM4zvrBC+cCvQCDAADS8XAhbdv34q9vT1ETymSti++wNGdSzUAjAvOHRgABmrEACLnFCnjO0zWgAFgABgABraIAZDzFoVf42wNfUIUAQwAA8DA9jEAcgY5Y3YMDAADwAAwUBkGQM6VKQQz1u3PWKED6AAYAAa2jQGQM8gZM2ZgABgABoCByjAAcq5MIdueraF9RAzAADAADGwfAyBnkDNmzMAAMAAMAAOVYQDkXJlCMGPd/owVOoAOgAFgYNsYqJKc939ZidVK/p2IfZAnZrTAADAADAADO4aBKslZz1j0O5RXv+wDlDsGym3PWNE+oiZgABjYNgYuvHv3Tly+fLlOApTHZ54eiWsgpzr1A71AL8AAMAAMbAQDIGcAayPA2vasE+0j8gEGgIE5Y6DitHYjGkTOIE5MnoABYAAY2EEM1E3O14/E2QpvhJrz7A99R/QCDAADwEB/DNRNzmq2ZDaGYec2Zs87OHuGU+vv1CAzyGwJGKibnBE5g5BByMAAMAAM7CAG6iZnrDnDKHfQKJcw68cYEL0CA8MwAHKG88cEABgABoABYKAyDICcK1MIZpvDZpuQH+QHDAADS8AAyBnkjBkzMAAMAAPAQGUYqJiccXznEmZ/GAOiGGAAGAAG+mOgSnK2L77A0Z2YzVY2m4WT6e9kIDPIDBjoj4G6j++EYwY5AwPAADAADOwgBkDOO6h0zGL7z2IhM8gMGAAGpsRAlWntKQWAtmBwwAAwAAwAA7VhAOSMyBkpM2AAGAAGgIHKMAByrkwhtc3e0B9EFMAAMAAMTI8BkDPIGTNmYAAYAAaAgcowAHKuTCGYoU4/Q4XMIXNgABioDQMgZ5AzZszAADAADAADlWGAkTO9N3klVjj8A0CtDKi1zWrRH0RawAAwsEkMMHImQe+Lk9VKnD24BoICQQEDwAAwAAwAA1vAQIKcG3HtwZlY/bIPhWxBIZuciaFumoDiCiwAA8BA3RgAOYOAMQkDBoABYAAYqAwDyeM72yNnWps+E0fX6555YGYI/QADwAAwAAzMEQNJcm5un4jV6kTsJ2cSIOc5Khp9hoMCBoABYGA+GEimtbUC9cYw7NyejzJheNAVMAAMAAPLwECanFsj52UMHACGHoEBYAAYAAZqxUCSnNvXnKHMWpWJfgGbwAAwAAwsAwNrkDOtOa/Eye1lCAFghh6BAWAAGAAGasLAGuRsfge9WuG30MkNcwB4TQBHX4BHYAAYmCMG1iLn5vqROAM543eBmJwAA8AAMAAMbAQDCXLuPr5z/5eVWK3wO+c5zsbQZ0QRwAAwAAzUjwFGzm4tOXt0J0XM2d9A1z9ggBI6AgaAAWAAGKgdA4ycoazalYX+AaPAADAADOwGBv4fj087DgpeCLsAAAAASUVORK5CYII=;" vertex="1" parent="1">
          <mxGeometry x="2051.5" y="672" width="487" height="266" as="geometry" />
        </mxCell>
        <mxCell id="gYu7qt-4oHGNPAb3_qpJ-15" value="" style="shape=image;verticalLabelPosition=bottom;labelBackgroundColor=default;verticalAlign=top;aspect=fixed;imageAspect=0;image=data:image/png,iVBORw0KGgoAAAANSUhEUgAAAVgAAAAgCAYAAABXamBYAAAJ9ElEQVR4Ae2dzWsUSRTA/XP6unhyD16EJHhTD4lzkGAMMSyRnUWISYagQ1wDa1gwikhGWWZllYGESIKHGQ3maw87aFyYeElOHjx59+Zb6uN1V1VXdddkejYzk3cYuqdTU1316r1fvfequnNq99d3EH1qsDL8Mwz/EEDwwxX4ZbgC79S/367AgwtX4FwQQMA/52D4wu+wclut4x28Hr8JYz9iGb/j4I1ZeFkpwdS1Plm33+9EO6gsyYF0gHSg83TgVKcMCgG285SjU3SD2kG60a060DGA7bs2BaXqBizPTsBg6CGTYnWrYlG7SXdJBwLoGMCywWBe7PJOAxrva1CaHIU+Ai2lS0gHSAe6WAc6CrA045HXQzpAOtBLOkCA7eLZsZcUkfpCYO1FHSDAEmApBCUdIB1okw4QYNsk2F6cjalP5GWSDjSnAwRYAix5L6QDpANt0gECbJsESzN9czM9yYvk1Ys6QIAlwJL30kYd4Pu7Ky9h9sYgybmNcs4MzkMTMPuiktk20QTAjsOlYgMWDr9DiX3qDbiaHycl6QYlOcFtvJwfh7V6Berr45DPHbNXyIx1ZQNqT6dgtB/b0gejkyWovW9Ao3HMe75zd+Dq+ldh34ffYWF9ES4dt8yOXXfl+LxdzmRSTAAsKkQAZ/OLcKtmA6wB4cOvcKt4B84eu5Citjc3s4n+zJKieUykZ+D6zDRs7Vfg8NDyqc9DMd/vUY/HWA1chEJ5Ad6UR+D6QHL5VgE7MDYC5eoClGcuwkAretw/ClNPa7CxMgsTQ/Y2c+927bXbW5J17LX9wZsEvTcg3PWOFu/PQQqnBmFidhk2qq2/G6UFwA7B+ZltKFS3ITc2xA2Jg3jnM0zMTMJpX+XM2CVvDqim4icomm9/TmQ5Ads31WkojJ3JBqqqHJsAbGvjH0BWgOVPJb5NfiLRDVjpRf1dg9pb8Wnvk40OvR+YhFz5AArl+3CeT2yi3N3NyOa95N1JNu4F2ACyenS/BcCacAog4I3/AnPhgFjKqIbDzzFk2u6A9xA4FC3WZp9+naQyBFgNNB7eKyvvAiy7/viPx/zNcj6g1u59JF311/sjOVFBB9m4J2CDIBsvtgMAK0Ak3kOwZ+SrENoHcKv8EfLlz/BQ5oTNfNHpsfswsfktzCc9VGZZrhR1I8fEBf0VeLl7LyCn1M1zzph73m/SIz+SgiOMBaheLc9DdX0e6ocsl6ieR3lF7mltPg/D80+buvfIQ+XaPBQf5KFQXoRPPIxfgrViDi5jG3M5KK4vhXVgqK/WhSE3/s2e27QDlrdxtWhJFRjluYeKbWTphuewpaYDPDxYXR7G77G/sftEuVqzn9hfdtT73A/5ohgbLKPKi8OO517XUh0GF2BVYPYGYJNtnNtu9QAmlj/CRJgT/hZz1NCO0T5VBuDf1GvC4RM2PvrXG40PWAc7qqyIyX7dnosVvGrAdkIKiNWVKWCPNrshXNAt39MbLUFYUvK7AqZfwjyK+T0I4qGMVoaHPp9hQYGwEKz/TK4OBJ6j0PniBVvACD+WiQONXjsK8GztC0A8eRAt2JT/HIc1Bsx8vwhjNx8psBRGv6tANgIGQlXWvSNzoxI2u+FikKOOncUoHxn7DY6dAUzsEwP48lz0e7weiHtV2b2nWX51EaJ2yDB981kEWQ/A4hgEzrLKPRMWcpJTBI5+hv0S8vABJ2uvT7nOAmzcrkK5GzJwXed9ruo2LmzzG5QUZ8Zkifk9kDZ8V1kv8bJxbw82eXzQ1v83wKKQtBlEfUOWL2z47L8NjR05c3CBGGkHTUh2KPL2sFlRyQfzQap9hrkd9nEv2h3fIpcOwdALzfdDdD7GPSgOJwUUJhgEYBGuwvC1Mtx7XVAgHSj36AcXqKJ2qAtYDvCo99DAx2BXhFflEeCTiApxbqhGfdpvEeqOo7OsAGw9ZfFNk1EMGnJ8PiiTTqyMfCtcSv61+wAr1lzm9s2FbBFKb4f27bEzwrBxDYxSnpr9xnLBYuyFPet2nGrjGjscOiTbICaD1l6hmokH64KraxZzXbfNbta8riYkAdhwOxmG9uyozIjinrJs7DoK2g5rV3uzv+4PWJY+wBA1PO5Hhs9BGAMX9jOQAFU9RwGg0AvmoFLDduV+MUgZQEToKLCbvzcCpeoz+Ld6Ewr3RqBQnoOVYg5+Y9uqpGceyVOXgwv2UXmzX64dBxKyKLtYP3wWuWTbcPeEInNsj49nysr6lOsMD9YFV0XuOOYpR5uN+wE2Sg+q4X18V0OKjWvsSG6/z/jgmLuOLQM2K7gKl9sSSnOBNO/Bxjsc7XrIr24nbjs7qgeLYUOUGsA0gaVfVkXUwaJ6i9G53YM1++sLWJGbFfDUcokKHNO2RgWBA7A8FcA81ZvwcukneLI0BytLBSixtIFMHUwlADbcldBMW7zL2j3aZA/WNEg5XqZH21M52Ozg6rJxP8CquxnMccDvHjbeBGB5ex05WNPeXN9bAmw2cE1ZYUwFrNynWzdDFxS6OOo5HDHLxbebSGWypg/0+lwCbe26D2BluqCuh//mfdMAGwFbDfXVPjrgkTAxhEAMy4g6XlUXYXc1DwWe6hiBJ6uPYGt1Wix+yYU2dSGJQ07NMXtDEz1zlwer9s9IiWCbeXseRflfvO44WoHc4i4CdSy5kTvTDWg7vhO43v/oPq7ILSu4YjvtO4VSARvIdnxIXnD2snFL7jaSgyofkfpYcyxioTO1l7JX1g1YDrboKY/ILUeQSVdcDcnx3BmCqx2Q52y2T3o0zQOwTEBcuHX51Jlsh1gdnOf7def2jVVJ7J/5hJocANytEE8zWPrgMD77wCX93g+wrF4OyLoSth9WQPVA0wAbyIWmWKpBC3llezAclqG1CkPRR1EuDlhsp7KqL4GqtjWQ18JUx6ExeXDAWtIVYYhvbyerL7yPrQ6tr9G4mLKN+mukGGw7M6QuOMGIDw+oOUt+rkASc5RJZdT7sP8CgmsWTeiizWa4naNNoI2gXStH18q7VedTbDwdsGxsEPa6jYs1H/ybn42jY4hMs/YlLQrBMUp5CMQN2CYGyipU+n32G+4zk6kO8mj8jDxsZveL4BXdq8eveXqxLctD3uefFE+q5fucKF3w2QMrF/cIsD1uyEdSfAdgLeE6GWYL+sO9HPNdBC3UZxlrEaoq3q+lDI1hMzKX6YyUdxHYFutsciYP9qQqpC1kNjf4n1TZZNhvbojteJsWhqgNe17TZux0zQO0TK5JKUv5hNd2w29SI8BmaEykwB4KTPLu4NQRjV/WNkyAJYMngycdIB1okw4QYNsk2KxnQqqPvCvSge7TAQIsAZa8F9IB0oE26QABtk2CJW+j+7wNGjMas6x1gABLgCXvhXSAdKBNOkCAbZNgs54JqT7yrkgHuk8H/gMut6E7d14RAQAAAABJRU5ErkJggg==;" vertex="1" parent="1">
          <mxGeometry x="2538.5" y="830" width="344" height="32" as="geometry" />
        </mxCell>
        <mxCell id="gYu7qt-4oHGNPAb3_qpJ-16" value="4，4" style="text;html=1;align=center;verticalAlign=middle;resizable=0;points=[];autosize=1;strokeColor=none;fillColor=none;" vertex="1" parent="1">
          <mxGeometry x="2765" y="798" width="50" height="30" as="geometry" />
        </mxCell>
        <mxCell id="gYu7qt-4oHGNPAb3_qpJ-17" value="" style="shape=image;verticalLabelPosition=bottom;labelBackgroundColor=default;verticalAlign=top;aspect=fixed;imageAspect=0;image=data:image/png,iVBORw0KGgoAAAANSUhEUgAAAecAAAEKCAYAAAAo150IAAAgAElEQVR4Ae1dO4sdx7bWz+nkOrg4OCAwBwwnMPIEOlihDBckW0b+A36IwwnGAmmSgwMFgxBjMxJScmBsDJICJRrwYASCjRPND1DqWKC61GNVrXp1V+/u3bu69xcMvWd3dT3W+tb6aq2qXX1BCCH++c9/ig+++kNcOfxVfNg0olF/18XFgz/Fle9/yPz/g/j48E9x5fBP8fEV/Ux3HVS3vOrn6VndJr/f6D4d/Cw+sH0y96/8qtq99NV10zf/OVeXGcPhH+Li33Nl8L2TF2QBWQADwAAwUAMGLvjkrMlWEq78i8jv7z+LS+aeJmVNfpZgDWnS86k6Pvzeb8OWpUlA0Ia9HxJsopzthyVzkHMNIEMf4OyAAWAAGOiHgYCceeTcryIIHvICBoABYAAYAAbGwcCFd+/eicuXLyfS2uM0AEVBjsAAMAAMAAPAQD8MgJxtCryf4AA0yAsYAAaAAWBgUxiwae1NNYB6AV5gABgABoABYKAfBkDOiJw7drz3AxQMEPICBoABYGA4BkDOIGeQMzAADAADwEBlGAA5V6YQzDiHzzghQ8gQGAAG5o4BkDPIGTNmYAAYAAaAgcowAHKuTCFzn+2h/4hYgAFgABgYjgGQM8gZM2ZgABgABoCByjAAcq5MIZhxDp9x7oIM939ZibMH1+BQYb/AQA0YuH0iVqdH4tqIfZk1Of/PvZ/E3u//Ff+4d2lGAL0k/vZ83T7Ls8LxEo/pyfcL8fT8sTg/PxB3RjS+dcdx7cGZWK1OxP6afZmn3XwlPvr9v+Kjf68xeZPn8KdeoFMkvyfi1vl7cUh/z55U72vmqd9t+cWx9HtNHJ2uxOqX/RHwoeuqkpz/98l/xd6TrzoHORyELQb/f/8S//j9v2Lv+b/E/zAjLu1b3vGuAULmXD783pCzfMkIvSyE9S/f7hpObSv1EhFKMoz/Xh9/0omLYhnc+E68Pr8vHt3okg31aX1y/vL4vjh/9Z34cqhM5Qx9dSaOrsd9LsXmPO2mxVYzMpVvydMv7/lBfGzIWb54J35BTizLFIY+e/ZeHLaQs7p//l7cultWX6qNtu+Wrd/t+8W8fm+Lm6/YBO38L3Ez6TP2xclqeEZLTb5Pj4Q9vrMNFFPfKwXh8H61GLwi55/EP577s/XhfVsDhE0j9Nu8fhUffy//5Ju9diGC1qT4dEPOrikm5+HOdhxybp+dD8dm6Ti3YTctbWbImV5Le0XZzK/6FbdrR9CNyDrvu29UZH3r+FQcVEDO8IulOPbL5fQbfv/R8V/i8PyN+CyBu6FZLak7WrICOedSZYac/3bvP14UP9wBrkfO2uD0O7CjV3kmQDLcQH3gbqc+kLMn95aoWZYbjs1SnbcQ5cbspqXNLvyrV9kOn8yGTlrrRqZFjaO+sTvkvES/mNZvwiZa9Tw8erbkTO9z9pxAF9g3fL/Tyfz7P2qtWa43y7/cOpSqx5RRZSlFTSlrfo8+e2V+En/7P0mm8qqVFPUtqsuVJZlSGpH6K6/+Orl2PO7+f8T/BjLWkfMf4tLBOpGzJLn74tFdmcaVqeLgM0vRqAiPpZP9NLIjS6/csy+8VPOdZ3E6WrVp29H1uLR1Ll3s2iNZyqus3+8XGVBQ/u5BkBoP2umMnD8Rj16xsWTS0p4sgrXptCx0nV5GQPWFtXX+WHj3m0ZQuiu36STCZoChpshuQiwyrEZY1/YX21aB3QR92fs9xnxkv5Gth30N69CT2SsHf4hLMnqW76LfRORMcm512oTR9a/j6NdM4sjfyavn85hOs2UK9BthpUa/6OtiHHLWke+Qted5kzMZQ5OfTStCJNDZ8r4ympbnGwUuDShZF5GpZyAGgHxyoInYAVH/z51GGDnrMVD9knyiZwavORMZSnIiwpFrrfozEZ0mGU5g+jm63zRUz2NxToRsSIWIJKpDESRf1w3rbET0jNWXLkt1E0Gr8tS+LdsIL00dtatJ3dvU1UnODi+qzRQ5q3a4zNwz1F95zT6v+p8eJ39efpZG22b0Hja5XKLPObsJsZkey2C7UcTsbESOTROxsxP1v2e/YZ+77WbqNedm2+Rs9RzKyulR+RZPru6ew1v++WX5RX/speTcltaWMuyaRDs5++3r73XkfXK7EbPeENbmJEKSTAukDIS6He04uAOMHYgUNndwqfr5fUPEkbGknpN1r7tbmxMiJ2T+OU0QPqnoMpaYlTPgdRgC9IjTr9evj8Dpl3G6Sn/v1cHJUZEtm4B4/ZBtBfWNRs5xlOvGoMfo9dk6UX/8vlzpHl3b15tlexybYfv+/zl8aWzaSCrqJ/Ul93wjuPNO241pI9rwyepkE2PXb3afJrCldsMmt64+Gkv5tdN5z4Wcf/cnRrFMfFl79z3dyHJz9ou+7jv1K+3B7C84OL7tZQu5jNZbd9akzH+FsVhylsLSBE1pmhQgS0GoHZ+MkLkD5J+dcpjz8YBMQEiQM08fsc88Inf1Uz19rpqUdATMyZR/1mVcqpmlWG3EyOtJt69IiP/kKIhg9X1WN0uhhxFyRKZEFoyQ7zy7L16/MuQov1d95ePi/Qz6PwY5K4P10+fxOLoiZ9nHQP7RxGKKyFn2w+CXcBgRoCwzxG58/Dtc6zpVBklF1i6K1mX8Nn3bJhvX1/HshmOnZUMY4XIG5Cxl6ctul/1iT/0WELOULyJnZRC+wTpD94XuABkCseX5kFjl/8//Jf7GfubVRs46TZ2q33dOylCSDjAeQ9v42u9xUuLExT/rMilicXXzetL9i8mXp7RLSIrXm+mTjZC/EE8lGUtSfvaFTh0rUuPjaqlvLHIm58yIOpRje+TM+yg/63GHkXSX0afxGNYt/0/hMlXOEHWEz5bnO+3Gx7/DFqszrCNh69PYjS+TzshqJuTsZE5Evat+sYd+C4lZyrZr+YnLP/V58WvO0aCTBm+cT5RiC9NzUomyrP5plf0NttnUwmfqelZKs/6wfvM/3xCm+sU23XBHP9pnTqqcuPjnxJps1D6vxwe2lneGTHk9ihBzG7rCOnP1ye/vi0fHB2ZjmBzHgXh0fN9uFNOTBH9ioDZn2SxAsEbN+5j4XE6umT4HGYQIn0Gbqq9h9Dzabm1GhEG7Yb/SJBjimuktsrPYbrSN+ISgJhZ2EqD75/Zh6P/lxjNra5PYDRtXM0LkrPTXvm8glD//f/zJV8rPyTEP0y9tPLS6stF6bX6xUL89iLlp3Jox112fz/WTM6XV7NUZswKp/Z6ltBjJpspwsFhhGSO3O6XJQUROphEEOkvO0rF17jp1joWci+ybczxkIGwcamwEZB9Att8dTtUvpwmjPa2t20ntLg43hLn/E31TJBSnrb1nDEH7KfTUpqoM0dlNbe4Zith5xErf2XY4MUv5JfsRb3azz9sUvCP9qI3z/MQjlK3ta6ofYV+VvtvXnVOY32Pri+n7/MAfH6vaJjI4HGg3mqAZ5snuCNde/dL2NWF4NuyVoboy/aV6+16NY7YnhNFJYfTzqSY8oIIdVhEeWHL9SJytVtlDZHybjW0rrT/4xS65td4fol+LAaYrNQFb//Q+2deqyblVmH2NC+WzGxdGl7MhGUs6JPueUePo/aJ+LOHaET1DdsxRVqhvlfIccPQq9Fuzfof/xlnqF+RcoeHO3vAy5KwjRhflzn6cW8bOertBa3ZqO9I3ipxHOX95R2S2ZVsr91XtWa3yesyGstVJnT+l6jMQlK3LSFNp3lHOlJ6NkU6jD5pdA//TyHuYnI3jHuHc5WH9mIOsZtpHmdEa8a1U0r6r/CkVADhTgIJAp1tCgKwha2Bg0Ri48PbtW7G3t7foQYLsQfbAADAADAADc8IAImfMPjExAwaAAWAAGKgMAyDnyhQyp5kd+opIBBgABoCBzWAA5AxyxowZGAAGgAFgoDIMgJwrUwhmoZuZhUKukCswAAzMCQMgZ5AzZszAADAADAADlWEA5DyxQtQBEjiEYBJHAFkjUppTpIS+Aq8cAyDnAnK+9fUL8XL/hXj4aQt4Lv4onu/rcrLsy29+FJ+HdSePXnQHFKzkubsj/pCdK3o3P49znN7uyA5Y3B1dt/iy0G/h/0mCiRB7IOcC4HWT87fi4f4L8fzq1bwSzdF9J7fzRtH1SsCGjv+rlsB/EB8f/imuHP4qPmRy/eCrP8SVg5/FB00jPvz+T3Hl+x8COV0XFw/+FJe+um6+D/9PyOzKr1E7IbjV/wVyTz7H+j/G/c+v/paesI3czhh9lXW0YVHdUy9wkC9xWImzB9cCfSb0Vek4x5IX6oHOx8YAyHkMp/HpT+Ll/k/iVktd6sD7DlLNO0QT0ZweiaNfao6uNTlfOviDEW0jtkrO9H7VDtmPbVhhfYsh5/CtO5VMfkJ543+Q5dwxAHJuIdRi5XaRc6EDy5Gz/J6ikxKSL+73GGP36tDk/PFXP4tLJlKWfdk2OVPGoS1rsWmZLYacPX1LAjATR+yjQPYgwgYmCEP8yoV3796Jy5cvA1gJYCmHateRfxP3LnKwXRX3vmFrzLZcYn06jDYSbUkl5siZK3gW5HxFp68/vqLltXVyNgRCExwuz/bPerlC7jXwsPD1t569ePeC5Q1aElH7EDIY0c/7mRf1Hdu3oOqR7Xp7G9gzNEH07nfsk8jgsBSLWnY5cqb16zNxdJ3bDT63Yw7ygXw0BkDOLQ7KgkQ5vJCcmRGRY8zUVUK6sq2ScuuSs3qOrROqzWf8xe+0np0qUxwVmchZkrJcEzZry9snZ/2O1FXxOEi3mpwVsRIhG/KjzYExsab3H4Rka7HVEPEzoqXvQnJW5E7lzOSQ+qUwKCeGdD9dL2+37XMJFtXz2awQyLlNvrhHNoZrDgtIa2cI1RPYQHIuJdQSh1hal9f/kjGOUoaRcyM3df0hLv69grT22uvOhpyJAJWMNCnqzX8usubyThFx6jt6JiZ4Q6wROTvilc96dSpyDiaQHZNGaj91LcFi0+jd8PiFAQgmhSF8NwwXIOcSUhpIzmWObrOR8zSGwslZk7LcgT33yDm/C59F1kHKOvwpnUekAeaKyZmRdaTPyckZxBzpINAr7g8jp12XH8i5xKAGknNTwZrz5GltJVdJ1r+Ki+ynVJyonfH5pN6oqJv/tCph5KU/pVL90CnWddecu8iZUtxuPHF/l0XOIOY2XeNejH/IpL9MQM5TkHN2Xc5XWEmEPZ+0th6b/F2z/GkV/c65+fvP4tLhn4I2i0mjVYTt/TZ6xN85S/0q+a+zMSm9fswdjd7w5aeb+X37ORXZEvaCezqS9g+yUe1UETmXEjOtOa/ENnfJW/mTrHH1NjNCPr4PrkkeIOesseZ3Y0eRVMHaXpZUsxuxGJmoyFsf+OA2csn/WZnsOKYEXxgBN4LI2JKz7KeKeuVhJfTnH1pCkbO7nygX1aHLuINM3LhLJj1po+wmZ/lcakd2hJFEOR5xe3VIEpaYYmQ8CTkXYFHJMrVpcBWTsC3beyOe011aL7gPuSwfAyDnqUitMHqG0Y1sdJD79iIlInuQ8/Z0MJV/Qzuj6xjkPCWoVARcW7Q7MhlOKc/OtnQKtv9a85JlMt3Y9D4H4B0T7ukwtyRZg5w7Hfy4wFKpPkQSo88yU0YJWY+L3ZSMk99RxLw6EfsT21eyP+jDJPYG2Y9rbyBnGC4MFxgABoABYKAyDICcK1MIZp/jzj4hT8gTGAAG5ogBHN8JcsaMGRgABoABYKAyDICcK1PIHGd46DMiE2AAGAAGxsUA0togZ8yYgQFgABgABirDAMi5MoVg9jnu7BPyhDyBAWBgjhgAOYOcB8yY5e+I8TvWaQwfsp5GziAyyLkODICcB5FzcMQnO25xWwCnYyD50ZBRX9Rxo/Ldv+bPeyViKTDN2cnhb7aDo0ZxrnKpPLvL6eMw8dvhCM85GwYWB0y8u/FYrIecfvB9q35AziMBpO2tQ1OCuJOc1Ru2XohW8i6QSfascPusPp0rSc6B01yFBG/r2K6D0C/kCN+Oxc4PVy/x0O+s9nQcvjEr/D8aX8GLPswz3XKfQmbp91h7MojGOEW/cm20YFH1U99f4dCUVrKoV785vc/7e5DzSE6kFnLuMqBR+ll0XnXGIapneSpcl6vxiE39ess/xCXvjVnbJWf9hq34JRNdeh/3/nLIWR8xeiKOHpwJkPO8yWxcjG9fFiBnkHPv2XJZ9JYh54S8y+qb3ljo3dMXv+evuNwyOTeN2L68FkLOMoNjsjZYMpjevpZGpmOPB+ScIAsuZEoT0/psLh3cFpGqe7S+q67h+3+1s6M2Xu6H97sNx2/jN3HvIn8mrJ+tN++HZflzqc96rbk70l0OOX8g09cHP4sPFFa2T86NWhbov/bsMMrxEOqf35M4YVg0SyIOpwxHdr+Fft5/Zab+ztqOqke3y+3LPUPlgz0da+2NkBjuxmInOdNSTKVLMNxn4XPKb83vO5BzCzkrx2GdTiOalvVa5/gCEHS+6zl2ZppomVNs6WNkiMzxRfeaRmT7WdxGt6PT7fYr1032TK72xQqJd1wb56nTlYn7PXaXU+T8QSPXhGltuQJyjpYGmGxa9KhxJQnVEbKP8VIsEnmm2o3raJqgPCN5S8jKTqhfurycBPiEzv5vGWeM+24sgpxTusR3MZamkwnIOWfkGZJTziwxg8+SntkZbZ1M0F76ucCZBc+0AibTb3om3V4PwBWtN8v6uh1i05gd35VuxHHk3IhGbur6/gfRNLWQc/91Z03ORIBG52zymMZGCoup7whD+p4lXYXdoLwh53yZgjr62EQBFjvJuVd7JAtcye/g2h8LOL4zZ3Rsdh+l8fqQs6zfEDTVw4laO0yWHmTpb16uGNybJucCR6f72kXOdROzHINHzoqUfxUfVkPOfFNdmeFrrOUzMuVYDMjWs6ECYjW2lcd3QR1em13j78JiI0DOXTLE/WIf3AubebmCnHOC7CC5UFHpqCMh+CCSLn4u18/w+45+D29vjDXngcQ8eVpb61GS9aWvfhYfH9IGMRZFMz34pG6ibm/Hd4iL8p9SKdwNWXPma8isz7LecmyAnEP7x/8hpvH/UEwgrR04KCdQsxmFrzlnyw5wbCaK8FN8A4C9cXIu3S2ci1YGEnOLDpzuBsiP1R+RrNoYJn9aReTciA+//1NcsZvFZLuasC99dd3tgh/xd85yjGo9fY2NSYp8W8iZ9lR0Y9HYRiKD1DThPU3k/daPK4ycaUPY6ZG4xjAyNuZQ3zi2uwQ5gpxbDS3YLWpSzjYdZ4iV0tXu6tb1tEP009aR80vWk08/xsBL91P2J2yrPDpqMZKWdefsRiwiE3Jyq3izVq9NYa16a+l7j+cicm4MGTNybtRmsT/FlUP35xGzbE+Rs7tPZV05HTnT9+4q0+jhWHKTnrBc/H8nOcu2SrEYluOT2ODew081PkO7sf9HYxyHnDux2JKBiQ/P0XJf9dhQGNtprBOUgUxyGAA5R44BYMmBhX+vHB+iCBcdT4QjyH179qnJvv9aP7cbfN6e/uYme5DzRE51bsDo7q9JT1NEDDlunKixaWmLjp2ibOB94zjv9j1bxMGEfg7kPKGwlwc6mepDJDGNXiHraeQcO35Kj9e27LIteaDdGCObkAnIGeSMmTAwAAwAA8BAZRgAOVemkE3MwFDnNDNdyBlyBgaAgbEwAHIGOWPGDAwAA8AAMFAZBkDOlSlkrFkX6sEMHhgABoCB+WIA5AxyxowZGAAGgAFgoDIMgJwrUwhmuvOd6UJ30B0wAAyMhYELb9++FXt7e5g1gaSBAWAAGAAGgIFKMIDIuRJFjDXbmrYe/PZ2WnnvUlSiD7mJj9HcJRlgrLtsXyDnQeQcnGnNzxceVO/6RqneN81fUp/qR/AKy5fJFxh09SFzQtjdN+Lw/L39u3W3q56a798WN1+5sRy+OhUfpeQ5wXcfHf9lZXp4/pe4eaNmuXX17Ym4xTBy+OxJOlpT57CPc8gNHSSyqvTd4btMQhh72l5AziM51lFeKDFCXzrJ2byUIP/SgTRQQgPqPuNZO+A8OZODfiM+G2HcYf/G/l+R4xbJ2Y7nxqk4yJFzMDHKkl5F8v7s2XvR1s9Rjixd8xWbVuYVyQt9KvNPS5ATyHkkw6uFnLtAOUo/W95K5drPk7NyyOdvxE0VDa5JztLhTvjijTHJWRHOun3PkXP0vZb/wfHtdFSawb2cdE15TGUXOTeNfhvUkD4peeNM7F44cHa8O2RY25hBzhkn1VdRo5DeSH1p6/sY/eyOmqVBZ8hZRncmjalTtWuSczPte6HHImdKr669lhqRcN55KuLrG+1P/IKHbnJuxNDoGeScx0ibr8C97coN5NxBiJQmpnc159LBbaSn7pl3Qet6wnc1uxfSp+93g8Rvw71PWhtYWD9/v3RYtqstTYrdkUyGnJm8h5Gz7qcmu3BdUrdNkwDrZBSxvRc81a77wNaVM+ufw8mZJhNhX7vkHdzfNDkr/ehoNc5MlMtVZ0ecXHMRfAk5N2rCsL7cQM4BhpgNWtvAd9VlFkDOLaBUxMw3ebWs12bJWW2+CsmYG0v8YnlNtG3P8OeDz6qPecLN9rNFDr4Ba8fdHflNQ86ybzqyWgnepxTxRwR7943wSMOQt/edkUv0bLG8pH4M2Y2xGamYnLX8U2Px9Rngx46LJhMnYt9+14gSucoyfALUmLVw7ztTZxE5G/lx/ZaNQY6tdDKZkwO+L5c1ZDWmrEDOzPF4gs2QnCLsxO7mLOmZndH9Im5N2LlnvH6G/c/0m57J9jOsJ/d/0XqzNNJh5Ezp39VqJfRfR+SkNv2sxMquLYbt653X7WSVL7M2OVOaeN015lAPReRMu8zDJQOaJJBMV53r9qQHR4zryDV8xjnxPuTcna1x9RIpr/BK0+oiQvJFuHK8xp9BzqHzo/9NlEzpbO/ah5xlfcFPlzjp6iiZp5ndZ16uGMibJufiKCbvkGksqSiM7vW5piJn+bxy/LTmqqK3kKx0H/lPv+TnFIGvTc4KT0SKfhTaZ4y2bCc554g5Nn5bJ2Heu6Yj5yK5mgxEKFdEzn11gPLtGF22fEDOnkNiyu4guRA0xRFpEEkXP5frZ/h9R7+Ht1eaJpyGnNNrzkaPjMjiCM2QmLfGvIHI2eqHyK4jA2DLMyzy79iYQgw2zVjEbCYTuWif9SGWq9a7P8HJYyF+PjFurDkj+uU2sCOfL7x7905cvnwZyo8Ubg4Y4WvOURnnSMpJL0hZmwj9+dWr4+hg4+TcCEWIOcdtZZR3yEQqwyJnIrv2aFQ6/4PjU3Er+m1wTM66P5uInB1O4jSxu0dyab0yYvTLjUTMlIa3ywPp/uXlGpOzIuBzfyMe9b2EnFVmpBNv6X7KdrAhLC8b0gOu9ckI5GzJJKWc4AQws+PappsNsXopb1XGbchSpO3t1H4hIiJO1tNnQ1i6n7JfYVvlk4iUPMx3LevO5IjDlKbdOa3Ixe3i5eVSac+s0yj9nTMdzOFFyGYcdI9Oq3r2RKXCbdSX7euwE7r6kw0Rbyw329dwLDSmTJo+J1c5eSha26X2EnKlSQ7p9uD4iTppzeqXnmV91GXDZQepp9JMTR6vIOe8bHI4wPfblxnS2q3kvH0F1WokZdEz5Fer/ubSL0WsA3e5g5xhh3PBO+8nyBnkvGY63aSVO9KfHGz4DCfZCwNqB/7ANXpp32PVA1+xpq8A7nvh3uAM5AyDG2BwcuPQCM4TOhigg6U6Pj35cz/hGjZOHYHLn5C171FYx4nimWG6gfzS8gM5gxhADMAAMAAMAAOVYQDkXJlCMItMzyIhF8gFGAAGdgkDIGeQM2bMwAAwAAwAA5VhAORcmUJ2aWaIsSISAgaAAWAgjQGQM8gZM2ZgABgABoCByjAAcq5MIZhFpmeRkAvkAgwAA7uEAZAzyBkzZmBgJzCAw0hmRu6lpwAu1H5xfOcsFKvPK6bjEO1RmLPo+8wcAmQ6GlHfefZYnJ8/Fk/vVoCB5EEkwbGo9AYzYGAgBujce/Nq0rXPRd/tg45AzjMzxK4XBdDZ1vYc45mNz6Wtul+c4cpW4Py3KudPxKNXmgglGUZ/z74Y6GyZfG98J16f3xePbrDvMmMfSs5fHt8X56++E19m6i/Wf8tZ8FRH5ytB6Zz1BRB451iHyps9r7IVSXIOCDx7mJF+Q1rRee+sXdLrnK9Ia89MoVlyNi8TuHV8Kg4ybwDqBGpVaSSQc6e+ktjVRP36+JPxCJm304Oc1+u/I/2xyLnkHPg8YZno+tWpuPnsvThci5zHPe1sqFzzY3WyH9oGPZ8jZ6UTdvSvPsEtfXpb2z1qZ4lXkDN3PDP4nCZnSWTmjT5mhr9e5Eyz2bSRTGsAIOf15A1y9uRWEDXL8jnCkt/Tm7+U7a1FznS+d+Ebvzbsh3Jj9eQ2Uh9y5By11aqn3YyeQc4jgTAC24bqTZMzm/EOImddj5rVptJMKjp/Iz6jFJ955V84EVDGz14HSM5Nykj1P4zsTdSvygV123V2Wd+6jnEtXWiSe3r3C/HUpIr9z07mKsJj6eQwalXpXZlaVlEnpZ0PxB3er7sHcTr6/LHgdVGamNLW6bXcNDmrPibT20F5r4+yr0EKuyBy9uURPE9jjtpxa9PhOGm88uqP2emGynB5KZtUa83dk80SwhpEznLchoBWLGLUfkNH5xL/ZB8K9xHe9YTV2QR7xSbZjfcMranrcl7dzD5lfaENj+XPxiFn8w75SG7cX63EWOewjzX2ofWAnMlZzOSqDCzxDl0LhBHIWdalU0kB4O17eJ1T0ESc/79ptEPhBO09Y/rL7+uxDIuc9QTDbEhZ8Wvpizo0aRE5EWFIcrBk2zRCExEnWk0YnCTo2fNzKmfqJrI0ROWIJ1MHX3+NnqHJQkC2hGtJ/vx5+r7Rbam2E3Xq8TGCVWXY/7Yeap9ds2VZmy3Pq7aTfZZtZMYZ1FdKDpOQs+qbjgJX3joskeh7G6XHdvv6SIAAABt4SURBVNNhR6puv4wmY2eb5CNKxkplh15L5a/9TX4S1VYP2TrIOQD/UOXheebMCmQ7hJwJxCtLVh1EpaKOlbAzfUXOf4mbfDMQRdPMOYSz8JQz0OM4FTdfvRfp3efDyHk4rnwC5YTsPqdJJiQVTc5EzFrfXhkVNfv3XRuNibhjQvTKWOxkSIu34ZGmHIOuW9UXkWFQn/dsB3azZbXczmlyYvvu1+fJKCpj9BP1169DYd4jQv8+4SSFUbpHV4VZLzI1dVFEbO2K2UzUb/kMLR+R/Rly9ibdLpqW7af7l7ARNdn9S9w8fiMOzwNbNX1J15WWC4193Wsbqdo6jZ9p2/TVRd62rqS8NzO2TbeJyHlmyhxCzn3ApI0hFTkHBp8gZ5d2ey/s58ipaceST1UnHM+kuionZ0qpeldGGmnSYw5DkRhP2WrystG3ue/VT2n0iOACMiWZMaKUpPf61X2dMlff64lBG9lbImX1dOKptawh6Ow4TFaCyTFuz+iI6kiULSKHLPkxHdGSTIRjv0zcx/B+S+TcRc5BKppsKzkZbklVV0XOBcQsZVqqx275h/qo93+QMzmvmVynIGcdYdOsnoF3zcg5NhgXFeTHM4yc4ywBpbYT40rqvpycXTqayYrVWUrOnHwtMct6WkkubDNDzip9LSNkef9A3JF1SjJj6e42crb96dOX4rLpSLo9ck6PO0rdz2jN2c8gORuR9lNMqDRZpgiaZ7kMJovrYhiObTiUf/r/VlItJGbZtrLnzJrzun2r/TmQ8wgAnFLJeTIzxjFozZnSbZm1n05ypg1f8ToXl5Eag41ANAnHa86pVF/aAfC6x/tcQs5m/dmuJaf710XOaVLkdZm+JCLDeLw5ctbfPz3+Trw20fadZ/fFo+MDYaNilfrmEXxiTb2YcPtNKpIyUP2J0/nxmLWskmTeugvYybiEsHzcumdz/fG+byWiFNZ9cm6yezNYPwLbV2OiX3FwP5eyY35ffjb9tUta4f3C/7Pk3CoPNibVjs425NaUaSLelhb3dFHY920/A3Keg6KUMbEUsU1vEQka47bfs7JeqiwEffC/NJi29bmUUavvqB+6PuXEgr5o8qV+plLjibVn42wofZdPgQfjGEWnZeQsDVgRC6VWzdVGmnS/lViDFC/V5T1j+kP3zDWO2nPkTP1kZGfImPe1Md+5KN5fC/d3nNPO88eO4M1GLfe8K2PbUQTvvldlvbE6fYaydeNNySzoq8GBct4pXIf4sphl+MzaHivTibeu3zkXkLNsI9lfY3vUT8/eM/ZGKXo73sRubbuOXpppcjqzu9L5Grz6THVREEDZLH5NBAaKyBPfk9xpIpHSMZWZ4RXkPEOlbXtGh/aZIxqMH38S4GSryccS2uB2xuzzzOoqjJ6d7Gc2vg1hQ0ekLaS4oXZ9PZT8xjm1jj9/HeL4zkkANn+g+AaD8Ywnjww5J1LM47W5g/pT0RVFbjs4/r5+jiLnra7zmgi7ow8qdb4KNq/2HW+F5UHOFSoFTnjHnGcqzRse/gGcDj6OVDnxDkcP23Mp562v4XYtszUmYk4dmLQAe0FaewFKhEPZMTIHZgcTNWwGNlM7BkDOcHRwdMAAMAAMAAOVYQDkXJlCap/NoX+IOIABYAAY2DwGQM4gZ8yYgQFgABgABirDAMi5MoVgRrr5GSlkDBkDA8BA7RgAOYOcMWMGBoABYAAYqAwDIOfKFFL7bA79Q8QBDAADwMDmMQByBjljxgwMAAPAADBQGQZAzpUpBDNSOSOlwwXMmbs4OAKOE3YKDOwYBkDOO6Xwb8XD/Rfi4aebT8mMNcnoelUcvZEm98aasfqBeuaDGegKuloCBkDOIOeqZ+RZcjZvojl5cCTOFniu7hKcC8YAkgQG1sfAhbdv34q9vb2qHTQUvL6CfdktJXKWaW/zthy8cQi2u1MT7LF8AerxfWN98kDkPAfDvvijeL7/m7h3sRG3vn4hXu7rv+dXr3qOmd+TZWz6Wj3vnqPn1fWbH8XnSgaauP06QzJ3/39+9Tfbj5dff2v6cVXc++aFkHV4fbFt9DeAbORMeusiZ3rXK9atPazU7pjQv/62ApktS2YgZ3LyNV8ZuVry/PQn8dIQtjRKRYacBM0zlqAZAfvfEaDLyVmROhGy144mZ3nf9rNJ1Uttdl9Bzt0yglOGjICB5WEA5FwzKVPfDAE6wpNAdFFso+7ryJobqSJsItExydmr00XLTWPIOXu/vwENJmeSIa6InIEBYGBGGAA5z0FZXnSaIDhz30tXm9S3SzkHhB6NOxXhsgmAKp8qw/sDcuaTI3zm2MBn4AEY6IMBkHNEUhUCqIic48g5BkJItnysKeINy6fK8DpAzrHMuXzwGfIBBoCBMgyAnJdAzpRO5mvOyXGlyJOAEt7TRCyjcbdGPUNypg1hp0fiWlImNH5c4TSBAWCgHgyAnOfgsLsiZzUGQ66UzjZXR6wGdGEKnBN6cO/hp7pOV8dE5EyEujInhNmr+flUc00cnYb3cqeJ0WljZ+Loej2GBycIXQADwEAbBkDOcyBn9HHQRha1qWwFcm5zBLgHogAG6sIAyBnEN4j4qjdo8zvoFX7nvGw9w46h34VhAOS8MIVWT5YTyltHzCtx9uAaHNeEcgcG64rAoI956uPCu3fvxOXLl+G84LyAAWAAGAAGgIFKMAByrkQRmN3Oc3YLvUFvwAAwsAkMIK0NcsZMGRgABoABYKAyDICcK1PIJmZgqBMze2AAGAAG5oUBkDPIGTNmYAAYAAaAgcowAHKuTCGY3c5rdgt9QV/AADCwCQyAnEHOmDEDA8AAMAAMVIYBkHNlCtnEDAx1YmYPDAADwMC8MABybiNndsbzye1NKTY4E5ufdd3Wt43eY2dX44URiCg2irVN2RXqBRnPGwMg5wLHc+3BmVit6KULm1P451d/Ey8rIGc1XpAySLnANkAAm/MHkO1uyxbkXOSA5JuNNv/ihFrIWR57iSMvd9sxgBigf2BguxgAOYOcowgR5Lxdo4RThPyBAWAAx3dOQM4qImbvWX5+9WpEiNIYWyPn4F3LL/dfCPeeZQ3kW1+/EPJ7+gvvlxo8yBmOoRQrKAesAAObwQDIuYic9QapdVK9mph/ErdsO9+Kh/svRIqg8+Ssn2kjW0XMfL3akHnbM2mjkin8ldjcBrjNADk9FrQFuQADwMA8MYC0tiXNbgXqjWF9iCtNqjkSzn3fNLqel19/m4y4G0XEv4l7F/0xKMLOPRONW5PyFBvf4Cx8PUEekAcwAAyEGAA5RySVAsm6kbMhVZZqppRzald2npxln4K6OOkmUt62HV6uaKyInEMjwf8pm8B3wAUwsEkMgJyLCWud3drpyDmn0HZy5oYQRNKZyDnXTtf3WHPmssbnLrzgPjACDIyPAZDzRsm5EXqTFl9zziuxnJxNvTYqNgeZ8DXnonGl+wJyTssFDghyAQaAgakwAHIuIrFhv3MOd1HLlLPdEJZNSbM15FSZiIiDk8ZMKr3/hrBGgJzhgKZyQGgHWAMG0hgAOU9AznMDH8g5bSxz0yP6Cz0CA/PFAMi5gJynOr6zFkPatfHWInf0Y76OFLqD7sbGAMi5jZztiy/W2Qw2b7DK6Hm1WokVzthO/3ytDTe4B5kBA8DAQAyAnAcKcOzZEuqb96QG+oP+gAFgYAwMgJxBzpjhAgPAADAADFSGARzfWZlCxphxoQ7M3IEBYAAYmDcGQM4gZ8yYgQFgABgABirDANLalSkEs915z3ahP+gPGAAGxsAAyBnkjBkzMAAMAAPAQGUYADlXppAxZlyoAzN3YCDGgPr9/i/7IKG5+Dz5U9Yd/iknyHkWQH0ibp2/F4f09+wJHMws9BYTxC6R5p1nj8X5+WPx9G4FclBnFoTnFei3zanf82/7N/133zj7Pn8vbtUgs63bmNHPjk6oQM5bB2A/x/XZs/fiMEnOAYGfvxGfzWxsPnHp8cBJleDjE/HolSZCSYbR37MvxpvM3fhOvD6/Lx7d6O7XUHL+8vi+OH/1nfhyKI6vH4mzVft72FVU3RalmTo2H8m14D4g8LQf6NaLb2dbLK/G0+Wn9Ctszx5cGw/DQ/E00fMg54kEPZZBpMn5trj56r04OL5tAazKvToVH/UZX1VppBYn1WdMO1dWE/Xr408sFsbCnqqnBzkPbXcsclan3bURb9OIPDmb6O30SBzJU/M66hk65qbJ4P7GqTg4/0vctJMiXY7bfFHbNdl4ETkb3axOxP6O2TLIeWYKT5NzYvargM+NOVEmGjul+WowhIyTivpcMq5dKgNy9kiqIGqW5XPkLL+nqK2E5L2218JqOe7XmoA3Fdl4ITk3zW5GzyDntQxoe85+s+Ssx6XP1Q7X5xrRkDGpWbxbAw9Tzx8d/+Wtn/HZvep/uKam6jWRf1C3XWeX6+19MwGDdKtJ7undL8RTkyr2PzsMqAiPpZPDqFWld2VqWUWdlHY+EHd4/+4exOno88eC10VpYkpbp9dy0+Ss+phMbwflvT7KvgYp7ILI2ZdH8DyNOWrHrU2H46Txyqs/ZqcbKsPlpYhSrTV3TzZz5MzJdhnk3G7jynalnRmb1PYXT/LJjsk+uQ+ge/w77Tu0jYf+geqQV+4rItln1p61v2pftuB1zeUzyJmcxUyupeSsyg0gM+WswnU6a7BunUgbWv5/StNxo/OeMWTM72vjKY8gUsZGBms3+8gNP+ovMelI6l6TFpETEYYkB0u2TSM0EXGi1YTBSYKePT+ncqZuIktDVI54MnXw9dfoGZosBGRLY5Pkz5+n7xvdlmo7UaceHyNYVYb9b+uh9tk1W5a12fK8ajvZZ9lGZpxBfSWkK/FTUq4ucl4zrc3kk7JxS5zMd4S+JPy/MTbMybjIxmmyz/qUsuUu/ZCtn9xm2CuoM9dWLd+DnGemxBJyJgPjxiIBRyB2hNVBVCrqWIkVzViVMQWzaM/A0oSq+sOMXfZFj+NUrZWnN7ak65rOcHwC5YTsPqdJJiQVTc5EzNqBeGVU1Ozfd200JuKOCdErY3GcIS3ehkeacgy6blVfRIZBfd6zHc4wW1bL7ZwmJ7bvfn2ejKIyRj9Rf/06Sgl1XuSs95gcRps+dfrX2XfBGnlg4x6pGpl79quIOPAB1p79X5F02rjnO3y9hXauJxLdGZDwuTn/D3KOjL4dJNtWdhc554i5b79Ts2qdmgoM0zMwTag8TWU/B+RMEXU+VT0fcqaUqndlpJEmPYYzRWI8ZavJy0bf5r5XP6XRI4ILyJTwzYhSkt7rV/d1ylx9rycGbWRviZTV04mp1rKGoLPjMFkJJse4PUPQVEeibAnpynpLypUSfdxPpmvSR/bahfscMfdpQ5dN2XgZObslLWvfctkp+hWJ8QeR7Zu+er6jvf8l+hkm9/b2t1H3hbdv34q9vb3N7OzMArA+QWxD+Ou02UbOYxGzjrATUbUypm5yDiP2eJxud3l+PF1Oqh1DcZZgzbS2IT9OXO6zJhiXjk73qZScOflaYpY21EpyYZsZclbpaxkhy/sH4o6sU5IZS3e7cfE6g/r69KW4bDqSbo+ceR/lZ0PUIUEvas15PGLO2XgZOQc+IOnnC2y8Bzmr/lIGL9leiIf5/4/IeWaKzpHZOMTcsZOzk5xNujpKt/mGosZgZ9OahOM1Z+OIotm4X1dM/GPdN86+lZzN+rNdS0633UXOaVLkdWWIJ4ndgExtGf390+PvxGs7pvvi0fGBsFGxSn3zCD6xpl5MuP0mFUkZqP7E6fyczpNkPnC3Nm9LEUT2p1RkO4lJrdUB12nuc25SOhYxUz/TKeJOcm5MP6z9psdRZOOJtWoub/dZp+tza8o0Eadd9e65dN/mch/k3MtwtqRsRYqpVBJtxDLpIzpBjF87jMgDqowyss6HdmsHs+bE7FcZJu+D3YVJDiZVRyItZozXps76jGWwXsvIWcpPEQulVs2VR75d5NyYTVk8clafvSjQ9CdoJ47ac+RM/WRkZ8iY97Ux37m++Gvh/o5z2nn+2BE8RbBBP2V9th1F8OxZWdYbq7OzULZuvEFaXLUX9NVgIEuqdLCI3SyYyK7QmmxbGd6OLLdGhJeyGYV7mpxmfUB+h7Nn22QPHTbeTc5SN2THvk/SGTO6V2bjFFSQjceT9EY0XdkP0lGb76Lxz+gKcp6RspLGhv7PfEnGnwQ4HWvysYQGPa+v58Lo2cneTQ56fWfaWVoE10sGo+O05DfOZiMcyHlN4I6uNPRju0YD+Y8j/ww5J1LM47S3o3pT0dXQlHO77HR6dbNt7BYGTAq+IxOR2ti2BDkhcsakYf2IBLIbR3apNG94+AdkPVjWyol3OPq1nDqlVXfwiMm15FWKZSnX1miYfjq2zAkRyLkUKCg32Dlu1JChH+gHGAAGFoQBkPOClAnya087Qj6QDzAADMwFAyBnkDNm28AAMAAMAAOVYQDkXJlC5jKrQz8RgQADwAAwsDkMgJxBzpgxAwPAADAADFSGgQvv3r0Tly9fhmIqUwxmpJubkUK2kC0wAAzUjgGQM0gZEzNgABgABoCByjCAtHZlCql9Nof+IeIABoABYGDzGAA5g5wrnDHT4QLmrONNHBwBvVeo9807PJAKZDwXDICcd8pJfyse7r8QDz+dj4GqIxGT5BwQOE5nAtnulC3Px4bnQoa19RPkvFMGvRRy1mfu8hcMZN88tFP6hcOuzcGiP8DkuhgAOe+U814KOScMfoIXG6xrZHguoa+dsjuMHzbQHwMg5zk4iYs/iuf7v4l7Fxtx6+sX4uW+/nt+9aqXyuT3ZBmbvlbPu+foeXX95kfxuZKBJm6/zpDM3f+fX/3N9uPl19+aflwV9755IWQdXl9sG/0Bmk9rB3XlyJleSpBMjQd1zAEL6KOHeTh9YHipGAA5z8HZMXK15PnpT+KlIWwJTkWGnATNM5agGQH735Fxl5OzInUiZK8dTc7yvu1nk6qX2uy+lpJzNq0NcgaZzcHG0UfgNMAAyDkQSJWzMEOAjvAkqbkotlH3dWTN+68Im0hUjZM9E407RaJhef2/i5RlP1y0TJ/z97vJmPdffi4h56W+zzWUBf7vjx/IDDKbKwZAzhFJVQhmLzpN9M/c99LVJvXtE2VItryucnL2Jwm8DhM5exMCTt68bNnnLnIGMZfJca4OCv2GfncVAyDnxZBzHDnHoF4WOYOY4bhjjEMmkMkyMIDjO5dAzia1/JKvOSfHlYpsCcjhPZPC5hvLOtePwzpk3ZuJnIuJmdacT4/EtaRMaPy4wqkDA8BAPRgAOc/BYXeltdUYDDFSOttco81fYQqcE3pw7+Gnuk5XRyr1zcE8EjkToa7MCWH2eiL21VjDA0hYuYiEqeyZOLrO+4rPcMTAADBQLwaQ1p4DOaOPg3ZyqnXrFcgZjrheRwzdQDchBkDOIL5BxBcCqrr/rx+JMxl543fOy9Yz7Bj6XRgGQM4LU2h15LhF+eqIeSX4MZ+QDyIUYAAYmAMGQM5bJI85AAR9hCMDBoABYGB6DICcQc5IhwEDwAAwAAxUhgGQc2UKwQx1+hkqZA6ZAwPAQG0YADmDnDFjBgaAAWAAGKgMAyDnyhRS2+wN/UFEAQwAA8DA9BgAOYOcMWMGBoABYAAYqAwDIOfKFIIZ6vQzVMgcMgcGgIHaMIDjO9vImR0jeXIb4K0NvOgPMAkMAANLxQDIuY2czT39kgU61xnGsFRjwLiAbWAAGKgFA0hrF5Bz08iXJ+Bs5lpAi37AgQIDwMDSMQByBjljI0gRBuAMl+4MMT5gvCYMgJyLHDMi55pAi77AiQIDwMDSMQByLiLna+LoFC9QWLoxYHxw+MAAMFALBkDOReSsAas3hq0Edm7DgGsxYPQDWAQGlokBkHMROSNyhgNYpgOAXqFXYKBODICci8gZa84w4DoNGHqBXoCBZWIA5Axyxm7tIgws0wHAsUOvwECdGAA5FzlmRM4w4DoNGHqBXoCBZWIA5AxyRuRchIFlOgA4dugVGKgTAyDnAseM4zvrBC+cCvQCDAADS8XAhbdv34q9vT1ETymSti++wNGdSzUAjAvOHRgABmrEACLnFCnjO0zWgAFgABgABraIAZDzFoVf42wNfUIUAQwAA8DA9jEAcgY5Y3YMDAADwAAwUBkGQM6VKQQz1u3PWKED6AAYAAa2jQGQM8gZM2ZgABgABoCByjAAcq5MIdueraF9RAzAADAADGwfAyBnkDNmzMAAMAAMAAOVYQDkXJlCMGPd/owVOoAOgAFgYNsYqJKc939ZidVK/p2IfZAnZrTAADAADAADO4aBKslZz1j0O5RXv+wDlDsGym3PWNE+oiZgABjYNgYuvHv3Tly+fLlOApTHZ54eiWsgpzr1A71AL8AAMAAMbAQDIGcAayPA2vasE+0j8gEGgIE5Y6DitHYjGkTOIE5MnoABYAAY2EEM1E3O14/E2QpvhJrz7A99R/QCDAADwEB/DNRNzmq2ZDaGYec2Zs87OHuGU+vv1CAzyGwJGKibnBE5g5BByMAAMAAM7CAG6iZnrDnDKHfQKJcw68cYEL0CA8MwAHKG88cEABgABoABYKAyDICcK1MIZpvDZpuQH+QHDAADS8AAyBnkjBkzMAAMAAPAQGUYqJiccXznEmZ/GAOiGGAAGAAG+mOgSnK2L77A0Z2YzVY2m4WT6e9kIDPIDBjoj4G6j++EYwY5AwPAADAADOwgBkDOO6h0zGL7z2IhM8gMGAAGpsRAlWntKQWAtmBwwAAwAAwAA7VhAOSMyBkpM2AAGAAGgIHKMAByrkwhtc3e0B9EFMAAMAAMTI8BkDPIGTNmYAAYAAaAgcowAHKuTCGYoU4/Q4XMIXNgABioDQMgZ5AzZszAADAADAADlWGAkTO9N3klVjj8A0CtDKi1zWrRH0RawAAwsEkMMHImQe+Lk9VKnD24BoICQQEDwAAwAAwAA1vAQIKcG3HtwZlY/bIPhWxBIZuciaFumoDiCiwAA8BA3RgAOYOAMQkDBoABYAAYqAwDyeM72yNnWps+E0fX6555YGYI/QADwAAwAAzMEQNJcm5un4jV6kTsJ2cSIOc5Khp9hoMCBoABYGA+GEimtbUC9cYw7NyejzJheNAVMAAMAAPLwECanFsj52UMHACGHoEBYAAYAAZqxUCSnNvXnKHMWpWJfgGbwAAwAAwsAwNrkDOtOa/Eye1lCAFghh6BAWAAGAAGasLAGuRsfge9WuG30MkNcwB4TQBHX4BHYAAYmCMG1iLn5vqROAM543eBmJwAA8AAMAAMbAQDCXLuPr5z/5eVWK3wO+c5zsbQZ0QRwAAwAAzUjwFGzm4tOXt0J0XM2d9A1z9ggBI6AgaAAWAAGKgdA4ycoazalYX+AaPAADAADOwGBv4fj087DgpeCLsAAAAASUVORK5CYII=;" vertex="1" parent="1">
          <mxGeometry x="2630" y="862" width="487" height="266" as="geometry" />
        </mxCell>
        <mxCell id="gYu7qt-4oHGNPAb3_qpJ-18" value="" style="shape=image;verticalLabelPosition=bottom;labelBackgroundColor=default;verticalAlign=top;aspect=fixed;imageAspect=0;image=data:image/png,iVBORw0KGgoAAAANSUhEUgAAAVgAAAAgCAYAAABXamBYAAAJ9ElEQVR4Ae2dzWsUSRTA/XP6unhyD16EJHhTD4lzkGAMMSyRnUWISYagQ1wDa1gwikhGWWZllYGESIKHGQ3maw87aFyYeElOHjx59+Zb6uN1V1VXdddkejYzk3cYuqdTU1316r1fvfequnNq99d3EH1qsDL8Mwz/EEDwwxX4ZbgC79S/367AgwtX4FwQQMA/52D4wu+wclut4x28Hr8JYz9iGb/j4I1ZeFkpwdS1Plm33+9EO6gsyYF0gHSg83TgVKcMCgG285SjU3SD2kG60a060DGA7bs2BaXqBizPTsBg6CGTYnWrYlG7SXdJBwLoGMCywWBe7PJOAxrva1CaHIU+Ai2lS0gHSAe6WAc6CrA045HXQzpAOtBLOkCA7eLZsZcUkfpCYO1FHSDAEmApBCUdIB1okw4QYNsk2F6cjalP5GWSDjSnAwRYAix5L6QDpANt0gECbJsESzN9czM9yYvk1Ys6QIAlwJL30kYd4Pu7Ky9h9sYgybmNcs4MzkMTMPuiktk20QTAjsOlYgMWDr9DiX3qDbiaHycl6QYlOcFtvJwfh7V6Berr45DPHbNXyIx1ZQNqT6dgtB/b0gejkyWovW9Ao3HMe75zd+Dq+ldh34ffYWF9ES4dt8yOXXfl+LxdzmRSTAAsKkQAZ/OLcKtmA6wB4cOvcKt4B84eu5Citjc3s4n+zJKieUykZ+D6zDRs7Vfg8NDyqc9DMd/vUY/HWA1chEJ5Ad6UR+D6QHL5VgE7MDYC5eoClGcuwkAretw/ClNPa7CxMgsTQ/Y2c+927bXbW5J17LX9wZsEvTcg3PWOFu/PQQqnBmFidhk2qq2/G6UFwA7B+ZltKFS3ITc2xA2Jg3jnM0zMTMJpX+XM2CVvDqim4icomm9/TmQ5Ads31WkojJ3JBqqqHJsAbGvjH0BWgOVPJb5NfiLRDVjpRf1dg9pb8Wnvk40OvR+YhFz5AArl+3CeT2yi3N3NyOa95N1JNu4F2ACyenS/BcCacAog4I3/AnPhgFjKqIbDzzFk2u6A9xA4FC3WZp9+naQyBFgNNB7eKyvvAiy7/viPx/zNcj6g1u59JF311/sjOVFBB9m4J2CDIBsvtgMAK0Ak3kOwZ+SrENoHcKv8EfLlz/BQ5oTNfNHpsfswsfktzCc9VGZZrhR1I8fEBf0VeLl7LyCn1M1zzph73m/SIz+SgiOMBaheLc9DdX0e6ocsl6ieR3lF7mltPg/D80+buvfIQ+XaPBQf5KFQXoRPPIxfgrViDi5jG3M5KK4vhXVgqK/WhSE3/s2e27QDlrdxtWhJFRjluYeKbWTphuewpaYDPDxYXR7G77G/sftEuVqzn9hfdtT73A/5ohgbLKPKi8OO517XUh0GF2BVYPYGYJNtnNtu9QAmlj/CRJgT/hZz1NCO0T5VBuDf1GvC4RM2PvrXG40PWAc7qqyIyX7dnosVvGrAdkIKiNWVKWCPNrshXNAt39MbLUFYUvK7AqZfwjyK+T0I4qGMVoaHPp9hQYGwEKz/TK4OBJ6j0PniBVvACD+WiQONXjsK8GztC0A8eRAt2JT/HIc1Bsx8vwhjNx8psBRGv6tANgIGQlXWvSNzoxI2u+FikKOOncUoHxn7DY6dAUzsEwP48lz0e7weiHtV2b2nWX51EaJ2yDB981kEWQ/A4hgEzrLKPRMWcpJTBI5+hv0S8vABJ2uvT7nOAmzcrkK5GzJwXed9ruo2LmzzG5QUZ8Zkifk9kDZ8V1kv8bJxbw82eXzQ1v83wKKQtBlEfUOWL2z47L8NjR05c3CBGGkHTUh2KPL2sFlRyQfzQap9hrkd9nEv2h3fIpcOwdALzfdDdD7GPSgOJwUUJhgEYBGuwvC1Mtx7XVAgHSj36AcXqKJ2qAtYDvCo99DAx2BXhFflEeCTiApxbqhGfdpvEeqOo7OsAGw9ZfFNk1EMGnJ8PiiTTqyMfCtcSv61+wAr1lzm9s2FbBFKb4f27bEzwrBxDYxSnpr9xnLBYuyFPet2nGrjGjscOiTbICaD1l6hmokH64KraxZzXbfNbta8riYkAdhwOxmG9uyozIjinrJs7DoK2g5rV3uzv+4PWJY+wBA1PO5Hhs9BGAMX9jOQAFU9RwGg0AvmoFLDduV+MUgZQEToKLCbvzcCpeoz+Ld6Ewr3RqBQnoOVYg5+Y9uqpGceyVOXgwv2UXmzX64dBxKyKLtYP3wWuWTbcPeEInNsj49nysr6lOsMD9YFV0XuOOYpR5uN+wE2Sg+q4X18V0OKjWvsSG6/z/jgmLuOLQM2K7gKl9sSSnOBNO/Bxjsc7XrIr24nbjs7qgeLYUOUGsA0gaVfVkXUwaJ6i9G53YM1++sLWJGbFfDUcokKHNO2RgWBA7A8FcA81ZvwcukneLI0BytLBSixtIFMHUwlADbcldBMW7zL2j3aZA/WNEg5XqZH21M52Ozg6rJxP8CquxnMccDvHjbeBGB5ex05WNPeXN9bAmw2cE1ZYUwFrNynWzdDFxS6OOo5HDHLxbebSGWypg/0+lwCbe26D2BluqCuh//mfdMAGwFbDfXVPjrgkTAxhEAMy4g6XlUXYXc1DwWe6hiBJ6uPYGt1Wix+yYU2dSGJQ07NMXtDEz1zlwer9s9IiWCbeXseRflfvO44WoHc4i4CdSy5kTvTDWg7vhO43v/oPq7ILSu4YjvtO4VSARvIdnxIXnD2snFL7jaSgyofkfpYcyxioTO1l7JX1g1YDrboKY/ILUeQSVdcDcnx3BmCqx2Q52y2T3o0zQOwTEBcuHX51Jlsh1gdnOf7def2jVVJ7J/5hJocANytEE8zWPrgMD77wCX93g+wrF4OyLoSth9WQPVA0wAbyIWmWKpBC3llezAclqG1CkPRR1EuDlhsp7KqL4GqtjWQ18JUx6ExeXDAWtIVYYhvbyerL7yPrQ6tr9G4mLKN+mukGGw7M6QuOMGIDw+oOUt+rkASc5RJZdT7sP8CgmsWTeiizWa4naNNoI2gXStH18q7VedTbDwdsGxsEPa6jYs1H/ybn42jY4hMs/YlLQrBMUp5CMQN2CYGyipU+n32G+4zk6kO8mj8jDxsZveL4BXdq8eveXqxLctD3uefFE+q5fucKF3w2QMrF/cIsD1uyEdSfAdgLeE6GWYL+sO9HPNdBC3UZxlrEaoq3q+lDI1hMzKX6YyUdxHYFutsciYP9qQqpC1kNjf4n1TZZNhvbojteJsWhqgNe17TZux0zQO0TK5JKUv5hNd2w29SI8BmaEykwB4KTPLu4NQRjV/WNkyAJYMngycdIB1okw4QYNsk2KxnQqqPvCvSge7TAQIsAZa8F9IB0oE26QABtk2CJW+j+7wNGjMas6x1gABLgCXvhXSAdKBNOkCAbZNgs54JqT7yrkgHuk8H/gMut6E7d14RAQAAAABJRU5ErkJggg==;" vertex="1" parent="1">
          <mxGeometry x="3117" y="1020" width="344" height="32" as="geometry" />
        </mxCell>
        <mxCell id="gYu7qt-4oHGNPAb3_qpJ-19" value="4，NULL" style="text;html=1;align=center;verticalAlign=middle;resizable=0;points=[];autosize=1;strokeColor=none;fillColor=none;" vertex="1" parent="1">
          <mxGeometry x="3340" y="980" width="70" height="30" as="geometry" />
        </mxCell>
        <mxCell id="gYu7qt-4oHGNPAb3_qpJ-20" value="" style="shape=image;verticalLabelPosition=bottom;labelBackgroundColor=default;verticalAlign=top;aspect=fixed;imageAspect=0;image=data:image/png,iVBORw0KGgoAAAANSUhEUgAAAecAAAEKCAYAAAAo150IAAAgAElEQVR4Ae1dO4sdx7bWz+nkOrg4OCAwBwwnMPIEOlihDBckW0b+A36IwwnGAmmSgwMFgxBjMxJScmBsDJICJRrwYASCjRPND1DqWKC61GNVrXp1V+/u3bu69xcMvWd3dT3W+tb6aq2qXX1BCCH++c9/ig+++kNcOfxVfNg0olF/18XFgz/Fle9/yPz/g/j48E9x5fBP8fEV/Ux3HVS3vOrn6VndJr/f6D4d/Cw+sH0y96/8qtq99NV10zf/OVeXGcPhH+Li33Nl8L2TF2QBWQADwAAwUAMGLvjkrMlWEq78i8jv7z+LS+aeJmVNfpZgDWnS86k6Pvzeb8OWpUlA0Ia9HxJsopzthyVzkHMNIEMf4OyAAWAAGOiHgYCceeTcryIIHvICBoABYAAYAAbGwcCFd+/eicuXLyfS2uM0AEVBjsAAMAAMAAPAQD8MgJxtCryf4AA0yAsYAAaAAWBgUxiwae1NNYB6AV5gABgABoABYKAfBkDOiJw7drz3AxQMEPICBoABYGA4BkDOIGeQMzAADAADwEBlGAA5V6YQzDiHzzghQ8gQGAAG5o4BkDPIGTNmYAAYAAaAgcowAHKuTCFzn+2h/4hYgAFgABgYjgGQM8gZM2ZgABgABoCByjAAcq5MIZhxDp9x7oIM939ZibMH1+BQYb/AQA0YuH0iVqdH4tqIfZk1Of/PvZ/E3u//Ff+4d2lGAL0k/vZ83T7Ls8LxEo/pyfcL8fT8sTg/PxB3RjS+dcdx7cGZWK1OxP6afZmn3XwlPvr9v+Kjf68xeZPn8KdeoFMkvyfi1vl7cUh/z55U72vmqd9t+cWx9HtNHJ2uxOqX/RHwoeuqkpz/98l/xd6TrzoHORyELQb/f/8S//j9v2Lv+b/E/zAjLu1b3vGuAULmXD783pCzfMkIvSyE9S/f7hpObSv1EhFKMoz/Xh9/0omLYhnc+E68Pr8vHt3okg31aX1y/vL4vjh/9Z34cqhM5Qx9dSaOrsd9LsXmPO2mxVYzMpVvydMv7/lBfGzIWb54J35BTizLFIY+e/ZeHLaQs7p//l7cultWX6qNtu+Wrd/t+8W8fm+Lm6/YBO38L3Ez6TP2xclqeEZLTb5Pj4Q9vrMNFFPfKwXh8H61GLwi55/EP577s/XhfVsDhE0j9Nu8fhUffy//5Ju9diGC1qT4dEPOrikm5+HOdhxybp+dD8dm6Ti3YTctbWbImV5Le0XZzK/6FbdrR9CNyDrvu29UZH3r+FQcVEDO8IulOPbL5fQbfv/R8V/i8PyN+CyBu6FZLak7WrICOedSZYac/3bvP14UP9wBrkfO2uD0O7CjV3kmQDLcQH3gbqc+kLMn95aoWZYbjs1SnbcQ5cbspqXNLvyrV9kOn8yGTlrrRqZFjaO+sTvkvES/mNZvwiZa9Tw8erbkTO9z9pxAF9g3fL/Tyfz7P2qtWa43y7/cOpSqx5RRZSlFTSlrfo8+e2V+En/7P0mm8qqVFPUtqsuVJZlSGpH6K6/+Orl2PO7+f8T/BjLWkfMf4tLBOpGzJLn74tFdmcaVqeLgM0vRqAiPpZP9NLIjS6/csy+8VPOdZ3E6WrVp29H1uLR1Ll3s2iNZyqus3+8XGVBQ/u5BkBoP2umMnD8Rj16xsWTS0p4sgrXptCx0nV5GQPWFtXX+WHj3m0ZQuiu36STCZoChpshuQiwyrEZY1/YX21aB3QR92fs9xnxkv5Gth30N69CT2SsHf4hLMnqW76LfRORMcm512oTR9a/j6NdM4sjfyavn85hOs2UK9BthpUa/6OtiHHLWke+Qted5kzMZQ5OfTStCJNDZ8r4ympbnGwUuDShZF5GpZyAGgHxyoInYAVH/z51GGDnrMVD9knyiZwavORMZSnIiwpFrrfozEZ0mGU5g+jm63zRUz2NxToRsSIWIJKpDESRf1w3rbET0jNWXLkt1E0Gr8tS+LdsIL00dtatJ3dvU1UnODi+qzRQ5q3a4zNwz1F95zT6v+p8eJ39efpZG22b0Hja5XKLPObsJsZkey2C7UcTsbESOTROxsxP1v2e/YZ+77WbqNedm2+Rs9RzKyulR+RZPru6ew1v++WX5RX/speTcltaWMuyaRDs5++3r73XkfXK7EbPeENbmJEKSTAukDIS6He04uAOMHYgUNndwqfr5fUPEkbGknpN1r7tbmxMiJ2T+OU0QPqnoMpaYlTPgdRgC9IjTr9evj8Dpl3G6Sn/v1cHJUZEtm4B4/ZBtBfWNRs5xlOvGoMfo9dk6UX/8vlzpHl3b15tlexybYfv+/zl8aWzaSCrqJ/Ul93wjuPNO241pI9rwyepkE2PXb3afJrCldsMmt64+Gkv5tdN5z4Wcf/cnRrFMfFl79z3dyHJz9ou+7jv1K+3B7C84OL7tZQu5jNZbd9akzH+FsVhylsLSBE1pmhQgS0GoHZ+MkLkD5J+dcpjz8YBMQEiQM08fsc88Inf1Uz19rpqUdATMyZR/1mVcqpmlWG3EyOtJt69IiP/kKIhg9X1WN0uhhxFyRKZEFoyQ7zy7L16/MuQov1d95ePi/Qz6PwY5K4P10+fxOLoiZ9nHQP7RxGKKyFn2w+CXcBgRoCwzxG58/Dtc6zpVBklF1i6K1mX8Nn3bJhvX1/HshmOnZUMY4XIG5Cxl6ctul/1iT/0WELOULyJnZRC+wTpD94XuABkCseX5kFjl/8//Jf7GfubVRs46TZ2q33dOylCSDjAeQ9v42u9xUuLExT/rMilicXXzetL9i8mXp7RLSIrXm+mTjZC/EE8lGUtSfvaFTh0rUuPjaqlvLHIm58yIOpRje+TM+yg/63GHkXSX0afxGNYt/0/hMlXOEHWEz5bnO+3Gx7/DFqszrCNh69PYjS+TzshqJuTsZE5Evat+sYd+C4lZyrZr+YnLP/V58WvO0aCTBm+cT5RiC9NzUomyrP5plf0NttnUwmfqelZKs/6wfvM/3xCm+sU23XBHP9pnTqqcuPjnxJps1D6vxwe2lneGTHk9ihBzG7rCOnP1ye/vi0fHB2ZjmBzHgXh0fN9uFNOTBH9ioDZn2SxAsEbN+5j4XE6umT4HGYQIn0Gbqq9h9Dzabm1GhEG7Yb/SJBjimuktsrPYbrSN+ISgJhZ2EqD75/Zh6P/lxjNra5PYDRtXM0LkrPTXvm8glD//f/zJV8rPyTEP0y9tPLS6stF6bX6xUL89iLlp3Jox112fz/WTM6XV7NUZswKp/Z6ltBjJpspwsFhhGSO3O6XJQUROphEEOkvO0rF17jp1joWci+ybczxkIGwcamwEZB9Att8dTtUvpwmjPa2t20ntLg43hLn/E31TJBSnrb1nDEH7KfTUpqoM0dlNbe4Zith5xErf2XY4MUv5JfsRb3azz9sUvCP9qI3z/MQjlK3ta6ofYV+VvtvXnVOY32Pri+n7/MAfH6vaJjI4HGg3mqAZ5snuCNde/dL2NWF4NuyVoboy/aV6+16NY7YnhNFJYfTzqSY8oIIdVhEeWHL9SJytVtlDZHybjW0rrT/4xS65td4fol+LAaYrNQFb//Q+2deqyblVmH2NC+WzGxdGl7MhGUs6JPueUePo/aJ+LOHaET1DdsxRVqhvlfIccPQq9Fuzfof/xlnqF+RcoeHO3vAy5KwjRhflzn6cW8bOertBa3ZqO9I3ipxHOX95R2S2ZVsr91XtWa3yesyGstVJnT+l6jMQlK3LSFNp3lHOlJ6NkU6jD5pdA//TyHuYnI3jHuHc5WH9mIOsZtpHmdEa8a1U0r6r/CkVADhTgIJAp1tCgKwha2Bg0Ri48PbtW7G3t7foQYLsQfbAADAADAADc8IAImfMPjExAwaAAWAAGKgMAyDnyhQyp5kd+opIBBgABoCBzWAA5AxyxowZGAAGgAFgoDIMgJwrUwhmoZuZhUKukCswAAzMCQMgZ5AzZszAADAADAADlWEA5DyxQtQBEjiEYBJHAFkjUppTpIS+Aq8cAyDnAnK+9fUL8XL/hXj4aQt4Lv4onu/rcrLsy29+FJ+HdSePXnQHFKzkubsj/pCdK3o3P49znN7uyA5Y3B1dt/iy0G/h/0mCiRB7IOcC4HWT87fi4f4L8fzq1bwSzdF9J7fzRtH1SsCGjv+rlsB/EB8f/imuHP4qPmRy/eCrP8SVg5/FB00jPvz+T3Hl+x8COV0XFw/+FJe+um6+D/9PyOzKr1E7IbjV/wVyTz7H+j/G/c+v/paesI3czhh9lXW0YVHdUy9wkC9xWImzB9cCfSb0Vek4x5IX6oHOx8YAyHkMp/HpT+Ll/k/iVktd6sD7DlLNO0QT0ZweiaNfao6uNTlfOviDEW0jtkrO9H7VDtmPbVhhfYsh5/CtO5VMfkJ543+Q5dwxAHJuIdRi5XaRc6EDy5Gz/J6ikxKSL+73GGP36tDk/PFXP4tLJlKWfdk2OVPGoS1rsWmZLYacPX1LAjATR+yjQPYgwgYmCEP8yoV3796Jy5cvA1gJYCmHateRfxP3LnKwXRX3vmFrzLZcYn06jDYSbUkl5siZK3gW5HxFp68/vqLltXVyNgRCExwuz/bPerlC7jXwsPD1t569ePeC5Q1aElH7EDIY0c/7mRf1Hdu3oOqR7Xp7G9gzNEH07nfsk8jgsBSLWnY5cqb16zNxdJ3bDT63Yw7ygXw0BkDOLQ7KgkQ5vJCcmRGRY8zUVUK6sq2ScuuSs3qOrROqzWf8xe+0np0qUxwVmchZkrJcEzZry9snZ/2O1FXxOEi3mpwVsRIhG/KjzYExsab3H4Rka7HVEPEzoqXvQnJW5E7lzOSQ+qUwKCeGdD9dL2+37XMJFtXz2awQyLlNvrhHNoZrDgtIa2cI1RPYQHIuJdQSh1hal9f/kjGOUoaRcyM3df0hLv69grT22uvOhpyJAJWMNCnqzX8usubyThFx6jt6JiZ4Q6wROTvilc96dSpyDiaQHZNGaj91LcFi0+jd8PiFAQgmhSF8NwwXIOcSUhpIzmWObrOR8zSGwslZk7LcgT33yDm/C59F1kHKOvwpnUekAeaKyZmRdaTPyckZxBzpINAr7g8jp12XH8i5xKAGknNTwZrz5GltJVdJ1r+Ki+ynVJyonfH5pN6oqJv/tCph5KU/pVL90CnWddecu8iZUtxuPHF/l0XOIOY2XeNejH/IpL9MQM5TkHN2Xc5XWEmEPZ+0th6b/F2z/GkV/c65+fvP4tLhn4I2i0mjVYTt/TZ6xN85S/0q+a+zMSm9fswdjd7w5aeb+X37ORXZEvaCezqS9g+yUe1UETmXEjOtOa/ENnfJW/mTrHH1NjNCPr4PrkkeIOesseZ3Y0eRVMHaXpZUsxuxGJmoyFsf+OA2csn/WZnsOKYEXxgBN4LI2JKz7KeKeuVhJfTnH1pCkbO7nygX1aHLuINM3LhLJj1po+wmZ/lcakd2hJFEOR5xe3VIEpaYYmQ8CTkXYFHJMrVpcBWTsC3beyOe011aL7gPuSwfAyDnqUitMHqG0Y1sdJD79iIlInuQ8/Z0MJV/Qzuj6xjkPCWoVARcW7Q7MhlOKc/OtnQKtv9a85JlMt3Y9D4H4B0T7ukwtyRZg5w7Hfy4wFKpPkQSo88yU0YJWY+L3ZSMk99RxLw6EfsT21eyP+jDJPYG2Y9rbyBnGC4MFxgABoABYKAyDICcK1MIZp/jzj4hT8gTGAAG5ogBHN8JcsaMGRgABoABYKAyDICcK1PIHGd46DMiE2AAGAAGxsUA0togZ8yYgQFgABgABirDAMi5MoVg9jnu7BPyhDyBAWBgjhgAOYOcB8yY5e+I8TvWaQwfsp5GziAyyLkODICcB5FzcMQnO25xWwCnYyD50ZBRX9Rxo/Ldv+bPeyViKTDN2cnhb7aDo0ZxrnKpPLvL6eMw8dvhCM85GwYWB0y8u/FYrIecfvB9q35AziMBpO2tQ1OCuJOc1Ru2XohW8i6QSfascPusPp0rSc6B01yFBG/r2K6D0C/kCN+Oxc4PVy/x0O+s9nQcvjEr/D8aX8GLPswz3XKfQmbp91h7MojGOEW/cm20YFH1U99f4dCUVrKoV785vc/7e5DzSE6kFnLuMqBR+ll0XnXGIapneSpcl6vxiE39ess/xCXvjVnbJWf9hq34JRNdeh/3/nLIWR8xeiKOHpwJkPO8yWxcjG9fFiBnkHPv2XJZ9JYh54S8y+qb3ljo3dMXv+evuNwyOTeN2L68FkLOMoNjsjZYMpjevpZGpmOPB+ScIAsuZEoT0/psLh3cFpGqe7S+q67h+3+1s6M2Xu6H97sNx2/jN3HvIn8mrJ+tN++HZflzqc96rbk70l0OOX8g09cHP4sPFFa2T86NWhbov/bsMMrxEOqf35M4YVg0SyIOpwxHdr+Fft5/Zab+ztqOqke3y+3LPUPlgz0da+2NkBjuxmInOdNSTKVLMNxn4XPKb83vO5BzCzkrx2GdTiOalvVa5/gCEHS+6zl2ZppomVNs6WNkiMzxRfeaRmT7WdxGt6PT7fYr1032TK72xQqJd1wb56nTlYn7PXaXU+T8QSPXhGltuQJyjpYGmGxa9KhxJQnVEbKP8VIsEnmm2o3raJqgPCN5S8jKTqhfurycBPiEzv5vGWeM+24sgpxTusR3MZamkwnIOWfkGZJTziwxg8+SntkZbZ1M0F76ucCZBc+0AibTb3om3V4PwBWtN8v6uh1i05gd35VuxHHk3IhGbur6/gfRNLWQc/91Z03ORIBG52zymMZGCoup7whD+p4lXYXdoLwh53yZgjr62EQBFjvJuVd7JAtcye/g2h8LOL4zZ3Rsdh+l8fqQs6zfEDTVw4laO0yWHmTpb16uGNybJucCR6f72kXOdROzHINHzoqUfxUfVkPOfFNdmeFrrOUzMuVYDMjWs6ECYjW2lcd3QR1em13j78JiI0DOXTLE/WIf3AubebmCnHOC7CC5UFHpqCMh+CCSLn4u18/w+45+D29vjDXngcQ8eVpb61GS9aWvfhYfH9IGMRZFMz34pG6ibm/Hd4iL8p9SKdwNWXPma8isz7LecmyAnEP7x/8hpvH/UEwgrR04KCdQsxmFrzlnyw5wbCaK8FN8A4C9cXIu3S2ci1YGEnOLDpzuBsiP1R+RrNoYJn9aReTciA+//1NcsZvFZLuasC99dd3tgh/xd85yjGo9fY2NSYp8W8iZ9lR0Y9HYRiKD1DThPU3k/daPK4ycaUPY6ZG4xjAyNuZQ3zi2uwQ5gpxbDS3YLWpSzjYdZ4iV0tXu6tb1tEP009aR80vWk08/xsBL91P2J2yrPDpqMZKWdefsRiwiE3Jyq3izVq9NYa16a+l7j+cicm4MGTNybtRmsT/FlUP35xGzbE+Rs7tPZV05HTnT9+4q0+jhWHKTnrBc/H8nOcu2SrEYluOT2ODew081PkO7sf9HYxyHnDux2JKBiQ/P0XJf9dhQGNtprBOUgUxyGAA5R44BYMmBhX+vHB+iCBcdT4QjyH179qnJvv9aP7cbfN6e/uYme5DzRE51bsDo7q9JT1NEDDlunKixaWmLjp2ibOB94zjv9j1bxMGEfg7kPKGwlwc6mepDJDGNXiHraeQcO35Kj9e27LIteaDdGCObkAnIGeSMmTAwAAwAA8BAZRgAOVemkE3MwFDnNDNdyBlyBgaAgbEwAHIGOWPGDAwAA8AAMFAZBkDOlSlkrFkX6sEMHhgABoCB+WIA5AxyxowZGAAGgAFgoDIMgJwrUwhmuvOd6UJ30B0wAAyMhYELb9++FXt7e5g1gaSBAWAAGAAGgIFKMIDIuRJFjDXbmrYe/PZ2WnnvUlSiD7mJj9HcJRlgrLtsXyDnQeQcnGnNzxceVO/6RqneN81fUp/qR/AKy5fJFxh09SFzQtjdN+Lw/L39u3W3q56a798WN1+5sRy+OhUfpeQ5wXcfHf9lZXp4/pe4eaNmuXX17Ym4xTBy+OxJOlpT57CPc8gNHSSyqvTd4btMQhh72l5AziM51lFeKDFCXzrJ2byUIP/SgTRQQgPqPuNZO+A8OZODfiM+G2HcYf/G/l+R4xbJ2Y7nxqk4yJFzMDHKkl5F8v7s2XvR1s9Rjixd8xWbVuYVyQt9KvNPS5ATyHkkw6uFnLtAOUo/W95K5drPk7NyyOdvxE0VDa5JztLhTvjijTHJWRHOun3PkXP0vZb/wfHtdFSawb2cdE15TGUXOTeNfhvUkD4peeNM7F44cHa8O2RY25hBzhkn1VdRo5DeSH1p6/sY/eyOmqVBZ8hZRncmjalTtWuSczPte6HHImdKr669lhqRcN55KuLrG+1P/IKHbnJuxNDoGeScx0ibr8C97coN5NxBiJQmpnc159LBbaSn7pl3Qet6wnc1uxfSp+93g8Rvw71PWhtYWD9/v3RYtqstTYrdkUyGnJm8h5Gz7qcmu3BdUrdNkwDrZBSxvRc81a77wNaVM+ufw8mZJhNhX7vkHdzfNDkr/ehoNc5MlMtVZ0ecXHMRfAk5N2rCsL7cQM4BhpgNWtvAd9VlFkDOLaBUxMw3ebWs12bJWW2+CsmYG0v8YnlNtG3P8OeDz6qPecLN9rNFDr4Ba8fdHflNQ86ybzqyWgnepxTxRwR7943wSMOQt/edkUv0bLG8pH4M2Y2xGamYnLX8U2Px9Rngx46LJhMnYt9+14gSucoyfALUmLVw7ztTZxE5G/lx/ZaNQY6tdDKZkwO+L5c1ZDWmrEDOzPF4gs2QnCLsxO7mLOmZndH9Im5N2LlnvH6G/c/0m57J9jOsJ/d/0XqzNNJh5Ezp39VqJfRfR+SkNv2sxMquLYbt653X7WSVL7M2OVOaeN015lAPReRMu8zDJQOaJJBMV53r9qQHR4zryDV8xjnxPuTcna1x9RIpr/BK0+oiQvJFuHK8xp9BzqHzo/9NlEzpbO/ah5xlfcFPlzjp6iiZp5ndZ16uGMibJufiKCbvkGksqSiM7vW5piJn+bxy/LTmqqK3kKx0H/lPv+TnFIGvTc4KT0SKfhTaZ4y2bCc554g5Nn5bJ2Heu6Yj5yK5mgxEKFdEzn11gPLtGF22fEDOnkNiyu4guRA0xRFpEEkXP5frZ/h9R7+Ht1eaJpyGnNNrzkaPjMjiCM2QmLfGvIHI2eqHyK4jA2DLMyzy79iYQgw2zVjEbCYTuWif9SGWq9a7P8HJYyF+PjFurDkj+uU2sCOfL7x7905cvnwZyo8Ubg4Y4WvOURnnSMpJL0hZmwj9+dWr4+hg4+TcCEWIOcdtZZR3yEQqwyJnIrv2aFQ6/4PjU3Er+m1wTM66P5uInB1O4jSxu0dyab0yYvTLjUTMlIa3ywPp/uXlGpOzIuBzfyMe9b2EnFVmpBNv6X7KdrAhLC8b0gOu9ckI5GzJJKWc4AQws+PappsNsXopb1XGbchSpO3t1H4hIiJO1tNnQ1i6n7JfYVvlk4iUPMx3LevO5IjDlKbdOa3Ixe3i5eVSac+s0yj9nTMdzOFFyGYcdI9Oq3r2RKXCbdSX7euwE7r6kw0Rbyw329dwLDSmTJo+J1c5eSha26X2EnKlSQ7p9uD4iTppzeqXnmV91GXDZQepp9JMTR6vIOe8bHI4wPfblxnS2q3kvH0F1WokZdEz5Fer/ubSL0WsA3e5g5xhh3PBO+8nyBnkvGY63aSVO9KfHGz4DCfZCwNqB/7ANXpp32PVA1+xpq8A7nvh3uAM5AyDG2BwcuPQCM4TOhigg6U6Pj35cz/hGjZOHYHLn5C171FYx4nimWG6gfzS8gM5gxhADMAAMAAMAAOVYQDkXJlCMItMzyIhF8gFGAAGdgkDIGeQM2bMwAAwAAwAA5VhAORcmUJ2aWaIsSISAgaAAWAgjQGQM8gZM2ZgABgABoCByjAAcq5MIZhFpmeRkAvkAgwAA7uEAZAzyBkzZmBgJzCAw0hmRu6lpwAu1H5xfOcsFKvPK6bjEO1RmLPo+8wcAmQ6GlHfefZYnJ8/Fk/vVoCB5EEkwbGo9AYzYGAgBujce/Nq0rXPRd/tg45AzjMzxK4XBdDZ1vYc45mNz6Wtul+c4cpW4Py3KudPxKNXmgglGUZ/z74Y6GyZfG98J16f3xePbrDvMmMfSs5fHt8X56++E19m6i/Wf8tZ8FRH5ytB6Zz1BRB451iHyps9r7IVSXIOCDx7mJF+Q1rRee+sXdLrnK9Ia89MoVlyNi8TuHV8Kg4ybwDqBGpVaSSQc6e+ktjVRP36+JPxCJm304Oc1+u/I/2xyLnkHPg8YZno+tWpuPnsvThci5zHPe1sqFzzY3WyH9oGPZ8jZ6UTdvSvPsEtfXpb2z1qZ4lXkDN3PDP4nCZnSWTmjT5mhr9e5Eyz2bSRTGsAIOf15A1y9uRWEDXL8jnCkt/Tm7+U7a1FznS+d+Ebvzbsh3Jj9eQ2Uh9y5By11aqn3YyeQc4jgTAC24bqTZMzm/EOImddj5rVptJMKjp/Iz6jFJ955V84EVDGz14HSM5Nykj1P4zsTdSvygV123V2Wd+6jnEtXWiSe3r3C/HUpIr9z07mKsJj6eQwalXpXZlaVlEnpZ0PxB3er7sHcTr6/LHgdVGamNLW6bXcNDmrPibT20F5r4+yr0EKuyBy9uURPE9jjtpxa9PhOGm88uqP2emGynB5KZtUa83dk80SwhpEznLchoBWLGLUfkNH5xL/ZB8K9xHe9YTV2QR7xSbZjfcMranrcl7dzD5lfaENj+XPxiFn8w75SG7cX63EWOewjzX2ofWAnMlZzOSqDCzxDl0LhBHIWdalU0kB4O17eJ1T0ESc/79ptEPhBO09Y/rL7+uxDIuc9QTDbEhZ8Wvpizo0aRE5EWFIcrBk2zRCExEnWk0YnCTo2fNzKmfqJrI0ROWIJ1MHX3+NnqHJQkC2hGtJ/vx5+r7Rbam2E3Xq8TGCVWXY/7Yeap9ds2VZmy3Pq7aTfZZtZMYZ1FdKDpOQs+qbjgJX3joskeh7G6XHdvv6SIAAABt4SURBVNNhR6puv4wmY2eb5CNKxkplh15L5a/9TX4S1VYP2TrIOQD/UOXheebMCmQ7hJwJxCtLVh1EpaKOlbAzfUXOf4mbfDMQRdPMOYSz8JQz0OM4FTdfvRfp3efDyHk4rnwC5YTsPqdJJiQVTc5EzFrfXhkVNfv3XRuNibhjQvTKWOxkSIu34ZGmHIOuW9UXkWFQn/dsB3azZbXczmlyYvvu1+fJKCpj9BP1169DYd4jQv8+4SSFUbpHV4VZLzI1dVFEbO2K2UzUb/kMLR+R/Rly9ibdLpqW7af7l7ARNdn9S9w8fiMOzwNbNX1J15WWC4193Wsbqdo6jZ9p2/TVRd62rqS8NzO2TbeJyHlmyhxCzn3ApI0hFTkHBp8gZ5d2ey/s58ipaceST1UnHM+kuionZ0qpeldGGmnSYw5DkRhP2WrystG3ue/VT2n0iOACMiWZMaKUpPf61X2dMlff64lBG9lbImX1dOKptawh6Ow4TFaCyTFuz+iI6kiULSKHLPkxHdGSTIRjv0zcx/B+S+TcRc5BKppsKzkZbklVV0XOBcQsZVqqx275h/qo93+QMzmvmVynIGcdYdOsnoF3zcg5NhgXFeTHM4yc4ywBpbYT40rqvpycXTqayYrVWUrOnHwtMct6WkkubDNDzip9LSNkef9A3JF1SjJj6e42crb96dOX4rLpSLo9ck6PO0rdz2jN2c8gORuR9lNMqDRZpgiaZ7kMJovrYhiObTiUf/r/VlItJGbZtrLnzJrzun2r/TmQ8wgAnFLJeTIzxjFozZnSbZm1n05ypg1f8ToXl5Eag41ANAnHa86pVF/aAfC6x/tcQs5m/dmuJaf710XOaVLkdZm+JCLDeLw5ctbfPz3+Trw20fadZ/fFo+MDYaNilfrmEXxiTb2YcPtNKpIyUP2J0/nxmLWskmTeugvYybiEsHzcumdz/fG+byWiFNZ9cm6yezNYPwLbV2OiX3FwP5eyY35ffjb9tUta4f3C/7Pk3CoPNibVjs425NaUaSLelhb3dFHY920/A3Keg6KUMbEUsU1vEQka47bfs7JeqiwEffC/NJi29bmUUavvqB+6PuXEgr5o8qV+plLjibVn42wofZdPgQfjGEWnZeQsDVgRC6VWzdVGmnS/lViDFC/V5T1j+kP3zDWO2nPkTP1kZGfImPe1Md+5KN5fC/d3nNPO88eO4M1GLfe8K2PbUQTvvldlvbE6fYaydeNNySzoq8GBct4pXIf4sphl+MzaHivTibeu3zkXkLNsI9lfY3vUT8/eM/ZGKXo73sRubbuOXpppcjqzu9L5Grz6THVREEDZLH5NBAaKyBPfk9xpIpHSMZWZ4RXkPEOlbXtGh/aZIxqMH38S4GSryccS2uB2xuzzzOoqjJ6d7Gc2vg1hQ0ekLaS4oXZ9PZT8xjm1jj9/HeL4zkkANn+g+AaD8Ywnjww5J1LM47W5g/pT0RVFbjs4/r5+jiLnra7zmgi7ow8qdb4KNq/2HW+F5UHOFSoFTnjHnGcqzRse/gGcDj6OVDnxDkcP23Mp562v4XYtszUmYk4dmLQAe0FaewFKhEPZMTIHZgcTNWwGNlM7BkDOcHRwdMAAMAAMAAOVYQDkXJlCap/NoX+IOIABYAAY2DwGQM4gZ8yYgQFgABgABirDAMi5MoVgRrr5GSlkDBkDA8BA7RgAOYOcMWMGBoABYAAYqAwDIOfKFFL7bA79Q8QBDAADwMDmMQByBjljxgwMAAPAADBQGQZAzpUpBDNSOSOlwwXMmbs4OAKOE3YKDOwYBkDOO6Xwb8XD/Rfi4aebT8mMNcnoelUcvZEm98aasfqBeuaDGegKuloCBkDOIOeqZ+RZcjZvojl5cCTOFniu7hKcC8YAkgQG1sfAhbdv34q9vb2qHTQUvL6CfdktJXKWaW/zthy8cQi2u1MT7LF8AerxfWN98kDkPAfDvvijeL7/m7h3sRG3vn4hXu7rv+dXr3qOmd+TZWz6Wj3vnqPn1fWbH8XnSgaauP06QzJ3/39+9Tfbj5dff2v6cVXc++aFkHV4fbFt9DeAbORMeusiZ3rXK9atPazU7pjQv/62ApktS2YgZ3LyNV8ZuVry/PQn8dIQtjRKRYacBM0zlqAZAfvfEaDLyVmROhGy144mZ3nf9rNJ1Uttdl9Bzt0yglOGjICB5WEA5FwzKVPfDAE6wpNAdFFso+7ryJobqSJsItExydmr00XLTWPIOXu/vwENJmeSIa6InIEBYGBGGAA5z0FZXnSaIDhz30tXm9S3SzkHhB6NOxXhsgmAKp8qw/sDcuaTI3zm2MBn4AEY6IMBkHNEUhUCqIic48g5BkJItnysKeINy6fK8DpAzrHMuXzwGfIBBoCBMgyAnJdAzpRO5mvOyXGlyJOAEt7TRCyjcbdGPUNypg1hp0fiWlImNH5c4TSBAWCgHgyAnOfgsLsiZzUGQ66UzjZXR6wGdGEKnBN6cO/hp7pOV8dE5EyEujInhNmr+flUc00cnYb3cqeJ0WljZ+Loej2GBycIXQADwEAbBkDOcyBn9HHQRha1qWwFcm5zBLgHogAG6sIAyBnEN4j4qjdo8zvoFX7nvGw9w46h34VhAOS8MIVWT5YTyltHzCtx9uAaHNeEcgcG64rAoI956uPCu3fvxOXLl+G84LyAAWAAGAAGgIFKMAByrkQRmN3Oc3YLvUFvwAAwsAkMIK0NcsZMGRgABoABYKAyDICcK1PIJmZgqBMze2AAGAAG5oUBkDPIGTNmYAAYAAaAgcowAHKuTCGY3c5rdgt9QV/AADCwCQyAnEHOmDEDA8AAMAAMVIYBkHNlCtnEDAx1YmYPDAADwMC8MABybiNndsbzye1NKTY4E5ufdd3Wt43eY2dX44URiCg2irVN2RXqBRnPGwMg5wLHc+3BmVit6KULm1P451d/Ey8rIGc1XpAySLnANkAAm/MHkO1uyxbkXOSA5JuNNv/ihFrIWR57iSMvd9sxgBigf2BguxgAOYOcowgR5Lxdo4RThPyBAWAAx3dOQM4qImbvWX5+9WpEiNIYWyPn4F3LL/dfCPeeZQ3kW1+/EPJ7+gvvlxo8yBmOoRQrKAesAAObwQDIuYic9QapdVK9mph/ErdsO9+Kh/svRIqg8+Ssn2kjW0XMfL3akHnbM2mjkin8ldjcBrjNADk9FrQFuQADwMA8MYC0tiXNbgXqjWF9iCtNqjkSzn3fNLqel19/m4y4G0XEv4l7F/0xKMLOPRONW5PyFBvf4Cx8PUEekAcwAAyEGAA5RySVAsm6kbMhVZZqppRzald2npxln4K6OOkmUt62HV6uaKyInEMjwf8pm8B3wAUwsEkMgJyLCWud3drpyDmn0HZy5oYQRNKZyDnXTtf3WHPmssbnLrzgPjACDIyPAZDzRsm5EXqTFl9zziuxnJxNvTYqNgeZ8DXnonGl+wJyTssFDghyAQaAgakwAHIuIrFhv3MOd1HLlLPdEJZNSbM15FSZiIiDk8ZMKr3/hrBGgJzhgKZyQGgHWAMG0hgAOU9AznMDH8g5bSxz0yP6Cz0CA/PFAMi5gJynOr6zFkPatfHWInf0Y76OFLqD7sbGAMi5jZztiy/W2Qw2b7DK6Hm1WokVzthO/3ytDTe4B5kBA8DAQAyAnAcKcOzZEuqb96QG+oP+gAFgYAwMgJxBzpjhAgPAADAADFSGARzfWZlCxphxoQ7M3IEBYAAYmDcGQM4gZ8yYgQFgABgABirDANLalSkEs915z3ahP+gPGAAGxsAAyBnkjBkzMAAMAAPAQGUYADlXppAxZlyoAzN3YCDGgPr9/i/7IKG5+Dz5U9Yd/iknyHkWQH0ibp2/F4f09+wJHMws9BYTxC6R5p1nj8X5+WPx9G4FclBnFoTnFei3zanf82/7N/133zj7Pn8vbtUgs63bmNHPjk6oQM5bB2A/x/XZs/fiMEnOAYGfvxGfzWxsPnHp8cBJleDjE/HolSZCSYbR37MvxpvM3fhOvD6/Lx7d6O7XUHL+8vi+OH/1nfhyKI6vH4mzVft72FVU3RalmTo2H8m14D4g8LQf6NaLb2dbLK/G0+Wn9Ctszx5cGw/DQ/E00fMg54kEPZZBpMn5trj56r04OL5tAazKvToVH/UZX1VppBYn1WdMO1dWE/Xr408sFsbCnqqnBzkPbXcsclan3bURb9OIPDmb6O30SBzJU/M66hk65qbJ4P7GqTg4/0vctJMiXY7bfFHbNdl4ETkb3axOxP6O2TLIeWYKT5NzYvargM+NOVEmGjul+WowhIyTivpcMq5dKgNy9kiqIGqW5XPkLL+nqK2E5L2218JqOe7XmoA3Fdl4ITk3zW5GzyDntQxoe85+s+Ssx6XP1Q7X5xrRkDGpWbxbAw9Tzx8d/+Wtn/HZvep/uKam6jWRf1C3XWeX6+19MwGDdKtJ7undL8RTkyr2PzsMqAiPpZPDqFWld2VqWUWdlHY+EHd4/+4exOno88eC10VpYkpbp9dy0+Ss+phMbwflvT7KvgYp7ILI2ZdH8DyNOWrHrU2H46Txyqs/ZqcbKsPlpYhSrTV3TzZz5MzJdhnk3G7jynalnRmb1PYXT/LJjsk+uQ+ge/w77Tu0jYf+geqQV+4rItln1p61v2pftuB1zeUzyJmcxUyupeSsyg0gM+WswnU6a7BunUgbWv5/StNxo/OeMWTM72vjKY8gUsZGBms3+8gNP+ovMelI6l6TFpETEYYkB0u2TSM0EXGi1YTBSYKePT+ncqZuIktDVI54MnXw9dfoGZosBGRLY5Pkz5+n7xvdlmo7UaceHyNYVYb9b+uh9tk1W5a12fK8ajvZZ9lGZpxBfSWkK/FTUq4ucl4zrc3kk7JxS5zMd4S+JPy/MTbMybjIxmmyz/qUsuUu/ZCtn9xm2CuoM9dWLd+DnGemxBJyJgPjxiIBRyB2hNVBVCrqWIkVzViVMQWzaM/A0oSq+sOMXfZFj+NUrZWnN7ak65rOcHwC5YTsPqdJJiQVTc5EzNqBeGVU1Ozfd200JuKOCdErY3GcIS3ehkeacgy6blVfRIZBfd6zHc4wW1bL7ZwmJ7bvfn2ejKIyRj9Rf/06Sgl1XuSs95gcRps+dfrX2XfBGnlg4x6pGpl79quIOPAB1p79X5F02rjnO3y9hXauJxLdGZDwuTn/D3KOjL4dJNtWdhc554i5b79Ts2qdmgoM0zMwTag8TWU/B+RMEXU+VT0fcqaUqndlpJEmPYYzRWI8ZavJy0bf5r5XP6XRI4ILyJTwzYhSkt7rV/d1ylx9rycGbWRviZTV04mp1rKGoLPjMFkJJse4PUPQVEeibAnpynpLypUSfdxPpmvSR/bahfscMfdpQ5dN2XgZObslLWvfctkp+hWJ8QeR7Zu+er6jvf8l+hkm9/b2t1H3hbdv34q9vb3N7OzMArA+QWxD+Ou02UbOYxGzjrATUbUypm5yDiP2eJxud3l+PF1Oqh1DcZZgzbS2IT9OXO6zJhiXjk73qZScOflaYpY21EpyYZsZclbpaxkhy/sH4o6sU5IZS3e7cfE6g/r69KW4bDqSbo+ceR/lZ0PUIUEvas15PGLO2XgZOQc+IOnnC2y8Bzmr/lIGL9leiIf5/4/IeWaKzpHZOMTcsZOzk5xNujpKt/mGosZgZ9OahOM1Z+OIotm4X1dM/GPdN86+lZzN+rNdS0633UXOaVLkdWWIJ4ndgExtGf390+PvxGs7pvvi0fGBsFGxSn3zCD6xpl5MuP0mFUkZqP7E6fyczpNkPnC3Nm9LEUT2p1RkO4lJrdUB12nuc25SOhYxUz/TKeJOcm5MP6z9psdRZOOJtWoub/dZp+tza8o0Eadd9e65dN/mch/k3MtwtqRsRYqpVBJtxDLpIzpBjF87jMgDqowyss6HdmsHs+bE7FcZJu+D3YVJDiZVRyItZozXps76jGWwXsvIWcpPEQulVs2VR75d5NyYTVk8clafvSjQ9CdoJ47ac+RM/WRkZ8iY97Ux37m++Gvh/o5z2nn+2BE8RbBBP2V9th1F8OxZWdYbq7OzULZuvEFaXLUX9NVgIEuqdLCI3SyYyK7QmmxbGd6OLLdGhJeyGYV7mpxmfUB+h7Nn22QPHTbeTc5SN2THvk/SGTO6V2bjFFSQjceT9EY0XdkP0lGb76Lxz+gKcp6RspLGhv7PfEnGnwQ4HWvysYQGPa+v58Lo2cneTQ56fWfaWVoE10sGo+O05DfOZiMcyHlN4I6uNPRju0YD+Y8j/ww5J1LM47S3o3pT0dXQlHO77HR6dbNt7BYGTAq+IxOR2ti2BDkhcsakYf2IBLIbR3apNG94+AdkPVjWyol3OPq1nDqlVXfwiMm15FWKZSnX1miYfjq2zAkRyLkUKCg32Dlu1JChH+gHGAAGFoQBkPOClAnya087Qj6QDzAADMwFAyBnkDNm28AAMAAMAAOVYQDkXJlC5jKrQz8RgQADwAAwsDkMgJxBzpgxAwPAADAADFSGgQvv3r0Tly9fhmIqUwxmpJubkUK2kC0wAAzUjgGQM0gZEzNgABgABoCByjCAtHZlCql9Nof+IeIABoABYGDzGAA5g5wrnDHT4QLmrONNHBwBvVeo9807PJAKZDwXDICcd8pJfyse7r8QDz+dj4GqIxGT5BwQOE5nAtnulC3Px4bnQoa19RPkvFMGvRRy1mfu8hcMZN88tFP6hcOuzcGiP8DkuhgAOe+U814KOScMfoIXG6xrZHguoa+dsjuMHzbQHwMg5zk4iYs/iuf7v4l7Fxtx6+sX4uW+/nt+9aqXyuT3ZBmbvlbPu+foeXX95kfxuZKBJm6/zpDM3f+fX/3N9uPl19+aflwV9755IWQdXl9sG/0Bmk9rB3XlyJleSpBMjQd1zAEL6KOHeTh9YHipGAA5z8HZMXK15PnpT+KlIWwJTkWGnATNM5agGQH735Fxl5OzInUiZK8dTc7yvu1nk6qX2uy+lpJzNq0NcgaZzcHG0UfgNMAAyDkQSJWzMEOAjvAkqbkotlH3dWTN+68Im0hUjZM9E407RaJhef2/i5RlP1y0TJ/z97vJmPdffi4h56W+zzWUBf7vjx/IDDKbKwZAzhFJVQhmLzpN9M/c99LVJvXtE2VItryucnL2Jwm8DhM5exMCTt68bNnnLnIGMZfJca4OCv2GfncVAyDnxZBzHDnHoF4WOYOY4bhjjEMmkMkyMIDjO5dAzia1/JKvOSfHlYpsCcjhPZPC5hvLOtePwzpk3ZuJnIuJmdacT4/EtaRMaPy4wqkDA8BAPRgAOc/BYXeltdUYDDFSOttco81fYQqcE3pw7+Gnuk5XRyr1zcE8EjkToa7MCWH2eiL21VjDA0hYuYiEqeyZOLrO+4rPcMTAADBQLwaQ1p4DOaOPg3ZyqnXrFcgZjrheRwzdQDchBkDOIL5BxBcCqrr/rx+JMxl543fOy9Yz7Bj6XRgGQM4LU2h15LhF+eqIeSX4MZ+QDyIUYAAYmAMGQM5bJI85AAR9hCMDBoABYGB6DICcQc5IhwEDwAAwAAxUhgGQc2UKwQx1+hkqZA6ZAwPAQG0YADmDnDFjBgaAAWAAGKgMAyDnyhRS2+wN/UFEAQwAA8DA9BgAOYOcMWMGBoABYAAYqAwDIOfKFIIZ6vQzVMgcMgcGgIHaMIDjO9vImR0jeXIb4K0NvOgPMAkMAANLxQDIuY2czT39kgU61xnGsFRjwLiAbWAAGKgFA0hrF5Bz08iXJ+Bs5lpAi37AgQIDwMDSMQByBjljI0gRBuAMl+4MMT5gvCYMgJyLHDMi55pAi77AiQIDwMDSMQByLiLna+LoFC9QWLoxYHxw+MAAMFALBkDOReSsAas3hq0Edm7DgGsxYPQDWAQGlokBkHMROSNyhgNYpgOAXqFXYKBODICci8gZa84w4DoNGHqBXoCBZWIA5Axyxm7tIgws0wHAsUOvwECdGAA5FzlmRM4w4DoNGHqBXoCBZWIA5AxyRuRchIFlOgA4dugVGKgTAyDnAseM4zvrBC+cCvQCDAADS8XAhbdv34q9vT1ETymSti++wNGdSzUAjAvOHRgABmrEACLnFCnjO0zWgAFgABgABraIAZDzFoVf42wNfUIUAQwAA8DA9jEAcgY5Y3YMDAADwAAwUBkGQM6VKQQz1u3PWKED6AAYAAa2jQGQM8gZM2ZgABgABoCByjAAcq5MIdueraF9RAzAADAADGwfAyBnkDNmzMAAMAAMAAOVYQDkXJlCMGPd/owVOoAOgAFgYNsYqJKc939ZidVK/p2IfZAnZrTAADAADAADO4aBKslZz1j0O5RXv+wDlDsGym3PWNE+oiZgABjYNgYuvHv3Tly+fLlOApTHZ54eiWsgpzr1A71AL8AAMAAMbAQDIGcAayPA2vasE+0j8gEGgIE5Y6DitHYjGkTOIE5MnoABYAAY2EEM1E3O14/E2QpvhJrz7A99R/QCDAADwEB/DNRNzmq2ZDaGYec2Zs87OHuGU+vv1CAzyGwJGKibnBE5g5BByMAAMAAM7CAG6iZnrDnDKHfQKJcw68cYEL0CA8MwAHKG88cEABgABoABYKAyDICcK1MIZpvDZpuQH+QHDAADS8AAyBnkjBkzMAAMAAPAQGUYqJiccXznEmZ/GAOiGGAAGAAG+mOgSnK2L77A0Z2YzVY2m4WT6e9kIDPIDBjoj4G6j++EYwY5AwPAADAADOwgBkDOO6h0zGL7z2IhM8gMGAAGpsRAlWntKQWAtmBwwAAwAAwAA7VhAOSMyBkpM2AAGAAGgIHKMAByrkwhtc3e0B9EFMAAMAAMTI8BkDPIGTNmYAAYAAaAgcowAHKuTCGYoU4/Q4XMIXNgABioDQMgZ5AzZszAADAADAADlWGAkTO9N3klVjj8A0CtDKi1zWrRH0RawAAwsEkMMHImQe+Lk9VKnD24BoICQQEDwAAwAAwAA1vAQIKcG3HtwZlY/bIPhWxBIZuciaFumoDiCiwAA8BA3RgAOYOAMQkDBoABYAAYqAwDyeM72yNnWps+E0fX6555YGYI/QADwAAwAAzMEQNJcm5un4jV6kTsJ2cSIOc5Khp9hoMCBoABYGA+GEimtbUC9cYw7NyejzJheNAVMAAMAAPLwECanFsj52UMHACGHoEBYAAYAAZqxUCSnNvXnKHMWpWJfgGbwAAwAAwsAwNrkDOtOa/Eye1lCAFghh6BAWAAGAAGasLAGuRsfge9WuG30MkNcwB4TQBHX4BHYAAYmCMG1iLn5vqROAM543eBmJwAA8AAMAAMbAQDCXLuPr5z/5eVWK3wO+c5zsbQZ0QRwAAwAAzUjwFGzm4tOXt0J0XM2d9A1z9ggBI6AgaAAWAAGKgdA4ycoazalYX+AaPAADAADOwGBv4fj087DgpeCLsAAAAASUVORK5CYII=;" vertex="1" parent="1">
          <mxGeometry x="3230" y="1050" width="487" height="266" as="geometry" />
        </mxCell>
        <mxCell id="gYu7qt-4oHGNPAb3_qpJ-21" value="" style="shape=image;verticalLabelPosition=bottom;labelBackgroundColor=default;verticalAlign=top;aspect=fixed;imageAspect=0;image=data:image/png,iVBORw0KGgoAAAANSUhEUgAAAVoAAAAfCAYAAACmswUdAAAVbUlEQVR4Ae2dd1sUSbuHz8fpCUyeAQcmEAaGNDAgJgQUA4KCKCqiZEVFMQfWhAEkSNQhiGJ+F31d103nfJ77XN2TAIkiC+72H30NMNXVVU/9nrvSU83/CILAal/xW/dz4PB+Cje5V70sq22LH+X5Nm8BuyuOULHLK7fZGvChb9JNfB4FB+ppbjlJQ8UutggC6h+1Lmu83P/zTQ20xisl12n1O0+5DeQ2kDUQ1oAMWrnTkEeksgZkDaywBmTQrrCB5V493KvLtpBt8W/VgAxaGbTyaEbWgKyBFdaADNoVNvC/tQeX6y2PXmUNhDUgg1YGrTyakTUga2CFNSCDdoUNPHevbiHSmkRKWiIJFgGlItz7zX2PnGZ1bWNAb0wgxZtOklWFTi23x+q2x49j/+8EWiVKpQa91oRJZ8IsXloDenUEqlUD2dyNoFAo0EQYMWpNGCMi0CjnTisolChUBkzaQL0CdTOoI5YxClCj0e6k+EgHAyN3ubhVQB8RKINai8ZgxmKxhC6TXkWEap4yrkEb/zMdMI3krMv0fXxFZ6WTdKtqTer7H2N7hQJBa8BoDvuD2WzEoBVQ/GADk+8EWhtx0eVcOeRjpMbHs1ofz47e4fL6QjxrEAIiZA8UdtNd5aN7WyH7YuaBmC4Bk+c2fcee+Osl1u3wTa5t3L4M0GZRXHOfoWdP6blWIUFWEbRT7kFK7g4zOTkZugavZJKXPk8Zg/fKn8tok8XYV8W6pA1UdH3g48dernrdpMk2Xzmbaw0IVXdpG34V8oVXw23crRIk2P5IHcp3Aq0GbUQMLpsHj8NDWX4bjw52cGtTEd41KEStxkRlkQ9f/Rt8u/Zw0D6Hk2lSSEhq5ubhIfrzN1KU6CHD6SHDloTLHPXNAsurvMbDoac8vlrP3jjr9HwsMVjdHrKzd7E1vw3ff39j5HY2hZmzlDH/CBWX79HT0+O/ujrouVqBe2aea7ANpjqJ0paLaccjUqrbScjLQ2syBWySSIS9lpjj94nJMBJhLyOq8Ab2wnKM5hn2iNmNZdsVEoor0QkCUscVV0lM8RWcubvRzmkDEwpNHubSdpzb9mK0RU9vjxn3qXUGHJm5XH76lrHOGzRu9hA/I83Uuq3Oz3E4rRWc3nuJ00l6nNoZtlpz5Z2jfEoVgt2N2+MlO7ua2uanjL/tobtewKib7R4NglDMkeZb3Ou5zeWKXeStkbp+J9BOr7Q38yq3ytrXLGhVygiS4wopTN9DYWw8Sfrp5Q86hzkqn9253UxU3eGEzYBtuWtyKg1CcjEt3S8Yf3Kelv2JRM8pBCdGSwvdk1/wzQRtIJ/9t/p4+OAyN5vKKS+v4UhlF8/fPOX6yV1kuCLnBUawjmvhU5lQStShX8m58gvpZ25iccYHpuSZaF23ib/xkfitFrSuJmxHXuA6chqLdUabxR8jumKE9LorGIOgTblCfN0I7n3H0M9p50iUuv2sa/oVd0UjkQlxC9pNpTORVtfL4MRLei8UsTt5RlnmfNbflS4Vt7OFrgYfXVkm3HPoey20/eLLUEBheRe+OUBriYml8PgFzpxr42Hve959eIWvpYqyVW8Lf5v/K0G72MZ1OHZydNcALyvOUaTVY1lmoy3NQRcB2up6qooy8NrExrRgMO/hxvNPvB+5RvX2NCKXWd7F2mm56STQVnwk5/wEiRffYcvMQCeNWNYmaIUldZh/F1ynPudfBtp1TtzFR+h4MsiFi7U03x5l+NXLHw+0UeYE3LbAtFmcOttTcRtU6ObYRFpoRKvRRBITleafhov5SVcKbouVqGlwiMJqSSI1lCadDGcScRrdPCOUqYKb/vPXz00j2RxJVGijSYkgROO0ppDm9LAt8zgtpT5eH/2JOlcOW6RypJMSZfuG0a0anSmBpv4PvHnRztndOQtMOecB7TQbheuoM1qo7Z7kzdsBrpbkkjpHuuWC8Xvf7wftO7LPdmEtnyRu9x7MsWYUwhoFbcCuec3t9EyM0nPqAFu/wdYKhQqzKZnkaBdOvQObIYGUkNbTSNLrMYV8LAKl0o7Lnk56KE0qqVYHMYKAUny+OgZbVDIe5x6KvDcZaBxloGDKkpc9meTIGMyCEkVA56lWJzadLjCKD+vfHRmFVdygVWhRaRJIsaeSqNfjNNlxxQR81pFGuiUSvUqFIJgwGxJwx7hJMkSSEJNGmuP7LLX59TbPiDYxG/fRM7SdKcao17Ch8QGdC4FWo0cVm0qmN4vs9ASskYYFZzLL0f28I9rg7vz+/Fs8OjrGC3EjqG6UseonPM5xkGlWoZ5l929e0Co1xMcVU1M8wutaH+NintLVwd0tJeyQBKtAEDToNPuo3PaAwYZRKc143VMmGju54sogS6Ve8puGbLYCDu7o51ntMM/qJ3h78hmPt+yk2BiElbjGU0ZdcQf9tT6e14/z+sRr/nNygpd1w4GyDtJVeIjDM9cIF3S0KAzmcm4+/4XX3TXs3exYoGGXClolOpONxt4PvH3Ty6XizSQvWKZgvQXEUZpGb8I8JdphauSDxWzGbNAiaUJvxGgOR0VMS2exYDLolhT6FALtqXb0CfeIr3pEdHYeasXaBq1QdpEWn4/hC8co/4ZlpQi1iS1beuk9dI8LGWdp8F7ncZ2P8bphXp8Y45E3m1yDGpWgQqmMJ8bSxL3qYYbrRiR/eF7fz0DZGWrE2ZZCgdJ8kMrCdny1o7yon+Ddqde8axzhRV3Ax46182DbQTYIWtTCIU6XDeLbf5rapKSAFrUIgb93BfcuIuIxxbYyVD9CR1YO57c0cLNiVOLAeN0oEzv3sT4yErViE3kZP9Fd1UN3zj5uV/QzVC3yYpyXVe3cz9+LXhVYO1+KLkNp5wFtKI1fz4sCrTMVy4VRJr/8wf9O3KS8MGMBf5ziKzOetxgAzwva4O58/+F7tHjyyRJDm0zpOBNvMVj9hI5NqWy2fF2AeUEbU8Luwja/QHQmooPhYDojBrWGCKkSQeD1MFDazIl0rxQyts7kYEdeLz2V97metpENS6ywUhmBNsKEWR+D2XmJ24cH6ZoG2iDgjVKYWkrCXur2DPHy8CX2W2KIC5TVGKFFO0sHM7/BHRgtZ+n8+VeG72xkh1ccPXxtu/DflgpaO0ZLEx3vf+U/g03sz01YWuhRcjG7z/Xyekq0w9TIh8nXw4y3VUqwLT7TRvfzcFTEtHSTb/DdqaM6e766Tf8uBNqme+gN5aw79ITogr0YzGsctJubON01znhHE41LqG+wjUOgPf6CNw2jDOyqpd5mItrspKZkmKcVP9Hk9uIS3LjspyTIPttRyoaYWMkfUhJKqCkeYLzykgTbGIUWbYSo3fVkuS7T0zhCzwYnWVHBkEsjonbVQhioiwPtTwzVT0hlfFF6ioZUL+YoL84NnYzXDXInLYVsrR+0A02veFPTT3eOA6/4XGsZZXmdjBy+wdUkQYJtsP5L+/ynglYdgzGmlofHhunctJ0dkUZpN1ecSugM6TSVjvKkuIbdsV9vHswLWns5Jbv6eHH4OldjBQyhqVHY+VQqI570uzw8+IBr2YXkBKY2CoUOs6mRSwf76SjYyb6o8D1LajSlHmHdOVorBmaAdnp+33WN1uTCvP0+Y59+Y2zm5taswF0KaKNxJJbT3P6Gyd8n6CjexAaz2FlNr8+8v+utrItPw5udTfZsl9dDptuOSqXEGucmNXOOdNlZeJIcOEyLf3YYtLfR65xE5NwituQiDm/VmtwMC9lxwwlOdb7i9ZNznC9ZfH2D94dAWz3Ok11VHHf6l6SUaiMx3vu0Vz6k1bOFonV57NvaybPKG1RH24mRpuoCGo2X9Sk36G/opy3ZhCsUXbDQGu23gfZVeTPVqV7/UoPSgTHqLO1143RuSifX4gdtf+0AwzvKybJo/EuLqq0UZN2m9+gt7qYIGELLdEu113cG7ZpZOghNGcYZ2X+R1sJ6ThT4r1PbT9FR9YJXB1oocaV+5dDzglafSEJKLTVF7QyX1nNmmz/PqtR0sgPT8ZAAjw7RV3qVy4Hnnig4wYmC+/RWjzMQnNosBSbBtKsBWm0cJk8rQx/nCdcKlk/6XCxobSR6DnCitZ+XH8bprixhlzVyxlr3UkX996YPg/YWep0BhaWWmH33cOxsxbQGow6CoBQk0E4w0ddM8/al2yyk8+oBHq4vYFvw0IpCjWDZyObkXDZF2VkvbsoWjfC29jFthSdpDvnDRS4XP2aswUf3tOiClQGtb3sB2636gL/rUavS2Zy2izxbFPbAiLavuouhLVswqdWBdH4Ad6010E7ztaW3XUgDi8xn7qWDeUAbBO4J8UDCupilgVYsmD4RR+KhELhPlHRxr/g0F7PSyTQJhAT4FWjDsJ8K5qVWWlgN0AoxGC31PHjzmWcPdrN7vfEru02vx2JAGy1BtuFqN6MTPvpOHmS3Tvtt0RGRiSTk7KS0XAwVm+Uq3UNJfhqaCBWu9fkUlsySRrqvlKK8DDzRixfvV6AVsjAWtBKztw/Hlo5weJe9mugD4yRUnWVd7PT8Fe56bIefkX6sRdooleJoVyi8K9RO25tp7htj7HYDx+OnlyeUZh5HDOm8ups7GbnSfziY7T5pZjUraP3+0Li1igqn1r95JT1vZUDbl+shL3KuevqBKoN2dvvMDVq1E6PtHN01I3RtnrJ0MI9wgiKZd0Q72/22GupKhhguq+d0goBKbcTjbaezop0bU5YOgvkv+3NVQGtEb97G5ZFPvBls4Ui+e4HIiflAK64lW3AklkkjWQmyzUcoFgQ0s9l3MX+LzyO36irtwcMPMz/bb4V2dfMqm7l8L3BIYma6nkfcPL2f0tTZBTdb230NWgGVuxHrnuek1DzDFYyjNeZhKeolvv4WzhyH/1CCVDcr2g1Xia0eJaW0KrxJusKgtR69wY3hIXpOH/ymwPjFgnZd9DbKCh4zUXmDmilLB7PZ0v83N0mO03TUjTCw2U2KceZxcf8eyMl9/fjKz1GXkoYgiFEN8dJa8PVDPh4HZ4zSgMu/RvuPAu3UpYPMFOLXmRfwx8XrebZ2mRu0ggmdZjunSocYOXqf8xmBzbDQ5pUJozoQdaBQoxLfBxD4LjenlbbyR7RtLSNXZ8KkNaJXKqQQFJVKi04z5b0B0j1lHN32gPa91dSJIxWFDiHqBBfKhhgrO8vJwGaY9A4FKb0R/ZKjDlSoVToM4jsLQpthQ/Tk7+WAVXw3gxGjWj3FeQW+6xqtIKA1Wqhsf8ert09o3Z9Hxiw71WqtDoO0o5+GM/4KvR++MHo/n725FixmoxS+Iig0CNrdnH7wnLe/vWP0Sj2VM6MFTHp0GjHsZnkC+Tvunw20grkES/4gqZd+I+3GRxLEAwtGAU3OGWLrX5F6pAW93oJauo5iLX1KYuN9YnOyw3WWQDtGcnkjplBa/z0qrR6ltNY55cDCkWasqZ5AnsG8TSjFE0rT7Ch2dFoOXO3F53vIucotM75fnM0XC1pB6yUltZUnNSO82FnKxsBmWNAfTFo9OjHqIFRG8Uj8Qa4eesab/U1sdroD7x8JboaJ0/oNHC7sYODALc7kbMesc2O3NNF2fJgXJ1/xdGfgxOQqglaMcNEazJglf9jD3qOPGX3XR+9pC06bBYtJL82wBKUaldYYipjZ1vyInjevw35hNmPSKVBN3Q+yp2A5/ZT3v/7BX5+ecKN0K55vXj9euL3nAa0ChUJ01u00FHUxWBMI7wqFY/lo3xiIOpCEcJ2hWh9jtT4mGsXQqVe8bRxnovYJI1UPuOIwEqcWcLkO0VA8GH5vgJTfOOOlzTSmpgVicxUSbPXRtZwo6uV5ILzLHwYmhqrc58qSow5cZCfVcfOIeH8wvOs17xvHeVnnY/TwXR5t2CDBNuhU3xu0Co0BbdEdOsZ/Zry9jMO5XzfQloqT3BkRd/Q/8uHDF37/6y/++O2//PLfSSafd0ujSkFrRKh6SOerT/z515/88eUzn2dEC7x5fJa6PcnfBIBg/f+uz1lBq9CgST+C/dT/sX4KaBVqL/oNPxF/4Teyr3wkS7q+4KlpxZ6djTK0NiggSKD9QM5PX6ak9d+TfrSF6FTRPmHQZlz/jezrnwJ5iul+JutKH9Hx7kA0TLC9xM2kSs53vcbXc4hjhcH1yOD3i/tcNGjFgYw2FUfiLQm244HwLr8/9OOrvES1Vi/F0/rbTIlSk4RNTF/7jPF6fzjYs1B4l/hPGNVorTU07unjRcMYz2pHGDs+THdOKfcO9PBw2+qDVoRsZds4w69Ff/jEL59/548//+D3Xyf58GGSyaFL0nKW4NxI+rF2Xk5O8vPkJJ9+/Z3f/wz7xfs34zw+ZcY99ai90onJdonHH77w+a9PDF8uYd8KnvCbB7SiWMSe24Qt0k2KPXiwIPyZYtZjFkdlSiN6feKUQOpwmgxnOh57Mi6NSgqJ0ulsOK3iwYOpaTx4pgVOB4QaCsCenjbDmYzLYMYU6sEXI2wdJr2TpKkHL6aWweYmxWRCJb4xKJCvdMAhMoX06FiilMqlhUvNVjaFEsGSwPHbTxgdf8St43mkzEgnHiV0e+bY0c9M9b/HYNoZ8NnTZqXG41gX3LhYjH1WL41Cuw51tAejw4VSGQ57U+itRDiyMSZkojWrUEojDj1KYzyauGyMrvBlsMcToZ9RX30cWnvmtHTBe8Lp1QhKK2qHF0NCOL9gOqMrjQitftpMR6M3U3xmmOEXPm5XbWPjLCGOQQ3N9xk6sGBzL6zn0MGBmb6ThseegEOpnN4ZzJY+dGAhEM8607/sabgNkbisbhItMw8spJMc9PcZmvXX0X9gIfkrPwoeZEjApVva60DFGYfdnYnHO7vGQwcNtGYM9pQ5I2ayvJmkxqrQa6ZqXIPelEbz0Efef/nM2LV97E+b+v33/XkB0H7fh80nun/Td671R2m5289gZyun5H/XHerYfgQN6Nc5WH/4HL2vJ3jccIh9CbYf5qjzj2Dfv62MeivGDZW0v/zMp/eDnK/MJXHOjb7lc1AG7ay98/INO79g4vHmn+FaWx99D06y0Smgnrp+tCplWuk6/xPyj8KRWsbZ4fc876qnMikGh9xWP1RHKfplVGwiG/c3UNk6wvsXXdw5V05WykInNZenXxm0q+YoXrLzT3L+2gnpFJX8tv7lCXn+ju175e0izn2ciw9bacozLOlQxt9Tvu9Vz392PmJ4Yk1rD92dD3nYlEeifaFQy+XbQwbtqoF2+Y0nO69sQ1kDP4YGZNDKoP3hpn4yXH4MuMjtFG4nGbQyaGXQyhqQNbDCGpBBu8IGlnv1cK8u20K2xb9VAzJoZdDKoxlZA7IGVlgD/w9bHSI9LI8jsAAAAABJRU5ErkJggg==;" vertex="1" parent="1">
          <mxGeometry x="3717" y="1097" width="346" height="31" as="geometry" />
        </mxCell>
        <mxCell id="gYu7qt-4oHGNPAb3_qpJ-22" value="" style="endArrow=classic;html=1;rounded=0;" edge="1" parent="1">
          <mxGeometry width="50" height="50" relative="1" as="geometry">
            <mxPoint x="3940" y="1090" as="sourcePoint" />
            <mxPoint x="3170" y="1000" as="targetPoint" />
            <Array as="points">
              <mxPoint x="3940" y="830" />
              <mxPoint x="3170" y="830" />
            </Array>
          </mxGeometry>
        </mxCell>
        <mxCell id="gYu7qt-4oHGNPAb3_qpJ-23" value="4" style="text;html=1;align=center;verticalAlign=middle;resizable=0;points=[];autosize=1;strokeColor=none;fillColor=none;" vertex="1" parent="1">
          <mxGeometry x="4005" y="1138" width="30" height="30" as="geometry" />
        </mxCell>
        <mxCell id="gYu7qt-4oHGNPAb3_qpJ-24" value="list2-&amp;gt;next = 4" style="text;html=1;align=center;verticalAlign=middle;resizable=0;points=[];autosize=1;strokeColor=none;fillColor=none;" vertex="1" parent="1">
          <mxGeometry x="3110" y="1068" width="100" height="30" as="geometry" />
        </mxCell>
        <mxCell id="gYu7qt-4oHGNPAb3_qpJ-25" value="list2-&amp;gt;next-&amp;gt;next = 4" style="text;html=1;align=center;verticalAlign=middle;resizable=0;points=[];autosize=1;strokeColor=none;fillColor=none;" vertex="1" parent="1">
          <mxGeometry x="2538.5" y="790" width="130" height="30" as="geometry" />
        </mxCell>
        <mxCell id="gYu7qt-4oHGNPAb3_qpJ-26" value="list2 3的下一个结点是自己的4&lt;div&gt;返回list2 的3&lt;/div&gt;" style="text;html=1;align=center;verticalAlign=middle;resizable=0;points=[];autosize=1;strokeColor=none;fillColor=none;" vertex="1" parent="1">
          <mxGeometry x="2120" y="945" width="180" height="40" as="geometry" />
        </mxCell>
        <mxCell id="gYu7qt-4oHGNPAb3_qpJ-27" value="list1目前是自己的2&amp;nbsp; niext是list2的3" style="text;html=1;align=center;verticalAlign=middle;resizable=0;points=[];autosize=1;strokeColor=none;fillColor=none;" vertex="1" parent="1">
          <mxGeometry x="1515" y="838" width="210" height="30" as="geometry" />
        </mxCell>
      </root>
    </mxGraphModel>
  </diagram>
</mxfile>
